<?xml version="1.0" standalone="no"?>
<!DOCTYPE svg PUBLIC "-//W3C//DTD SVG 1.1//EN" "http://www.w3.org/Graphics/SVG/1.1/DTD/svg11.dtd" >
<svg xmlns="http://www.w3.org/2000/svg" xmlns:xlink="http://www.w3.org/1999/xlink" version="1.1">
<metadata>
Created by FontForge 20161013 at Sat Mar 15 23:04:08 2014
 By ,,,
Copyright (c) 2013 by Gayane Bagdasaryan, Dmitry Rastvortsev. All rights reserved.
</metadata>
<defs>
<font id="BrutalType-Thin" horiz-adv-x="522" >
  <font-face 
    font-family="Brutal Type"
    font-weight="200"
    font-stretch="normal"
    units-per-em="1000"
    panose-1="2 0 5 6 4 0 0 2 0 4"
    ascent="804"
    descent="-196"
    x-height="500"
    cap-height="700"
    bbox="-42 -235 1024 944"
    underline-thickness="50"
    underline-position="-200"
    unicode-range="U+0020-FB02"
  />
<missing-glyph horiz-adv-x="339" 
 />
    <glyph glyph-name="fi" unicode="fi" horiz-adv-x="499" 
d="M129 0h-10v490h-94v10h94v73q0 66 33 100t95 34l32 -2v-10q-22 2 -32 2q-57 0 -87.5 -32t-30.5 -92v-73h280v-500h-10v490h-270v-490zM409 595h-10v110h10v-110z" />
    <glyph glyph-name="fl" unicode="fl" horiz-adv-x="499" 
d="M129 0h-10v490h-94v10h94v73q0 66 33 100t95 34l32 -2v-10q-22 2 -32 2q-57 0 -87.5 -32t-30.5 -92v-73h150v-10h-150v-490zM409 0h-10v705h10v-705z" />
    <glyph glyph-name=".notdef" horiz-adv-x="339" 
 />
    <glyph glyph-name=".null" horiz-adv-x="0" 
 />
    <glyph glyph-name="nonmarkingreturn" horiz-adv-x="333" 
 />
    <glyph glyph-name="space" unicode=" " horiz-adv-x="271" 
 />
    <glyph glyph-name="exclam" unicode="!" horiz-adv-x="230" 
d="M120 0h-10v123h10v-123zM120 220h-10v480h10v-480z" />
    <glyph glyph-name="quotedbl" unicode="&#x22;" horiz-adv-x="274" 
d="M60 500h-10v205h10v-205zM224 500h-10v205h10v-205z" />
    <glyph glyph-name="numbersign" unicode="#" horiz-adv-x="584" 
d="M117 0h-9v5l39 208h-127v10h129l48 254h-137v10h139l40 213h9v-5l-39 -208h216l40 213h9v-5l-39 -208h129v-10h-131l-48 -254h139v-10h-141l-40 -213h-9v5l39 208h-216zM207 477l-48 -254h216l48 254h-216z" />
    <glyph glyph-name="dollar" unicode="$" horiz-adv-x="611" 
d="M55 227h10q0 -115 75 -174q76 -58 179 -58q100 0 156 45.5t56 119.5q0 59 -36.5 97t-119.5 69l-126 48q-96 35 -133 71q-35 37 -35 102q0 76 58.5 122t158.5 46h4v95h10v-95q104 -4 165 -64t61 -172h-10q0 115 -66 171q-64 55 -164 55q-95 0 -151 -43.5t-56 -114.5
q0 -60 31 -92q31 -33 106 -61l124 -47q101 -38 144 -77q45 -39 45 -110q0 -79 -58 -127t-164 -48h-7v-95h-10v96q-48 2 -91 17t-78.5 43t-56.5 74.5t-21 106.5z" />
    <glyph glyph-name="percent" unicode="%" horiz-adv-x="741" 
d="M189 358q62 0 96 34t34 89v100q0 56 -34 90t-96 34q-60 0 -94.5 -34t-34.5 -90v-100q0 -56 34.5 -89.5t94.5 -33.5zM189 348q-65 0 -102 37t-37 97v99q0 61 37 97.5t102 36.5q67 0 103.5 -36.5t36.5 -97.5v-99q0 -61 -36.5 -97.5t-103.5 -36.5zM181 0h-9v5l385 695h9v-5z
M551 -5q62 0 96 34t34 89v100q0 56 -34 90t-96 34q-60 0 -94.5 -34t-34.5 -90v-100q0 -56 34.5 -89.5t94.5 -33.5zM551 -15q-65 0 -102 36.5t-37 97.5v99q0 60 37 97t102 37q67 0 103.5 -36.5t36.5 -97.5v-99q0 -61 -36.5 -97.5t-103.5 -36.5z" />
    <glyph glyph-name="ampersand" unicode="&#x26;" horiz-adv-x="580" 
d="M469 106l89 -101v-5h-9l-86 97q-79 -112 -220 -112q-92 0 -151 53q-58 54 -58 139q0 57 28 99.5t91 94.5l40 33l-27 31q-39 42 -57 73q-16 29 -16 70q0 57 36.5 93t91.5 36q56 0 92 -36t36 -91q0 -64 -73 -122l-69 -56l255 -289q52 80 52 195h10q0 -117 -55 -202zM242 -5
q137 0 214 110l-256 292l-41 -33q-61 -50 -88 -91.5t-27 -95.5q0 -81 56 -132q56 -50 142 -50zM103 578q0 -32 14 -62q13 -25 55 -74l29 -33l62 51q76 61 76 119q0 51 -33 84.5t-85 33.5q-51 0 -84.5 -33t-33.5 -86z" />
    <glyph glyph-name="quotesingle" unicode="'" horiz-adv-x="110" 
d="M60 500h-10v205h10v-205z" />
    <glyph glyph-name="parenleft" unicode="(" horiz-adv-x="286" 
d="M266 -150v-10q-78 0 -122 40t-44 112v596q0 72 44 112t122 40v-10q-73 0 -114.5 -37.5t-41.5 -105.5v-594q0 -68 41.5 -105.5t114.5 -37.5z" />
    <glyph glyph-name="parenright" unicode=")" horiz-adv-x="286" 
d="M20 -160v10q73 0 114.5 37.5t41.5 105.5v594q0 68 -41.5 105.5t-114.5 37.5v10q78 0 122 -40t44 -112v-596q0 -72 -44 -112t-122 -40z" />
    <glyph glyph-name="asterisk" unicode="*" horiz-adv-x="388" 
d="M199 333h-10v177l-154 -89l-5 9l154 89l-154 89l5 8l154 -88v177h10v-177l154 89l5 -9l-154 -89l154 -89l-5 -8l-154 88v-177z" />
    <glyph glyph-name="plus" unicode="+" horiz-adv-x="498" 
d="M254 114h-10v194h-194v10h194v194h10v-194h194v-10h-194v-194z" />
    <glyph glyph-name="comma" unicode="," horiz-adv-x="169" 
d="M34 -82h-9v5l85 200h9v-5z" />
    <glyph glyph-name="hyphen" unicode="-" horiz-adv-x="430" 
d="M360 308h-290v10h290v-10z" />
    <glyph glyph-name="period" unicode="." horiz-adv-x="170" 
d="M90 0h-10v123h10v-123z" />
    <glyph glyph-name="slash" unicode="/" horiz-adv-x="447" 
d="M59 -100h-9v5l338 835h9v-5z" />
    <glyph glyph-name="zero" unicode="0" horiz-adv-x="586" 
d="M496 193v315q0 93 -54.5 145.5t-148.5 52.5t-148.5 -52.5t-54.5 -145.5v-315q0 -93 54.5 -145.5t148.5 -52.5t148.5 52.5t54.5 145.5zM80 193v314q0 98 57 153t156 55t156 -55t57 -153v-314q0 -98 -57 -153t-156 -55t-156 55t-57 153z" />
    <glyph glyph-name="one" unicode="1" horiz-adv-x="230" 
d="M130 0h-10v690h-94v5l4 5h100v-700z" />
    <glyph glyph-name="two" unicode="2" horiz-adv-x="558" 
d="M486 0h-416v10l212 217q86 88 116 133q54 80 54 153q0 89 -51.5 140.5t-135.5 51.5t-140 -53q-55 -52 -55 -149h-10q0 101 58 156q59 56 147 56q89 0 143 -54t54 -148q0 -85 -59 -164q-28 -39 -50 -62q-42 -45 -52 -55l-12 -12l-205 -210h402v-10z" />
    <glyph glyph-name="three" unicode="3" horiz-adv-x="557" 
d="M60 184h10q3 -87 60.5 -138t150.5 -51q92 0 144 51.5t52 144.5q0 75 -48 123q-46 49 -125 49h-71v10h74q71 0 112.5 43.5t41.5 115.5q0 73 -50 123q-49 51 -134 51q-88 0 -140.5 -54t-52.5 -149h-10q0 99 55 155.5t148 56.5q89 0 142 -53q52 -52 52 -130
q0 -67 -35 -110.5t-91 -53.5q64 -12 103 -59t39 -118q0 -97 -54.5 -151.5t-151.5 -54.5q-96 0 -158 53q-60 54 -63 146z" />
    <glyph glyph-name="four" unicode="4" horiz-adv-x="533" 
d="M400 0h-10v183h-350v10l306 507h9v-5l-302 -502h337v218h10v-218h103v-10h-103v-183z" />
    <glyph glyph-name="five" unicode="5" horiz-adv-x="567" 
d="M288 -15q-88 0 -145 49.5t-70 138.5h11q13 -84 67.5 -131t136.5 -47q94 0 146.5 59.5t52.5 159.5q0 106 -52 161t-144 55q-103 0 -167 -76h-9l28 346h313v-10h-304l-26 -319q28 31 72.5 50t91.5 19q98 0 152.5 -58t54.5 -168q0 -104 -55.5 -166.5t-153.5 -62.5z" />
    <glyph glyph-name="six" unicode="6" horiz-adv-x="560" 
d="M70 201q0 53 15 92q17 41 51 96l195 311h9v-5l-212 -337q57 60 161 60q101 0 156 -58t55 -159q0 -100 -56 -158t-159 -58t-159 58t-56 158zM490 201q0 97 -52 152t-149 55q-90 0 -150 -54q-59 -54 -59 -153q0 -95 53.5 -150.5t151.5 -55.5t151.5 55.5t53.5 150.5z" />
    <glyph glyph-name="seven" unicode="7" horiz-adv-x="523" 
d="M208 0h-8v5l261 685h-391v-175h-10v185h413v-10z" />
    <glyph glyph-name="eight" unicode="8" horiz-adv-x="594" 
d="M70 184q0 75 43.5 122.5t113.5 60.5q-57 10 -94.5 53.5t-37.5 110.5q0 83 53.5 133.5t148.5 50.5t148.5 -50.5t53.5 -133.5q0 -67 -37.5 -110.5t-94.5 -53.5q70 -13 113.5 -60.5t43.5 -122.5q0 -93 -59 -146t-168 -53t-168 53t-59 146zM296 -5q106 0 162 51t56 138
q0 74 -51 126q-49 52 -154 52h-24q-104 0 -155 -52q-50 -53 -50 -126q0 -87 55.5 -138t160.5 -51zM285 372h24q90 0 135 43.5t45 120.5q0 76 -51.5 122.5t-140.5 46.5t-140.5 -47t-51.5 -122q0 -77 45 -120.5t135 -43.5z" />
    <glyph glyph-name="nine" unicode="9" horiz-adv-x="560" 
d="M229 0h-9v5l212 337q-57 -60 -161 -60q-101 0 -156 58t-55 159q0 100 56 158t159 58t159 -58t56 -158q0 -54 -16 -93q-15 -38 -50 -95zM70 499q0 -97 52 -152t149 -55q91 0 149 54q60 54 60 153q0 95 -53.5 150.5t-151.5 55.5t-151.5 -55.5t-53.5 -150.5z" />
    <glyph glyph-name="colon" unicode=":" horiz-adv-x="170" 
d="M90 0h-10v123h10v-123zM90 377h-10v123h10v-123z" />
    <glyph glyph-name="semicolon" unicode=";" horiz-adv-x="179" 
d="M34 -82h-9v5l85 200h9v-5zM94 377h-10v123h10v-123z" />
    <glyph glyph-name="less" unicode="&#x3c;" horiz-adv-x="460" 
d="M410 114h-10l-350 194v10l350 194h10v-5l-349 -194l349 -194v-5z" />
    <glyph glyph-name="equal" unicode="=" horiz-adv-x="496" 
d="M446 200h-396v10h396v-10zM446 417h-396v10h396v-10z" />
    <glyph glyph-name="greater" unicode="&#x3e;" horiz-adv-x="460" 
d="M60 114h-10v5l348 194l-348 194v5h10l350 -194v-10z" />
    <glyph glyph-name="question" unicode="?" horiz-adv-x="497" 
d="M253 220h-10v96l61 40q53 35 88 70q45 45 45 112q0 70 -49 118q-48 49 -139 49q-89 0 -144 -54t-55 -148h-10q0 98 58 155t152 57t145 -52q52 -51 52 -125q0 -71 -48 -119q-32 -33 -79 -64l-9 -6l-58 -38v-91zM253 0h-10v123h10v-123z" />
    <glyph glyph-name="at" unicode="@" horiz-adv-x="1016" 
d="M542 -151h-25q-194 0 -315 121q-122 122 -122 312q0 195 121 313q121 120 316 120q181 0 299 -109q120 -108 120 -286q0 -117 -46 -190q-45 -72 -115 -72q-38 0 -62.5 26t-24.5 72v8q-96 -106 -204 -106q-82 0 -128 51t-46 135v74q0 84 46 135t128 51q108 0 204 -106v94
h10v-329q0 -48 21 -71.5t56 -23.5q63 0 107 69q44 71 44 183q0 172 -117 279q-116 106 -292 106q-191 0 -309 -117t-118 -306q0 -185 119 -304t308 -119h25v-10zM484 68q103 0 204 110v206q-101 110 -204 110q-77 0 -120.5 -48t-43.5 -128v-74q0 -80 43.5 -128t120.5 -48z
" />
    <glyph glyph-name="A" unicode="A" horiz-adv-x="650" 
d="M39 0h-9v5l289 695h12l289 -695v-5h-9l-91 218h-391zM325 689l-192 -461h383z" />
    <glyph glyph-name="B" unicode="B" horiz-adv-x="638" 
d="M412 0h-312v700h290q77 0 120 -45.5t43 -125.5q0 -67 -30 -109t-80 -55q61 -9 98 -56t37 -126q0 -84 -44.5 -133.5t-121.5 -49.5zM110 358v-348h299q74 0 116.5 47t42.5 127q0 81 -42 127.5t-117 46.5h-299zM110 690v-322h286q69 0 108 43t39 118t-40.5 118t-112.5 43
h-280z" />
    <glyph glyph-name="C" unicode="C" horiz-adv-x="656" 
d="M339 -15q-119 0 -189 67t-70 185v226q0 118 70 185t189 67q105 0 175 -61q72 -60 72 -166v-10h-10v10q0 100 -69 159q-67 58 -168 58q-115 0 -182 -64.5t-67 -177.5v-226q0 -113 67 -177.5t182 -64.5q101 0 168 58q69 59 69 159v10h10v-10q0 -105 -72 -167
q-70 -60 -175 -60z" />
    <glyph glyph-name="D" unicode="D" horiz-adv-x="665" 
d="M110 690v-680h221q114 0 179 63.5t65 174.5v204q0 111 -65 174.5t-179 63.5h-221zM331 0h-231v700h231q118 0 186 -66t68 -182v-204q0 -116 -68 -182t-186 -66z" />
    <glyph glyph-name="E" unicode="E" horiz-adv-x="568" 
d="M508 0h-408v700h408v-10h-398v-332h350v-10h-350v-338h398v-10z" />
    <glyph glyph-name="F" unicode="F" horiz-adv-x="558" 
d="M110 0h-10v700h408v-10h-398v-332h350v-10h-350v-348z" />
    <glyph glyph-name="G" unicode="G" horiz-adv-x="687" 
d="M345 -15q-123 0 -194 67q-71 68 -71 185v226q0 117 71 185q71 67 194 67q105 0 178 -61q74 -60 74 -166v-10h-10v10q0 100 -71 159q-70 58 -171 58q-118 0 -186.5 -64.5t-68.5 -177.5v-226q0 -113 68.5 -177.5t186.5 -64.5q90 0 148 40t94 127v156h-211v10h221v-328h-10
v138q-61 -153 -242 -153z" />
    <glyph glyph-name="H" unicode="H" horiz-adv-x="680" 
d="M110 0h-10v700h10v-344h460v344h10v-700h-10v346h-460v-346z" />
    <glyph glyph-name="I" unicode="I" horiz-adv-x="210" 
d="M110 0h-10v700h10v-700z" />
    <glyph glyph-name="J" unicode="J" horiz-adv-x="555" 
d="M30 197v25h10v-25q0 -95 55.5 -148.5t151.5 -53.5q97 0 152.5 53.5t55.5 148.5v503h10v-503q0 -99 -59 -155.5t-159 -56.5t-158.5 56.5t-58.5 155.5z" />
    <glyph glyph-name="K" unicode="K" horiz-adv-x="577" 
d="M110 0h-10v700h10v-344h166l251 344h9v-5l-251 -344l262 -346v-5h-9l-261 346h-167v-346z" />
    <glyph glyph-name="L" unicode="L" horiz-adv-x="550" 
d="M520 0h-420v700h10v-690h410v-10z" />
    <glyph glyph-name="M" unicode="M" horiz-adv-x="788" 
d="M110 0h-10v700h10l284 -420l284 420h10v-700h-10v681l-280 -414h-8l-280 414v-681z" />
    <glyph glyph-name="N" unicode="N" horiz-adv-x="680" 
d="M110 0h-10v700h10l460 -682v682h10v-700h-9l-461 681v-681z" />
    <glyph glyph-name="O" unicode="O" horiz-adv-x="668" 
d="M578 233v234q0 111 -65 174.5t-179 63.5t-179 -63.5t-65 -174.5v-234q0 -111 65 -174.5t179 -63.5t179 63.5t65 174.5zM80 233v234q0 116 68 182t186 66t186 -66t68 -182v-234q0 -116 -68 -182t-186 -66t-186 66t-68 182z" />
    <glyph glyph-name="P" unicode="P" horiz-adv-x="608" 
d="M110 0h-10v700h270q86 0 134.5 -53.5t48.5 -146.5t-48.5 -146.5t-134.5 -53.5h-260v-300zM110 690v-380h260q81 0 127 51t46 139t-46 139t-127 51h-260z" />
    <glyph glyph-name="Q" unicode="Q" horiz-adv-x="673" 
d="M593 -119h-9l-101 141q-62 -37 -149 -37q-118 0 -186 66t-68 182v234q0 116 68 182t186 66t186 -66t68 -182v-234q0 -141 -97 -205l102 -142v-5zM578 233v234q0 111 -65 174.5t-179 63.5t-179 -63.5t-65 -174.5v-234q0 -111 65 -174.5t179 -63.5t179 63.5t65 174.5z" />
    <glyph glyph-name="R" unicode="R" horiz-adv-x="630" 
d="M110 0h-10v700h279q86 0 134.5 -53.5t48.5 -146.5q0 -88 -44 -140.5t-120 -59.5l180 -295v-5h-9l-183 300h-276v-300zM110 690v-380h269q81 0 127 51t46 139t-46 139t-127 51h-269z" />
    <glyph glyph-name="S" unicode="S" horiz-adv-x="611" 
d="M319 -15q-50 0 -96 14t-84 41.5t-61 75.5t-23 111h10q0 -115 75 -174q76 -58 179 -58q100 0 156 45.5t56 119.5q0 59 -36.5 97t-119.5 69l-126 48q-96 35 -133 71q-35 37 -35 102q0 76 58.5 122t158.5 46q105 0 173 -59q67 -58 67 -177h-10q0 115 -66 171q-64 55 -164 55
q-95 0 -151 -43.5t-56 -114.5q0 -60 31 -92q31 -33 106 -61l124 -47q101 -38 144 -77q45 -39 45 -110q0 -79 -58 -127t-164 -48z" />
    <glyph glyph-name="T" unicode="T" horiz-adv-x="540" 
d="M275 0h-10v690h-235v10h480v-10h-235v-690z" />
    <glyph glyph-name="U" unicode="U" horiz-adv-x="660" 
d="M90 237v463h10v-463q0 -113 62 -177.5t168 -64.5t168 64.5t62 177.5v463h10v-463q0 -117 -65 -185q-64 -67 -175 -67t-175 67q-65 68 -65 185z" />
    <glyph glyph-name="V" unicode="V" horiz-adv-x="650" 
d="M331 0h-12l-289 695v5h9l286 -689l286 689h9v-5z" />
    <glyph glyph-name="W" unicode="W" horiz-adv-x="782" 
d="M195 0h-11l-134 695v5h9l132 -685l196 445h8l196 -445l132 685h9v-5l-134 -695h-11l-196 446z" />
    <glyph glyph-name="X" unicode="X" horiz-adv-x="586" 
d="M49 0h-9v5l246 347l-246 343v5h9l244 -341l244 341h9v-5l-246 -344l246 -346v-5h-9l-244 344z" />
    <glyph glyph-name="Y" unicode="Y" horiz-adv-x="596" 
d="M303 0h-10v278l-273 417v5h9l269 -411l269 411h9v-5l-273 -417v-278z" />
    <glyph glyph-name="Z" unicode="Z" horiz-adv-x="558" 
d="M508 0h-458v10l437 680h-424v10h436v-10l-437 -680h446v-10z" />
    <glyph glyph-name="bracketleft" unicode="[" horiz-adv-x="295" 
d="M295 -160h-195v900h195v-10h-185v-880h185v-10z" />
    <glyph glyph-name="backslash" unicode="\" horiz-adv-x="447" 
d="M59 740l338 -835v-5h-9l-338 835v5h9z" />
    <glyph glyph-name="bracketright" unicode="]" horiz-adv-x="295" 
d="M195 -160h-195v10h185v880h-185v10h195v-900z" />
    <glyph glyph-name="asciicircum" unicode="^" horiz-adv-x="464" 
d="M59 387h-9v5l176 313h12l176 -313v-5h-9l-173 310z" />
    <glyph glyph-name="underscore" unicode="_" horiz-adv-x="501" 
d="M502 -89h-503v10h503v-10z" />
    <glyph glyph-name="grave" unicode="`" horiz-adv-x="276" 
d="M206 590h-13l-123 135v5h9z" />
    <glyph glyph-name="a" unicode="a" 
d="M216 -12q-72 0 -116.5 36t-44.5 104q0 74 53 112.5t155 38.5h164v79q0 65 -43.5 104.5t-123.5 39.5q-77 0 -121.5 -39.5t-44.5 -104.5h-10q0 70 46.5 112t129.5 42q85 0 131 -41.5t46 -112.5v-358h-10v83q-104 -95 -211 -95zM216 -2q103 0 211 99v172h-164
q-96 0 -147 -36t-51 -105q0 -63 42 -96.5t109 -33.5z" />
    <glyph glyph-name="b" unicode="b" horiz-adv-x="553" 
d="M304 -12q-108 0 -204 106v-94h-10v705h10v-299q96 106 204 106q82 0 128 -51t46 -135v-152q0 -84 -46 -135t-128 -51zM304 -2q77 0 120.5 48t43.5 128v152q0 80 -43.5 128t-120.5 48q-103 0 -204 -110v-284q101 -110 204 -110z" />
    <glyph glyph-name="c" unicode="c" horiz-adv-x="518" 
d="M261 -12q-91 0 -142.5 51t-51.5 135v152q0 84 51.5 135t142.5 51q89 0 141.5 -46.5t52.5 -120.5v-4h-10v4q0 70 -49.5 113.5t-134.5 43.5q-86 0 -135 -48.5t-49 -127.5v-152q0 -79 49 -127.5t135 -48.5q85 0 134.5 44t49.5 115v5h10v-5q0 -75 -52.5 -122t-141.5 -47z" />
    <glyph glyph-name="d" unicode="d" horiz-adv-x="553" 
d="M249 -12q-82 0 -128 51t-46 135v152q0 84 46 135t128 51q108 0 204 -106v299h10v-705h-10v94q-96 -106 -204 -106zM249 -2q103 0 204 110v284q-101 110 -204 110q-77 0 -120.5 -48t-43.5 -128v-152q0 -80 43.5 -128t120.5 -48z" />
    <glyph glyph-name="e" unicode="e" 
d="M261 -12q-91 0 -142.5 51t-51.5 135v152q0 84 51.5 135t142.5 51q93 0 143.5 -50.5t50.5 -135.5v-76h-378v-76q0 -79 49 -127.5t135 -48.5q80 0 126 40t53 108h10q-6 -73 -55 -115.5t-134 -42.5zM77 326v-66h368v66q0 80 -48 128t-136 48q-86 0 -135 -48.5t-49 -127.5z
" />
    <glyph glyph-name="f" unicode="f" horiz-adv-x="309" 
d="M129 0h-10v490h-94v10h94v73q0 66 33 100t95 34l32 -2v-10q-22 2 -32 2q-57 0 -87.5 -32t-30.5 -92v-73h150v-10h-150v-490z" />
    <glyph glyph-name="g" unicode="g" horiz-adv-x="553" 
d="M275 -172q-84 0 -135 42t-54 116h10q3 -67 52 -107.5t127 -40.5q84 0 131 47.5t47 137.5v117q-96 -106 -204 -106q-82 0 -128 51t-46 135v106q0 84 46 135t128 51q108 0 204 -106v94h10v-477q0 -95 -49.5 -145t-138.5 -50zM249 44q103 0 204 110v238q-101 110 -204 110
q-77 0 -120.5 -48t-43.5 -128v-106q0 -80 43.5 -128t120.5 -48z" />
    <glyph glyph-name="h" unicode="h" horiz-adv-x="559" 
d="M100 0h-10v705h10v-299q94 106 204 106q76 0 123 -48.5t47 -135.5v-328h-10v324q0 85 -44 131.5t-116 46.5q-111 0 -204 -111v-391z" />
    <glyph glyph-name="i" unicode="i" horiz-adv-x="190" 
d="M100 0h-10v500h10v-500zM100 595h-10v110h10v-110z" />
    <glyph glyph-name="j" unicode="j" horiz-adv-x="190" 
d="M90 -53v553h10v-553q0 -58 -29.5 -88.5t-84.5 -30.5l-28 2v10q18 -2 28 -2q49 0 76.5 28t27.5 81zM100 595h-10v110h10v-110z" />
    <glyph glyph-name="k" unicode="k" horiz-adv-x="491" 
d="M100 0h-10v705h10v-445h132l190 240h9v-5l-189 -239l199 -251v-5h-9l-197 250h-135v-250z" />
    <glyph glyph-name="l" unicode="l" horiz-adv-x="190" 
d="M100 0h-10v705h10v-705z" />
    <glyph glyph-name="m" unicode="m" horiz-adv-x="887" 
d="M100 0h-10v500h10v-94q90 106 191 106q55 0 95.5 -30t55.5 -86q95 116 200 116q75 0 117.5 -47.5t42.5 -136.5v-328h-10v324q0 87 -39.5 132.5t-110.5 45.5q-103 0 -197 -118q6 -25 6 -56v-328h-10v324q0 86 -41 132t-109 46q-101 0 -191 -111v-391z" />
    <glyph glyph-name="n" unicode="n" horiz-adv-x="559" 
d="M100 0h-10v500h10v-94q94 106 204 106q76 0 123 -48.5t47 -135.5v-328h-10v324q0 85 -44 131.5t-116 46.5q-111 0 -204 -111v-391z" />
    <glyph glyph-name="o" unicode="o" 
d="M261 -2q88 0 136 48t48 128v152q0 80 -48 128t-136 48q-86 0 -135 -48.5t-49 -127.5v-152q0 -79 49 -127.5t135 -48.5zM261 -12q-91 0 -142.5 51t-51.5 135v152q0 84 51.5 135t142.5 51q93 0 143.5 -50.5t50.5 -135.5v-152q0 -85 -50.5 -135.5t-143.5 -50.5z" />
    <glyph glyph-name="p" unicode="p" horiz-adv-x="553" 
d="M100 -160h-10v660h10v-94q96 106 204 106q82 0 128 -51t46 -135v-152q0 -84 -46 -135t-128 -51q-108 0 -204 106v-254zM304 -2q77 0 120.5 48t43.5 128v152q0 80 -43.5 128t-120.5 48q-103 0 -204 -110v-284q101 -110 204 -110z" />
    <glyph glyph-name="q" unicode="q" horiz-adv-x="553" 
d="M463 -160h-10v254q-96 -106 -204 -106q-82 0 -128 51t-46 135v152q0 84 46 135t128 51q108 0 204 -106v94h10v-660zM249 -2q103 0 204 110v284q-101 110 -204 110q-77 0 -120.5 -48t-43.5 -128v-152q0 -80 43.5 -128t120.5 -48z" />
    <glyph glyph-name="r" unicode="r" horiz-adv-x="362" 
d="M100 0h-10v500h10v-94q98 104 217 104h5v-10h-5q-119 0 -217 -108v-392z" />
    <glyph glyph-name="s" unicode="s" horiz-adv-x="523" 
d="M269 -12q-55 -2 -100.5 15t-76.5 58.5t-32 101.5h10q0 -59 31 -97q56 -68 168 -68q80 0 127 34.5t47 90.5q0 47 -30 72t-104 44l-102 27q-69 18 -96.5 44.5t-27.5 76.5q0 55 47.5 90t129.5 35q87 0 138 -43.5t51 -126.5h-10q0 78 -48 119t-131 41q-78 0 -122.5 -31.5
t-44.5 -83.5q0 -45 25.5 -69.5t89.5 -41.5l102 -27q81 -22 112 -48t31 -78q0 -61 -48.5 -98t-135.5 -37z" />
    <glyph glyph-name="t" unicode="t" horiz-adv-x="339" 
d="M284 0h-35q-61 0 -93 35t-32 87v368h-94v10h94v104h10v-104h150v-10h-150v-368q0 -53 30 -82.5t84 -29.5h36v-10z" />
    <glyph glyph-name="u" unicode="u" horiz-adv-x="559" 
d="M255 -12q-76 0 -123 48.5t-47 135.5v328h10v-324q0 -85 44 -131.5t116 -46.5q111 0 204 111v391h10v-500h-10v94q-94 -106 -204 -106z" />
    <glyph glyph-name="v" unicode="v" horiz-adv-x="490" 
d="M251 0h-12l-209 495v5h9l206 -489l206 489h9v-5z" />
    <glyph glyph-name="w" unicode="w" horiz-adv-x="686" 
d="M199 0h-13l-131 495v5h9l129 -489l143 384h14l143 -384l129 489h9v-5l-131 -495h-13l-144 385z" />
    <glyph glyph-name="x" unicode="x" horiz-adv-x="500" 
d="M59 0h-9v5l194 245l-193 245v5h9l190 -241l190 241h9v-5l-193 -245l194 -245v-5h-9l-191 242z" />
    <glyph glyph-name="y" unicode="y" horiz-adv-x="490" 
d="M184 -160h-9v5l65 155l-210 495v5h9l206 -489l206 489h9v-5z" />
    <glyph glyph-name="z" unicode="z" horiz-adv-x="501" 
d="M436 0h-376v10l362 480h-344v10h357v-10l-362 -480h363v-10z" />
    <glyph glyph-name="braceleft" unicode="{" horiz-adv-x="300" 
d="M300 -150v-10q-78 0 -122 40t-44 112v220q0 79 -65 79h-29v10h29q65 0 65 79v208q0 72 44 112t122 40v-10q-73 0 -114.5 -37.5t-41.5 -105.5v-207q0 -74 -48 -84q48 -10 48 -84v-219q0 -68 41.5 -105.5t114.5 -37.5z" />
    <glyph glyph-name="bar" unicode="|" horiz-adv-x="210" 
d="M110 -100h-10v840h10v-840z" />
    <glyph glyph-name="braceright" unicode="}" horiz-adv-x="300" 
d="M0 -160v10q73 0 114.5 37.5t41.5 105.5v219q0 74 48 84q-48 10 -48 84v207q0 68 -41.5 105.5t-114.5 37.5v10q78 0 122 -40t44 -112v-208q0 -79 65 -79h29v-10h-29q-65 0 -65 -79v-220q0 -72 -44 -112t-122 -40z" />
    <glyph glyph-name="asciitilde" unicode="~" horiz-adv-x="451" 
d="M58 276l-8 6q50 77 99 77q27 0 69 -30l22 -16q36 -27 63 -27q44 0 90 73l8 -6q-47 -77 -99 -77q-27 0 -69 30l-22 16q-37 27 -63 27q-44 0 -90 -73z" />
    <glyph glyph-name="nbspace" unicode="&#xa0;" horiz-adv-x="271" 
 />
    <glyph glyph-name="exclamdown" unicode="&#xa1;" horiz-adv-x="170" 
d="M90 -160h-10v440h10v-440zM90 377h-10v123h10v-123z" />
    <glyph glyph-name="cent" unicode="&#xa2;" horiz-adv-x="518" 
d="M265 0h-10v82q-89 1 -138.5 52t-49.5 134v152q0 83 49.5 133.5t138.5 52.5v94h10v-94q87 -1 138.5 -47.5t51.5 -119.5v-4h-10v4q0 69 -48.5 112.5t-131.5 44.5v-504q83 1 131.5 45t48.5 114v5h10v-5q0 -74 -51.5 -121t-138.5 -48v-82zM255 92v504q-83 -2 -130.5 -50
t-47.5 -126v-152q0 -79 47.5 -127t130.5 -49z" />
    <glyph glyph-name="sterling" unicode="&#xa3;" horiz-adv-x="571" 
d="M521 0h-471v10h83v338h-83v10h83v171q0 84 51.5 135t142.5 51q89 0 141.5 -46.5t52.5 -120.5v-45h-10v45q0 70 -49.5 113.5t-134.5 43.5q-86 0 -135 -48t-49 -128v-171h219v-10h-219v-338h378v-10z" />
    <glyph glyph-name="yen" unicode="&#xa5;" horiz-adv-x="596" 
d="M303 0h-10v127h-220v10h220v141h-220v10h213l-266 407v5h9l269 -411l269 411h9v-5l-267 -407h214v-10h-220v-141h220v-10h-220v-127z" />
    <glyph glyph-name="brokenbar" unicode="&#xa6;" horiz-adv-x="210" 
d="M110 -100h-10v334h10v-334zM110 426h-10v314h10v-314z" />
    <glyph glyph-name="section" unicode="&#xa7;" horiz-adv-x="547" 
d="M292 -172q-103 0 -167 51t-64 149h10q0 -92 60 -141t161 -49q83 0 132.5 41t49.5 103q0 38 -25.5 65t-79.5 48l-107 41q-105 41 -145 71q-41 32 -41 93q0 78 60 153q-55 30 -55 100q0 67 53 110.5t141 43.5q90 0 149 -50q60 -49 60 -145h-10q0 92 -57 138q-56 47 -142 47
q-83 0 -133.5 -41t-50.5 -103q0 -43 21 -67t66 -41l125 -50q60 -24 79 -34q28 -12 55 -31q51 -33 51 -92q0 -66 -76 -151q36 -20 54 -44t18 -61q0 -67 -52 -110.5t-140 -43.5zM263 147l140 -54q75 80 75 145q0 51 -48 86q-29 18 -51 28q-18 9 -27 12l-31 13l-30 12l-146 59
q-59 -74 -59 -149q0 -73 90 -116q20 -11 87 -36z" />
    <glyph glyph-name="dieresis" unicode="&#xa8;" horiz-adv-x="258" 
d="M50 595h-10v110h10v-110zM218 595h-10v110h10v-110z" />
    <glyph glyph-name="copyright" unicode="&#xa9;" horiz-adv-x="880" 
d="M436 140q-80 0 -125 44.5t-45 118.5v95q0 74 45 118.5t125 44.5q79 0 124.5 -41t45.5 -107v-5h-10v5q0 61 -43 99.5t-117 38.5q-75 0 -117.5 -42t-42.5 -111v-95q0 -70 42.5 -111.5t117.5 -41.5q74 0 117 38.5t43 99.5v5h10v-5q0 -66 -45.5 -107t-124.5 -41zM696 90
q-104 -105 -256 -105t-256 105q-104 107 -104 260t104 259q103 106 256 106t256 -106q104 -106 104 -259t-104 -260zM191 97q101 -102 249 -102t249 102q101 104 101 253t-101 252q-100 103 -249 103t-249 -103q-101 -103 -101 -252t101 -253z" />
    <glyph glyph-name="ordfeminine" unicode="&#xaa;" horiz-adv-x="427" 
d="M176 353q-54 0 -85 23.5t-31 70.5q0 101 157 101h120v53q0 42 -32.5 68t-90.5 26q-56 0 -89 -26t-33 -68h-10q0 47 35 75.5t97 28.5q64 0 98.5 -28.5t34.5 -75.5v-243h-10v58q-81 -63 -161 -63zM178 363q74 0 159 64v111h-120q-70 0 -108.5 -23.5t-38.5 -67.5
q0 -41 29.5 -62.5t78.5 -21.5z" />
    <glyph glyph-name="guillemotleft" unicode="&#xab;" horiz-adv-x="527" 
d="M263 62h-10l-193 202l194 203h10v-5l-189 -198l188 -197v-5zM459 62h-10l-193 202l194 203h10v-5l-189 -198l188 -197v-5z" />
    <glyph glyph-name="logicalnot" unicode="&#xac;" horiz-adv-x="498" 
d="M448 208h-10v209h-388v10h398v-219z" />
    <glyph glyph-name="uni00AD" unicode="&#xad;" horiz-adv-x="430" 
d="M360 308h-290v10h290v-10z" />
    <glyph glyph-name="registered" unicode="&#xae;" horiz-adv-x="394" 
d="M140 456h-10v176h85q25 0 40 -14t15 -38q0 -47 -49 -52l49 -66v-6h-9l-54 72h-67v-72zM140 622v-84h73q29 -3 41.5 19.5t0 45t-41.5 19.5h-73zM315 420q-48 -49 -118 -49t-119 49q-48 50 -48 123t48 122q50 50 119 50q70 0 118 -50q49 -49 49 -122q0 -74 -49 -123z
M85 427q46 -46 112 -46t111 46q46 46 46 116q0 69 -46 115q-45 47 -111 47q-65 0 -112 -47q-45 -46 -45 -115t45 -116z" />
    <glyph glyph-name="overscore" unicode="&#xaf;" horiz-adv-x="453" 
d="M343 645h-233v10h233v-10z" />
    <glyph glyph-name="degree" unicode="&#xb0;" horiz-adv-x="379" 
d="M189 395q62 0 96 34t34 89v63q0 56 -34 90t-96 34q-60 0 -94.5 -34t-34.5 -90v-63q0 -56 34.5 -89.5t94.5 -33.5zM189 385q-65 0 -102 36.5t-37 97.5v62q0 61 37 97.5t102 36.5q67 0 103.5 -36.5t36.5 -97.5v-62q0 -61 -36.5 -97.5t-103.5 -36.5z" />
    <glyph glyph-name="plusminus" unicode="&#xb1;" horiz-adv-x="498" 
d="M254 124h-10v194h-194v10h194v194h10v-194h194v-10h-194v-194zM448 38h-398v10h398v-10z" />
    <glyph glyph-name="twosuperior" unicode="&#xb2;" horiz-adv-x="310" 
d="M270 358h-226v10l96 74l16 13l18 14q29 22 33 29q1 2 13 15t14 18q20 42 17 63q0 45 -27.5 73t-69.5 28q-46 0 -75 -31t-29 -85h-10q0 59 31.5 92.5t82.5 33.5q48 0 77.5 -30t29.5 -81q0 -33 -30 -84q-7 -10 -42 -41q-7 -7 -23 -19l-21 -16l-85 -66h210v-10z" />
    <glyph glyph-name="threesuperior" unicode="&#xb3;" horiz-adv-x="324" 
d="M163 353q-54 0 -88 26t-35 70h10q1 -40 31.5 -63t81.5 -23q50 0 77.5 23.5t27.5 65.5q0 35 -25 57.5t-67 22.5h-40v10h42q37 0 58 20.5t21 52.5q0 34 -27.5 57t-72.5 23t-73 -25t-28 -67h-10q0 47 30 74.5t81 27.5q50 0 80 -25t30 -64q0 -62 -60 -79q32 -7 51.5 -29
t19.5 -56q0 -47 -30 -73t-85 -26z" />
    <glyph glyph-name="acute" unicode="&#xb4;" horiz-adv-x="276" 
d="M83 590h-13l127 140h9v-5z" />
    <glyph glyph-name="mu" unicode="&#xb5;" horiz-adv-x="564" 
d="M100 -160h-10v660h10v-333q0 -81 44.5 -125t115.5 -44q111 0 204 111v391h10v-500h-10v94q-94 -106 -204 -106q-58 0 -100.5 29.5t-59.5 83.5v-261z" />
    <glyph glyph-name="paragraph" unicode="&#xb6;" horiz-adv-x="545" 
d="M235 -87h-10v455q-82 0 -128.5 42.5t-46.5 119.5v8q0 77 46.5 119.5t128.5 42.5h220v-787h-10v777h-200v-777z" />
    <glyph glyph-name="middot" unicode="&#xb7;" horiz-adv-x="170" 
d="M90 261h-10v123h10v-123z" />
    <glyph glyph-name="cedilla" unicode="&#xb8;" horiz-adv-x="278" 
d="M85 -160h-9v5l122 155h13z" />
    <glyph glyph-name="onesuperior" unicode="&#xb9;" horiz-adv-x="210" 
d="M120 358h-10v332h-94v5l4 5h100v-342z" />
    <glyph glyph-name="ordmasculine" unicode="&#xba;" horiz-adv-x="397" 
d="M198 363q66 0 102.5 36.5t36.5 95.5v67q0 62 -35.5 97.5t-103.5 35.5q-65 0 -101.5 -36t-36.5 -97v-67q0 -60 37 -96t101 -36zM198 353q-70 0 -109 39.5t-39 103.5v66q0 64 39 103.5t109 39.5q71 0 110 -39t39 -104v-66q0 -65 -39 -104t-110 -39z" />
    <glyph glyph-name="guillemotright" unicode="&#xbb;" horiz-adv-x="527" 
d="M77 467l194 -203l-193 -202h-10v5l188 197l-189 198v5h10zM273 467l194 -203l-193 -202h-10v5l188 197l-189 198v5h10z" />
    <glyph glyph-name="onequarter" unicode="&#xbc;" horiz-adv-x="627" 
d="M310 97l134 245h10v-5l-131 -240h203v102h10v-102h71v-10h-71v-87h-10v87h-216v10zM80 0h-9v5l385 695h9v-5zM120 358h-10v332h-94v5l4 5h100v-342z" />
    <glyph glyph-name="onehalf" unicode="&#xbd;" horiz-adv-x="641" 
d="M601 0h-226v10l96 74l16 13l18 14q29 22 33 29q1 2 13 15t14 18q20 42 17 63q0 45 -27.5 73t-69.5 28q-46 0 -75 -31t-29 -85h-10q0 59 31.5 92.5t82.5 33.5q48 0 77.5 -30t29.5 -81q0 -33 -30 -84q-7 -10 -42 -41q-7 -7 -23 -19l-21 -16l-85 -66h210v-10zM80 0h-9v5
l385 695h9v-5zM120 358h-10v332h-94v5l4 5h100v-342z" />
    <glyph glyph-name="threequarters" unicode="&#xbe;" horiz-adv-x="727" 
d="M163 353q-54 0 -88 26t-35 70h10q1 -40 31.5 -63t81.5 -23q50 0 77.5 23.5t27.5 65.5q0 35 -25 57.5t-67 22.5h-40v10h42q37 0 58 20.5t21 52.5q0 34 -27.5 57t-72.5 23t-73 -25t-28 -67h-10q0 47 30 74.5t81 27.5q50 0 80 -25t30 -64q0 -62 -60 -79q32 -7 51.5 -29
t19.5 -56q0 -47 -30 -73t-85 -26zM410 96l134 245h10v-5l-131 -240h203v102h10v-102h71v-10h-71v-87h-10v87h-216v10zM180 0h-9v5l385 695h9v-5z" />
    <glyph glyph-name="questiondown" unicode="&#xbf;" horiz-adv-x="497" 
d="M247 -172q-93 0 -145 46.5t-52 120.5q0 56 34 101q13 18 34 33q4 4 19 14q13 10 17 12l18 11l14 8l58 35v71h10v-76l-61 -37l-39 -25q-17 -11 -35 -25q-20 -16 -32 -33q-27 -42 -27 -89q0 -70 49 -113.5t139 -43.5q89 0 144 54t55 148h10q0 -98 -58 -155t-152 -57z
M254 377h-10v123h10v-123z" />
    <glyph glyph-name="Agrave" unicode="&#xc0;" horiz-adv-x="650" 
d="M39 0h-9v5l289 695h12l289 -695v-5h-9l-91 218h-391zM325 689l-192 -461h383zM338 762h-14l-132 145v6h10z" />
    <glyph glyph-name="Aacute" unicode="&#xc1;" horiz-adv-x="650" 
d="M39 0h-9v5l289 695h12l289 -695v-5h-9l-91 218h-391zM325 689l-192 -461h383zM338 762h-14l136 151h10v-6z" />
    <glyph glyph-name="Acircumflex" unicode="&#xc2;" horiz-adv-x="650" 
d="M39 0h-9v5l289 695h12l289 -695v-5h-9l-91 218h-391zM325 689l-192 -461h383zM197 762h-10v6l132 145h13l132 -145v-6h-10l-129 142z" />
    <glyph glyph-name="Atilde" unicode="&#xc3;" horiz-adv-x="650" 
d="M39 0h-9v5l289 695h12l289 -695v-5h-9l-91 218h-391zM325 689l-192 -461h383zM153 794l-8 6q37 47 57.5 63t44.5 16q30 0 70 -31l23 -16q38 -28 65 -28q21 0 38 14q18 16 54 61l8 -6q-37 -47 -57 -63t-44 -16q-31 0 -71 31l-23 16q-37 28 -64 28q-22 0 -40 -15t-53 -60z
" />
    <glyph glyph-name="Adieresis" unicode="&#xc4;" horiz-adv-x="650" 
d="M39 0h-9v5l289 695h12l289 -695v-5h-9l-91 218h-391zM325 689l-192 -461h383zM241 768h-11v118h11v-118zM421 768h-11v118h11v-118z" />
    <glyph glyph-name="Aring" unicode="&#xc5;" horiz-adv-x="650" 
d="M39 0h-9v5l289 695h12l289 -695v-5h-9l-91 218h-391zM325 689l-192 -461h383zM419 847q0 36 -27.5 61.5t-66.5 25.5q-37 0 -66 -26q-28 -25 -28 -61t27 -62q19 -19 48.5 -23t54.5 5t42.5 31t15.5 49zM220 847q0 40 31 68.5t74 28.5t74 -28.5t31 -68.5q0 -41 -31 -69.5
t-74 -28.5t-74 28.5t-31 69.5z" />
    <glyph glyph-name="AE" unicode="&#xc6;" horiz-adv-x="924" 
d="M29 0h-9v5l436 695h408v-10h-398v-332h350v-10h-350v-338h398v-10h-408v218h-290zM456 679l-284 -451h284v451z" />
    <glyph glyph-name="Ccedilla" unicode="&#xc7;" horiz-adv-x="656" 
d="M229 -160h-10v6l110 139q-116 3 -182.5 70t-66.5 182v226q0 118 70 185t189 67q105 0 175 -61q72 -60 72 -166v-10h-10v10q0 100 -69 159q-67 58 -168 58q-115 0 -182 -64.5t-67 -177.5v-226q0 -113 67 -177.5t182 -64.5q101 0 168 58q69 59 69 159v10h10v-10
q0 -105 -71 -165q-71 -61 -172 -62z" />
    <glyph glyph-name="Egrave" unicode="&#xc8;" horiz-adv-x="568" 
d="M508 0h-408v700h408v-10h-398v-332h350v-10h-350v-338h398v-10zM369 762h-14l-132 145v6h10z" />
    <glyph glyph-name="Eacute" unicode="&#xc9;" horiz-adv-x="568" 
d="M508 0h-408v700h408v-10h-398v-332h350v-10h-350v-338h398v-10zM288 762h-14l136 151h10v-6z" />
    <glyph glyph-name="Ecircumflex" unicode="&#xca;" horiz-adv-x="568" 
d="M508 0h-408v700h408v-10h-398v-332h350v-10h-350v-338h398v-10zM181 762h-10v6l132 145h13l132 -145v-6h-10l-129 142z" />
    <glyph glyph-name="Edieresis" unicode="&#xcb;" horiz-adv-x="568" 
d="M508 0h-408v700h408v-10h-398v-332h350v-10h-350v-338h398v-10zM215 768h-11v118h11v-118zM395 768h-11v118h11v-118z" />
    <glyph glyph-name="Igrave" unicode="&#xcc;" horiz-adv-x="210" 
d="M110 0h-10v700h10v-700zM115 762h-14l-132 145v6h10z" />
    <glyph glyph-name="Iacute" unicode="&#xcd;" horiz-adv-x="210" 
d="M110 0h-10v700h10v-700zM112 762h-14l136 151h10v-6z" />
    <glyph glyph-name="Icircumflex" unicode="&#xce;" horiz-adv-x="210" 
d="M110 0h-10v700h10v-700zM-23 762h-10v6l132 145h13l132 -145v-6h-10l-129 142z" />
    <glyph glyph-name="Idieresis" unicode="&#xcf;" horiz-adv-x="210" 
d="M110 0h-10v700h10v-700zM20 768h-11v118h11v-118zM201 768h-11v118h11v-118z" />
    <glyph glyph-name="Eth" unicode="&#xd0;" horiz-adv-x="685" 
d="M130 346v-336h221q114 0 179 63.5t65 174.5v204q0 111 -65 174.5t-179 63.5h-221v-334h249v-10h-249zM351 0h-231v346h-100v10h100v344h231q118 0 186 -66t68 -182v-204q0 -116 -68 -182t-186 -66z" />
    <glyph glyph-name="Ntilde" unicode="&#xd1;" horiz-adv-x="680" 
d="M110 0h-10v700h10l460 -682v682h10v-700h-9l-461 681v-681zM173 794l-8 6q37 47 57.5 63t44.5 16q30 0 70 -31l23 -16q38 -28 65 -28q21 0 38 14q18 16 54 61l8 -6q-37 -47 -57 -63t-44 -16q-31 0 -71 31l-23 16q-37 28 -64 28q-22 0 -40 -15t-53 -60z" />
    <glyph glyph-name="Ograve" unicode="&#xd2;" horiz-adv-x="668" 
d="M578 233v234q0 111 -65 174.5t-179 63.5t-179 -63.5t-65 -174.5v-234q0 -111 65 -174.5t179 -63.5t179 63.5t65 174.5zM80 233v234q0 116 68 182t186 66t186 -66t68 -182v-234q0 -116 -68 -182t-186 -66t-186 66t-68 182zM376 762h-14l-132 145v6h10z" />
    <glyph glyph-name="Oacute" unicode="&#xd3;" horiz-adv-x="668" 
d="M578 233v234q0 111 -65 174.5t-179 63.5t-179 -63.5t-65 -174.5v-234q0 -111 65 -174.5t179 -63.5t179 63.5t65 174.5zM80 233v234q0 116 68 182t186 66t186 -66t68 -182v-234q0 -116 -68 -182t-186 -66t-186 66t-68 182zM341 762h-14l136 151h10v-6z" />
    <glyph glyph-name="Ocircumflex" unicode="&#xd4;" horiz-adv-x="668" 
d="M578 233v234q0 111 -65 174.5t-179 63.5t-179 -63.5t-65 -174.5v-234q0 -111 65 -174.5t179 -63.5t179 63.5t65 174.5zM80 233v234q0 116 68 182t186 66t186 -66t68 -182v-234q0 -116 -68 -182t-186 -66t-186 66t-68 182zM219 762h-10v6l132 145h13l132 -145v-6h-10
l-129 142z" />
    <glyph glyph-name="Otilde" unicode="&#xd5;" horiz-adv-x="668" 
d="M578 233v234q0 111 -65 174.5t-179 63.5t-179 -63.5t-65 -174.5v-234q0 -111 65 -174.5t179 -63.5t179 63.5t65 174.5zM80 233v234q0 116 68 182t186 66t186 -66t68 -182v-234q0 -116 -68 -182t-186 -66t-186 66t-68 182zM165 794l-8 6q37 47 57.5 63t44.5 16
q30 0 70 -31l23 -16q38 -28 65 -28q21 0 38 14q18 16 54 61l8 -6q-37 -47 -57 -63t-44 -16q-31 0 -71 31l-23 16q-37 28 -64 28q-22 0 -40 -15t-53 -60z" />
    <glyph glyph-name="Odieresis" unicode="&#xd6;" horiz-adv-x="668" 
d="M578 233v234q0 111 -65 174.5t-179 63.5t-179 -63.5t-65 -174.5v-234q0 -111 65 -174.5t179 -63.5t179 63.5t65 174.5zM80 233v234q0 116 68 182t186 66t186 -66t68 -182v-234q0 -116 -68 -182t-186 -66t-186 66t-68 182zM251 768h-11v118h11v-118zM431 768h-11v118h11
v-118z" />
    <glyph glyph-name="multiply" unicode="&#xd7;" horiz-adv-x="422" 
d="M211 306l-154 -154l-7 7l154 154l-154 154l7 7l154 -154l154 154l7 -7l-154 -154l154 -154l-7 -7z" />
    <glyph glyph-name="Oslash" unicode="&#xd8;" horiz-adv-x="668" 
d="M334 -15q-76 0 -136 30l-48 -115h-9v5l48 115q-109 63 -109 213v234q0 116 68 182t186 66q75 0 135 -30l49 115h9v-5l-49 -115q110 -65 110 -213v-234q0 -116 -68 -182t-186 -66zM334 -5q114 0 179 63.5t65 174.5v234q0 143 -104 203l-272 -646q56 -29 132 -29zM90 467
v-234q0 -143 103 -204l272 646q-54 30 -131 30q-114 0 -179 -63.5t-65 -174.5z" />
    <glyph glyph-name="Ugrave" unicode="&#xd9;" horiz-adv-x="660" 
d="M90 237v463h10v-463q0 -113 62 -177.5t168 -64.5t168 64.5t62 177.5v463h10v-463q0 -117 -65 -185q-64 -67 -175 -67t-175 67q-65 68 -65 185zM387 762h-14l-132 145v6h10z" />
    <glyph glyph-name="Uacute" unicode="&#xda;" horiz-adv-x="660" 
d="M90 237v463h10v-463q0 -113 62 -177.5t168 -64.5t168 64.5t62 177.5v463h10v-463q0 -117 -65 -185q-64 -67 -175 -67t-175 67q-65 68 -65 185zM338 762h-14l136 151h10v-6z" />
    <glyph glyph-name="Ucircumflex" unicode="&#xdb;" horiz-adv-x="660" 
d="M90 237v463h10v-463q0 -113 62 -177.5t168 -64.5t168 64.5t62 177.5v463h10v-463q0 -117 -65 -185q-64 -67 -175 -67t-175 67q-65 68 -65 185zM202 762h-10v6l132 145h13l132 -145v-6h-10l-129 142z" />
    <glyph glyph-name="Udieresis" unicode="&#xdc;" horiz-adv-x="660" 
d="M90 237v463h10v-463q0 -113 62 -177.5t168 -64.5t168 64.5t62 177.5v463h10v-463q0 -117 -65 -185q-64 -67 -175 -67t-175 67q-65 68 -65 185zM246 768h-11v118h11v-118zM426 768h-11v118h11v-118z" />
    <glyph glyph-name="Yacute" unicode="&#xdd;" horiz-adv-x="596" 
d="M303 0h-10v278l-273 417v5h9l269 -411l269 411h9v-5l-273 -417v-278zM297 762h-14l136 151h10v-6z" />
    <glyph glyph-name="Thorn" unicode="&#xde;" horiz-adv-x="608" 
d="M110 0h-10v700h10v-148h260q86 0 134.5 -53.5t48.5 -146.5t-48.5 -146.5t-134.5 -53.5h-260v-152zM110 542v-380h260q81 0 127 51t46 139t-46 139t-127 51h-260z" />
    <glyph glyph-name="germandbls" unicode="&#xdf;" horiz-adv-x="573" 
d="M100 0h-10v470q0 113 53.5 175t151.5 62q87 0 136 -49q50 -50 50 -122q0 -62 -32.5 -100.5t-90.5 -50.5q64 -10 109 -60q46 -49 46 -125q0 -98 -55 -149t-159 -51l-75 7v10q36 -7 75 -7q204 0 204 190q0 80 -54.5 130t-144.5 50h-67v10h67q82 0 124.5 38.5t42.5 107.5
q0 67 -47 114t-129 47q-93 0 -144 -59t-51 -168v-470z" />
    <glyph glyph-name="agrave" unicode="&#xe0;" 
d="M216 -12q-72 0 -116.5 36t-44.5 104q0 74 53 112.5t155 38.5h164v79q0 65 -43.5 104.5t-123.5 39.5q-77 0 -121.5 -39.5t-44.5 -104.5h-10q0 70 46.5 112t129.5 42q85 0 131 -41.5t46 -112.5v-358h-10v83q-104 -95 -211 -95zM216 -2q103 0 211 99v172h-164
q-96 0 -147 -36t-51 -105q0 -63 42 -96.5t109 -33.5zM331 590h-13l-123 135v5h9z" />
    <glyph glyph-name="aacute" unicode="&#xe1;" 
d="M216 -12q-72 0 -116.5 36t-44.5 104q0 74 53 112.5t155 38.5h164v79q0 65 -43.5 104.5t-123.5 39.5q-77 0 -121.5 -39.5t-44.5 -104.5h-10q0 70 46.5 112t129.5 42q85 0 131 -41.5t46 -112.5v-358h-10v83q-104 -95 -211 -95zM216 -2q103 0 211 99v172h-164
q-96 0 -147 -36t-51 -105q0 -63 42 -96.5t109 -33.5zM263 590h-13l127 140h9v-5z" />
    <glyph glyph-name="acircumflex" unicode="&#xe2;" 
d="M216 -12q-72 0 -116.5 36t-44.5 104q0 74 53 112.5t155 38.5h164v79q0 65 -43.5 104.5t-123.5 39.5q-77 0 -121.5 -39.5t-44.5 -104.5h-10q0 70 46.5 112t129.5 42q85 0 131 -41.5t46 -112.5v-358h-10v83q-104 -95 -211 -95zM216 -2q103 0 211 99v172h-164
q-96 0 -147 -36t-51 -105q0 -63 42 -96.5t109 -33.5zM159 590h-9v5l123 135h12l123 -135v-5h-9l-120 132z" />
    <glyph glyph-name="atilde" unicode="&#xe3;" 
d="M216 -12q-72 0 -116.5 36t-44.5 104q0 74 53 112.5t155 38.5h164v79q0 65 -43.5 104.5t-123.5 39.5q-77 0 -121.5 -39.5t-44.5 -104.5h-10q0 70 46.5 112t129.5 42q85 0 131 -41.5t46 -112.5v-358h-10v83q-104 -95 -211 -95zM216 -2q103 0 211 99v172h-164
q-96 0 -147 -36t-51 -105q0 -63 42 -96.5t109 -33.5zM107 632l-8 6q38 47 56 61q19 16 43 16q27 0 69 -30l22 -16q36 -27 63 -27q20 0 37 14t53 59l8 -6q-37 -46 -56 -61.5t-43 -15.5q-27 0 -69 30l-22 16q-38 27 -63 27q-21 0 -38 -14q-14 -11 -52 -59z" />
    <glyph glyph-name="adieresis" unicode="&#xe4;" 
d="M216 -12q-72 0 -116.5 36t-44.5 104q0 74 53 112.5t155 38.5h164v79q0 65 -43.5 104.5t-123.5 39.5q-77 0 -121.5 -39.5t-44.5 -104.5h-10q0 70 46.5 112t129.5 42q85 0 131 -41.5t46 -112.5v-358h-10v83q-104 -95 -211 -95zM216 -2q103 0 211 99v172h-164
q-96 0 -147 -36t-51 -105q0 -63 42 -96.5t109 -33.5zM182 595h-10v110h10v-110zM350 595h-10v110h10v-110z" />
    <glyph glyph-name="aring" unicode="&#xe5;" 
d="M216 -12q-72 0 -116.5 36t-44.5 104q0 74 53 112.5t155 38.5h164v79q0 65 -43.5 104.5t-123.5 39.5q-77 0 -121.5 -39.5t-44.5 -104.5h-10q0 70 46.5 112t129.5 42q85 0 131 -41.5t46 -112.5v-358h-10v83q-104 -95 -211 -95zM216 -2q103 0 211 99v172h-164
q-96 0 -147 -36t-51 -105q0 -63 42 -96.5t109 -33.5zM204 610q26 -23 62 -23t62 23q26 24 26 58t-26 57q-26 24 -62 24t-62 -24q-26 -23 -26 -57t26 -58zM335 603q-29 -26 -69 -26t-69 26q-29 27 -29 65t29 64q29 27 69 27t69 -27q29 -26 29 -64t-29 -65z" />
    <glyph glyph-name="ae" unicode="&#xe6;" horiz-adv-x="882" 
d="M55 124q0 72 53 109t155 37h164v88q0 65 -43.5 104.5t-123.5 39.5q-77 0 -121.5 -39.5t-44.5 -104.5h-10q0 70 46.5 112t129.5 42q76 0 121 -34t54 -92q16 59 64 92.5t122 33.5q93 0 143.5 -50.5t50.5 -135.5v-66h-378v-92q0 -78 49 -124t135 -46q80 0 126 40t53 108h10
q-6 -73 -55 -115.5t-134 -42.5q-80 0 -128 37t-61 98q-34 -60 -91 -97.5t-125 -37.5q-72 0 -116.5 35.5t-44.5 100.5zM216 -2q75 0 134 46q61 47 77 97v119h-164q-96 0 -147 -34.5t-51 -101.5q0 -61 42 -93.5t109 -32.5zM437 326v-56h368v56q0 80 -48 128t-136 48
q-86 0 -135 -48.5t-49 -127.5z" />
    <glyph glyph-name="ccedilla" unicode="&#xe7;" horiz-adv-x="518" 
d="M169 -160h-9v5l113 143h-12q-91 0 -142.5 51t-51.5 135v152q0 84 51.5 135t142.5 51q89 0 141.5 -46.5t52.5 -120.5v-4h-10v4q0 70 -49.5 113.5t-134.5 43.5q-86 0 -135 -48.5t-49 -127.5v-152q0 -79 49 -127.5t135 -48.5q85 0 134.5 44t49.5 115v5h10v-5
q0 -69 -45.5 -115t-123.5 -53z" />
    <glyph glyph-name="egrave" unicode="&#xe8;" 
d="M261 -12q-91 0 -142.5 51t-51.5 135v152q0 84 51.5 135t142.5 51q93 0 143.5 -50.5t50.5 -135.5v-76h-378v-76q0 -79 49 -127.5t135 -48.5q80 0 126 40t53 108h10q-6 -73 -55 -115.5t-134 -42.5zM77 326v-66h368v66q0 80 -48 128t-136 48q-86 0 -135 -48.5t-49 -127.5z
M293 590h-13l-123 135v5h9z" />
    <glyph glyph-name="eacute" unicode="&#xe9;" 
d="M261 -12q-91 0 -142.5 51t-51.5 135v152q0 84 51.5 135t142.5 51q93 0 143.5 -50.5t50.5 -135.5v-76h-378v-76q0 -79 49 -127.5t135 -48.5q80 0 126 40t53 108h10q-6 -73 -55 -115.5t-134 -42.5zM77 326v-66h368v66q0 80 -48 128t-136 48q-86 0 -135 -48.5t-49 -127.5z
M235 590h-13l127 140h9v-5z" />
    <glyph glyph-name="ecircumflex" unicode="&#xea;" 
d="M261 -12q-91 0 -142.5 51t-51.5 135v152q0 84 51.5 135t142.5 51q93 0 143.5 -50.5t50.5 -135.5v-76h-378v-76q0 -79 49 -127.5t135 -48.5q80 0 126 40t53 108h10q-6 -73 -55 -115.5t-134 -42.5zM77 326v-66h368v66q0 80 -48 128t-136 48q-86 0 -135 -48.5t-49 -127.5z
M148 590h-9v5l123 135h12l123 -135v-5h-9l-120 132z" />
    <glyph glyph-name="edieresis" unicode="&#xeb;" 
d="M261 -12q-91 0 -142.5 51t-51.5 135v152q0 84 51.5 135t142.5 51q93 0 143.5 -50.5t50.5 -135.5v-76h-378v-76q0 -79 49 -127.5t135 -48.5q80 0 126 40t53 108h10q-6 -73 -55 -115.5t-134 -42.5zM77 326v-66h368v66q0 80 -48 128t-136 48q-86 0 -135 -48.5t-49 -127.5z
M182 595h-10v110h10v-110zM350 595h-10v110h10v-110z" />
    <glyph glyph-name="igrave" unicode="&#xec;" horiz-adv-x="190" 
d="M107 588h-13l-123 135v5h9zM100 0h-10v500h10v-500z" />
    <glyph glyph-name="iacute" unicode="&#xed;" horiz-adv-x="190" 
d="M96 590h-13l127 140h9v-5zM100 0h-10v500h10v-500z" />
    <glyph glyph-name="icircumflex" unicode="&#xee;" horiz-adv-x="190" 
d="M-25 590h-9v5l123 135h12l123 -135v-5h-9l-120 132zM100 0h-10v500h10v-500z" />
    <glyph glyph-name="idieresis" unicode="&#xef;" horiz-adv-x="190" 
d="M16 595h-10v110h10v-110zM184 595h-10v110h10v-110zM100 0h-10v500h10v-500z" />
    <glyph glyph-name="eth" unicode="&#xf0;" horiz-adv-x="548" 
d="M269 -12q-93 0 -143.5 50.5t-50.5 135.5v86q0 84 46 135t128 51q108 0 204 -106q-4 51 -29.5 99.5t-79.5 117.5h-194v10h186l-107 133v5h9l110 -138h115v-10h-107q34 -43 54 -72q53 -76 53 -155v-156q0 -84 -51.5 -135t-142.5 -51zM269 -2q86 0 135 48.5t49 127.5v152
q-101 110 -204 110q-77 0 -120.5 -48t-43.5 -128v-86q0 -80 48 -128t136 -48z" />
    <glyph glyph-name="ntilde" unicode="&#xf1;" horiz-adv-x="559" 
d="M100 0h-10v500h10v-94q94 106 204 106q76 0 123 -48.5t47 -135.5v-328h-10v324q0 85 -44 131.5t-116 46.5q-111 0 -204 -111v-391zM115 632l-8 6q38 47 56 61q19 16 43 16q27 0 69 -30l22 -16q36 -27 63 -27q20 0 37 14t53 59l8 -6q-37 -46 -56 -61.5t-43 -15.5
q-27 0 -69 30l-22 16q-38 27 -63 27q-21 0 -38 -14q-14 -11 -52 -59z" />
    <glyph glyph-name="ograve" unicode="&#xf2;" 
d="M261 -2q88 0 136 48t48 128v152q0 80 -48 128t-136 48q-86 0 -135 -48.5t-49 -127.5v-152q0 -79 49 -127.5t135 -48.5zM261 -12q-91 0 -142.5 51t-51.5 135v152q0 84 51.5 135t142.5 51q93 0 143.5 -50.5t50.5 -135.5v-152q0 -85 -50.5 -135.5t-143.5 -50.5zM287 590h-13
l-123 135v5h9z" />
    <glyph glyph-name="oacute" unicode="&#xf3;" 
d="M261 -2q88 0 136 48t48 128v152q0 80 -48 128t-136 48q-86 0 -135 -48.5t-49 -127.5v-152q0 -79 49 -127.5t135 -48.5zM261 -12q-91 0 -142.5 51t-51.5 135v152q0 84 51.5 135t142.5 51q93 0 143.5 -50.5t50.5 -135.5v-152q0 -85 -50.5 -135.5t-143.5 -50.5zM259 590h-13
l127 140h9v-5z" />
    <glyph glyph-name="ocircumflex" unicode="&#xf4;" 
d="M141 590h-9v5l123 135h12l123 -135v-5h-9l-120 132zM261 -2q88 0 136 48t48 128v152q0 80 -48 128t-136 48q-86 0 -135 -48.5t-49 -127.5v-152q0 -79 49 -127.5t135 -48.5zM261 -12q-91 0 -142.5 51t-51.5 135v152q0 84 51.5 135t142.5 51q93 0 143.5 -50.5t50.5 -135.5
v-152q0 -85 -50.5 -135.5t-143.5 -50.5z" />
    <glyph glyph-name="otilde" unicode="&#xf5;" 
d="M95 632l-8 6q38 47 56 61q19 16 43 16q27 0 69 -30l22 -16q36 -27 63 -27q20 0 37 14t53 59l8 -6q-37 -46 -56 -61.5t-43 -15.5q-27 0 -69 30l-22 16q-38 27 -63 27q-21 0 -38 -14q-14 -11 -52 -59zM261 -2q88 0 136 48t48 128v152q0 80 -48 128t-136 48
q-86 0 -135 -48.5t-49 -127.5v-152q0 -79 49 -127.5t135 -48.5zM261 -12q-91 0 -142.5 51t-51.5 135v152q0 84 51.5 135t142.5 51q93 0 143.5 -50.5t50.5 -135.5v-152q0 -85 -50.5 -135.5t-143.5 -50.5z" />
    <glyph glyph-name="odieresis" unicode="&#xf6;" 
d="M261 -2q88 0 136 48t48 128v152q0 80 -48 128t-136 48q-86 0 -135 -48.5t-49 -127.5v-152q0 -79 49 -127.5t135 -48.5zM261 -12q-91 0 -142.5 51t-51.5 135v152q0 84 51.5 135t142.5 51q93 0 143.5 -50.5t50.5 -135.5v-152q0 -85 -50.5 -135.5t-143.5 -50.5zM180 595h-10
v110h10v-110zM348 595h-10v110h10v-110z" />
    <glyph glyph-name="divide" unicode="&#xf7;" horiz-adv-x="498" 
d="M254 114h-10v107h10v-107zM448 308h-398v10h398v-10zM254 405h-10v107h10v-107z" />
    <glyph glyph-name="oslash" unicode="&#xf8;" 
d="M261 -12q-66 0 -115 29l-70 -143h-9v5l71 143q-71 51 -71 152v152q0 84 51.5 135t142.5 51q61 0 107 -24l78 158h9v-5l-78 -158q78 -50 78 -157v-152q0 -85 -50.5 -135.5t-143.5 -50.5zM261 -2q88 0 136 48t48 128v152q0 101 -73 147l-221 -447q44 -28 110 -28zM77 326
v-152q0 -92 66 -142l220 446q-43 24 -102 24q-86 0 -135 -48.5t-49 -127.5z" />
    <glyph glyph-name="ugrave" unicode="&#xf9;" horiz-adv-x="559" 
d="M255 -12q-76 0 -123 48.5t-47 135.5v328h10v-324q0 -85 44 -131.5t116 -46.5q111 0 204 111v391h10v-500h-10v94q-94 -106 -204 -106zM314 590h-13l-123 135v5h9z" />
    <glyph glyph-name="uacute" unicode="&#xfa;" horiz-adv-x="559" 
d="M255 -12q-76 0 -123 48.5t-47 135.5v328h10v-324q0 -85 44 -131.5t116 -46.5q111 0 204 111v391h10v-500h-10v94q-94 -106 -204 -106zM262 590h-13l127 140h9v-5z" />
    <glyph glyph-name="ucircumflex" unicode="&#xfb;" horiz-adv-x="559" 
d="M159 590h-9v5l123 135h12l123 -135v-5h-9l-120 132zM255 -12q-76 0 -123 48.5t-47 135.5v328h10v-324q0 -85 44 -131.5t116 -46.5q111 0 204 111v391h10v-500h-10v94q-94 -106 -204 -106z" />
    <glyph glyph-name="udieresis" unicode="&#xfc;" horiz-adv-x="559" 
d="M255 -12q-76 0 -123 48.5t-47 135.5v328h10v-324q0 -85 44 -131.5t116 -46.5q111 0 204 111v391h10v-500h-10v94q-94 -106 -204 -106zM197 595h-10v110h10v-110zM365 595h-10v110h10v-110z" />
    <glyph glyph-name="yacute" unicode="&#xfd;" horiz-adv-x="490" 
d="M184 -160h-9v5l65 155l-210 495v5h9l206 -489l206 489h9v-5zM228 590h-13l127 140h9v-5z" />
    <glyph glyph-name="thorn" unicode="&#xfe;" horiz-adv-x="553" 
d="M100 -160h-10v865h10v-299q96 106 204 106q82 0 128 -51t46 -135v-152q0 -84 -46 -135t-128 -51q-108 0 -204 106v-254zM304 -2q77 0 120.5 48t43.5 128v152q0 80 -43.5 128t-120.5 48q-103 0 -204 -110v-284q101 -110 204 -110z" />
    <glyph glyph-name="ydieresis" unicode="&#xff;" horiz-adv-x="490" 
d="M184 -160h-9v5l65 155l-210 495v5h9l206 -489l206 489h9v-5zM163 595h-10v110h10v-110zM331 595h-10v110h10v-110z" />
    <glyph glyph-name="Amacron" unicode="&#x100;" horiz-adv-x="650" 
d="M39 0h-9v5l289 695h12l289 -695v-5h-9l-91 218h-391zM325 689l-192 -461h383zM450 822h-250v11h250v-11z" />
    <glyph glyph-name="amacron" unicode="&#x101;" 
d="M216 -12q-72 0 -116.5 36t-44.5 104q0 74 53 112.5t155 38.5h164v79q0 65 -43.5 104.5t-123.5 39.5q-77 0 -121.5 -39.5t-44.5 -104.5h-10q0 70 46.5 112t129.5 42q85 0 131 -41.5t46 -112.5v-358h-10v83q-104 -95 -211 -95zM216 -2q103 0 211 99v172h-164
q-96 0 -147 -36t-51 -105q0 -63 42 -96.5t109 -33.5zM380 645h-233v10h233v-10z" />
    <glyph glyph-name="Aogonek" unicode="&#x104;" horiz-adv-x="650" 
d="M689 -160h-50q-44 0 -68.5 18.5t-24.5 52.5q0 48 63 93l-89 214h-391l-90 -218h-9v5l289 695h12l289 -695v-5q-64 -46 -64 -89q0 -61 86 -61h47v-10zM325 689l-192 -461h383z" />
    <glyph glyph-name="aogonek" unicode="&#x105;" 
d="M506 -160h-50q-44 0 -68.5 18.5t-24.5 52.5q0 48 64 94v78q-104 -95 -211 -95q-72 0 -116.5 36t-44.5 104q0 74 53 112.5t155 38.5h164v79q0 65 -43.5 104.5t-123.5 39.5q-77 0 -121.5 -39.5t-44.5 -104.5h-10q0 70 46.5 112t129.5 42q85 0 131 -41.5t46 -112.5v-358
q-64 -46 -64 -89q0 -61 86 -61h47v-10zM216 -2q103 0 211 99v172h-164q-96 0 -147 -36t-51 -105q0 -63 42 -96.5t109 -33.5z" />
    <glyph glyph-name="Cacute" unicode="&#x106;" horiz-adv-x="656" 
d="M339 -15q-119 0 -189 67t-70 185v226q0 118 70 185t189 67q105 0 175 -61q72 -60 72 -166v-10h-10v10q0 100 -69 159q-67 58 -168 58q-115 0 -182 -64.5t-67 -177.5v-226q0 -113 67 -177.5t182 -64.5q101 0 168 58q69 59 69 159v10h10v-10q0 -105 -72 -167
q-70 -60 -175 -60zM340 762h-14l136 151h10v-6z" />
    <glyph glyph-name="cacute" unicode="&#x107;" horiz-adv-x="518" 
d="M261 -12q-91 0 -142.5 51t-51.5 135v152q0 84 51.5 135t142.5 51q89 0 141.5 -46.5t52.5 -120.5v-4h-10v4q0 70 -49.5 113.5t-134.5 43.5q-86 0 -135 -48.5t-49 -127.5v-152q0 -79 49 -127.5t135 -48.5q85 0 134.5 44t49.5 115v5h10v-5q0 -75 -52.5 -122t-141.5 -47z
M236 590h-13l127 140h9v-5z" />
    <glyph glyph-name="Ccaron" unicode="&#x10c;" horiz-adv-x="656" 
d="M339 -15q-119 0 -189 67t-70 185v226q0 118 70 185t189 67q105 0 175 -61q72 -60 72 -166v-10h-10v10q0 100 -69 159q-67 58 -168 58q-115 0 -182 -64.5t-67 -177.5v-226q0 -113 67 -177.5t182 -64.5q101 0 168 58q69 59 69 159v10h10v-10q0 -105 -72 -167
q-70 -60 -175 -60zM344 763h-13l-132 145v5h10l128 -141l129 141h10v-5z" />
    <glyph glyph-name="ccaron" unicode="&#x10d;" horiz-adv-x="518" 
d="M261 -12q-91 0 -142.5 51t-51.5 135v152q0 84 51.5 135t142.5 51q89 0 141.5 -46.5t52.5 -120.5v-4h-10v4q0 70 -49.5 113.5t-134.5 43.5q-86 0 -135 -48.5t-49 -127.5v-152q0 -79 49 -127.5t135 -48.5q85 0 134.5 44t49.5 115v5h10v-5q0 -75 -52.5 -122t-141.5 -47z
M269 590h-12l-123 135v5h9l120 -132l120 132h9v-5z" />
    <glyph glyph-name="Dcaron" unicode="&#x10e;" horiz-adv-x="665" 
d="M110 690v-680h221q114 0 179 63.5t65 174.5v204q0 111 -65 174.5t-179 63.5h-221zM331 0h-231v700h231q118 0 186 -66t68 -182v-204q0 -116 -68 -182t-186 -66zM328 763h-13l-132 145v5h10l128 -141l129 141h10v-5z" />
    <glyph glyph-name="dcaron" unicode="&#x10f;" horiz-adv-x="626" 
d="M249 -12q-82 0 -128 51t-46 135v152q0 84 46 135t128 51q108 0 204 -106v299h10v-705h-10v94q-96 -106 -204 -106zM249 -2q103 0 204 110v284q-101 110 -204 110q-77 0 -120.5 -48t-43.5 -128v-152q0 -80 43.5 -128t120.5 -48zM568 537h-9v5l78 163h9v-5z" />
    <glyph glyph-name="Emacron" unicode="&#x112;" horiz-adv-x="568" 
d="M508 0h-408v700h408v-10h-398v-332h350v-10h-350v-338h398v-10zM431 822h-250v11h250v-11z" />
    <glyph glyph-name="emacron" unicode="&#x113;" 
d="M261 -12q-91 0 -142.5 51t-51.5 135v152q0 84 51.5 135t142.5 51q93 0 143.5 -50.5t50.5 -135.5v-76h-378v-76q0 -79 49 -127.5t135 -48.5q80 0 126 40t53 108h10q-6 -73 -55 -115.5t-134 -42.5zM77 326v-66h368v66q0 80 -48 128t-136 48q-86 0 -135 -48.5t-49 -127.5z
M378 645h-233v10h233v-10z" />
    <glyph glyph-name="Edotaccent" unicode="&#x116;" horiz-adv-x="568" 
d="M508 0h-408v700h408v-10h-398v-332h350v-10h-350v-338h398v-10zM308 768h-11v118h11v-118z" />
    <glyph glyph-name="edotaccent" unicode="&#x117;" 
d="M261 -12q-91 0 -142.5 51t-51.5 135v152q0 84 51.5 135t142.5 51q93 0 143.5 -50.5t50.5 -135.5v-76h-378v-76q0 -79 49 -127.5t135 -48.5q80 0 126 40t53 108h10q-6 -73 -55 -115.5t-134 -42.5zM77 326v-66h368v66q0 80 -48 128t-136 48q-86 0 -135 -48.5t-49 -127.5z
M266 595h-10v110h10v-110z" />
    <glyph glyph-name="Eogonek" unicode="&#x118;" horiz-adv-x="568" 
d="M577 -160h-50q-93 0 -93 72q0 42 58 88h-392v700h408v-10h-398v-332h350v-10h-350v-338h398v-10q-64 -46 -64 -88q0 -62 86 -62h47v-10z" />
    <glyph glyph-name="eogonek" unicode="&#x119;" 
d="M406 -160h-50q-44 0 -68.5 19t-24.5 54q0 41 49 80q-30 -5 -51 -5q-91 0 -142.5 51t-51.5 135v152q0 84 51.5 135t142.5 51q93 0 143.5 -50.5t50.5 -135.5v-76h-378v-76q0 -79 49 -127.5t135 -48.5q80 0 126 40t53 108h10q-11 -104 -107 -146q-32 -14 -51 -38.5
t-19 -48.5q0 -63 86 -63h47v-10zM77 326v-66h368v66q0 80 -48 128t-136 48q-86 0 -135 -48.5t-49 -127.5z" />
    <glyph glyph-name="Ecaron" unicode="&#x11a;" horiz-adv-x="568" 
d="M508 0h-408v700h408v-10h-398v-332h350v-10h-350v-338h398v-10zM317 763h-13l-132 145v5h10l128 -141l129 141h10v-5z" />
    <glyph glyph-name="ecaron" unicode="&#x11b;" 
d="M261 -12q-91 0 -142.5 51t-51.5 135v152q0 84 51.5 135t142.5 51q93 0 143.5 -50.5t50.5 -135.5v-76h-378v-76q0 -79 49 -127.5t135 -48.5q80 0 126 40t53 108h10q-6 -73 -55 -115.5t-134 -42.5zM77 326v-66h368v66q0 80 -48 128t-136 48q-86 0 -135 -48.5t-49 -127.5z
M265 590h-12l-123 135v5h9l120 -132l120 132h9v-5z" />
    <glyph glyph-name="uni0122" unicode="&#x122;" horiz-adv-x="687" 
d="M345 -15q-123 0 -194 67q-71 68 -71 185v226q0 117 71 185q71 67 194 67q105 0 178 -61q74 -60 74 -166v-10h-10v10q0 100 -71 159q-70 58 -171 58q-118 0 -186.5 -64.5t-68.5 -177.5v-226q0 -113 68.5 -177.5t186.5 -64.5q90 0 148 40t94 127v156h-211v10h221v-328h-10
v138q-61 -153 -242 -153zM300 -235h-9v5l78 163h9v-5z" />
    <glyph glyph-name="uni0123" unicode="&#x123;" horiz-adv-x="553" 
d="M275 -172q-84 0 -135 42t-54 116h10q3 -67 52 -107.5t127 -40.5q84 0 131 47.5t47 137.5v117q-96 -106 -204 -106q-82 0 -128 51t-46 135v106q0 84 46 135t128 51q108 0 204 -106v94h10v-477q0 -95 -49.5 -145t-138.5 -50zM249 44q103 0 204 110v238q-101 110 -204 110
q-77 0 -120.5 -48t-43.5 -128v-106q0 -80 43.5 -128t120.5 -48zM340 754h9v-5l-72 -163h-8v5z" />
    <glyph glyph-name="Imacron" unicode="&#x12a;" horiz-adv-x="210" 
d="M110 0h-10v700h10v-700zM230 822h-250v11h250v-11z" />
    <glyph glyph-name="imacron" unicode="&#x12b;" horiz-adv-x="190" 
d="M100 0h-10v500h10v-500zM212 645h-233v10h233v-10z" />
    <glyph glyph-name="Iogonek" unicode="&#x12e;" horiz-adv-x="210" 
d="M179 -160h-50q-44 0 -68.5 18.5t-24.5 52.5q0 48 64 94v695h10v-700q-64 -46 -64 -89q0 -61 86 -61h47v-10z" />
    <glyph glyph-name="iogonek" unicode="&#x12f;" horiz-adv-x="190" 
d="M169 -160h-50q-44 0 -68.5 18.5t-24.5 52.5q0 48 64 94v495h10v-500q-64 -46 -64 -89q0 -61 86 -61h47v-10zM100 595h-10v110h10v-110z" />
    <glyph glyph-name="dotlessi" unicode="&#x131;" horiz-adv-x="190" 
d="M100 0h-10v500h10v-500z" />
    <glyph glyph-name="uni0136" unicode="&#x136;" horiz-adv-x="577" 
d="M110 0h-10v700h10v-344h166l251 344h9v-5l-251 -344l262 -346v-5h-9l-261 346h-167v-346zM230 -235h-9v5l78 163h9v-5z" />
    <glyph glyph-name="uni0137" unicode="&#x137;" horiz-adv-x="491" 
d="M100 0h-10v705h10v-445h132l190 240h9v-5l-189 -239l199 -251v-5h-9l-197 250h-135v-250zM203 -235h-9v5l72 163h8v-5z" />
    <glyph glyph-name="Lacute" unicode="&#x139;" horiz-adv-x="551" 
d="M521 0h-420v700h10v-690h410v-10zM114 762h-14l136 151h10v-6z" />
    <glyph glyph-name="lacute" unicode="&#x13a;" horiz-adv-x="190" 
d="M103 756h-13l127 140h9v-5zM100 0h-10v705h10v-705z" />
    <glyph glyph-name="uni013B" unicode="&#x13b;" horiz-adv-x="550" 
d="M255 -235h-9v5l78 163h9v-5zM520 0h-420v700h10v-690h410v-10z" />
    <glyph glyph-name="uni013C" unicode="&#x13c;" horiz-adv-x="190" 
d="M100 0h-10v705h10v-705zM27 -235h-9v5l72 163h8v-5z" />
    <glyph glyph-name="Lcaron" unicode="&#x13d;" horiz-adv-x="550" 
d="M449 532h-9v5l78 163h9v-5zM520 0h-420v700h10v-690h410v-10z" />
    <glyph glyph-name="lcaron" unicode="&#x13e;" horiz-adv-x="263" 
d="M205 537h-9v5l78 163h9v-5zM100 0h-10v705h10v-705z" />
    <glyph glyph-name="Lslash" unicode="&#x141;" horiz-adv-x="595" 
d="M565 0h-420v295l-101 -82h-9v5l110 90v392h10v-384l228 187h9v-5l-237 -195v-293h410v-10z" />
    <glyph glyph-name="lslash" unicode="&#x142;" horiz-adv-x="364" 
d="M185 0h-10v341l-166 -201h-9v5l175 212v348h10v-336l170 206h9v-5l-179 -217v-353z" />
    <glyph glyph-name="Nacute" unicode="&#x143;" horiz-adv-x="680" 
d="M110 0h-10v700h10l460 -682v682h10v-700h-9l-461 681v-681zM326 762h-14l136 151h10v-6z" />
    <glyph glyph-name="nacute" unicode="&#x144;" horiz-adv-x="559" 
d="M100 0h-10v500h10v-94q94 106 204 106q76 0 123 -48.5t47 -135.5v-328h-10v324q0 85 -44 131.5t-116 46.5q-111 0 -204 -111v-391zM236 590h-13l127 140h9v-5z" />
    <glyph glyph-name="Ncommaaccent" unicode="&#x145;" horiz-adv-x="680" 
d="M110 0h-10v700h10l460 -682v682h10v-700h-9l-461 681v-681zM273 -235h-9v5l78 163h9v-5z" />
    <glyph glyph-name="ncommaaccent" unicode="&#x146;" horiz-adv-x="559" 
d="M100 0h-10v500h10v-94q94 106 204 106q76 0 123 -48.5t47 -135.5v-328h-10v324q0 85 -44 131.5t-116 46.5q-111 0 -204 -111v-391zM238 -235h-9v5l72 163h8v-5z" />
    <glyph glyph-name="Ncaron" unicode="&#x147;" horiz-adv-x="680" 
d="M110 0h-10v700h10l460 -682v682h10v-700h-9l-461 681v-681zM348 763h-13l-132 145v5h10l128 -141l129 141h10v-5z" />
    <glyph glyph-name="ncaron" unicode="&#x148;" horiz-adv-x="559" 
d="M289 590h-12l-123 135v5h9l120 -132l120 132h9v-5zM100 0h-10v500h10v-94q94 106 204 106q76 0 123 -48.5t47 -135.5v-328h-10v324q0 85 -44 131.5t-116 46.5q-111 0 -204 -111v-391z" />
    <glyph glyph-name="Omacron" unicode="&#x14c;" horiz-adv-x="668" 
d="M578 233v234q0 111 -65 174.5t-179 63.5t-179 -63.5t-65 -174.5v-234q0 -111 65 -174.5t179 -63.5t179 63.5t65 174.5zM80 233v234q0 116 68 182t186 66t186 -66t68 -182v-234q0 -116 -68 -182t-186 -66t-186 66t-68 182zM459 822h-250v11h250v-11z" />
    <glyph glyph-name="omacron" unicode="&#x14d;" 
d="M261 -2q88 0 136 48t48 128v152q0 80 -48 128t-136 48q-86 0 -135 -48.5t-49 -127.5v-152q0 -79 49 -127.5t135 -48.5zM261 -12q-91 0 -142.5 51t-51.5 135v152q0 84 51.5 135t142.5 51q93 0 143.5 -50.5t50.5 -135.5v-152q0 -85 -50.5 -135.5t-143.5 -50.5zM379 645
h-233v10h233v-10z" />
    <glyph glyph-name="obreve" unicode="&#x14f;" 
d="M261 -2q88 0 136 48t48 128v152q0 80 -48 128t-136 48q-86 0 -135 -48.5t-49 -127.5v-152q0 -79 49 -127.5t135 -48.5zM261 -12q-91 0 -142.5 51t-51.5 135v152q0 84 51.5 135t142.5 51q93 0 143.5 -50.5t50.5 -135.5v-152q0 -85 -50.5 -135.5t-143.5 -50.5zM263 585
q-66 0 -105.5 37t-39.5 100v12h10v-11q0 -59 37 -93.5t98 -34.5t98 34.5t37 93.5v11h10v-12q0 -63 -39.5 -100t-105.5 -37z" />
    <glyph glyph-name="Ohungarumlaut" unicode="&#x150;" horiz-adv-x="668" 
d="M578 233v234q0 111 -65 174.5t-179 63.5t-179 -63.5t-65 -174.5v-234q0 -111 65 -174.5t179 -63.5t179 63.5t65 174.5zM80 233v234q0 116 68 182t186 66t186 -66t68 -182v-234q0 -116 -68 -182t-186 -66t-186 66t-68 182zM249 763h-14l136 150h10v-5zM427 763h-14
l136 150h10v-5z" />
    <glyph glyph-name="ohungarumlaut" unicode="&#x151;" 
d="M261 -2q88 0 136 48t48 128v152q0 80 -48 128t-136 48q-86 0 -135 -48.5t-49 -127.5v-152q0 -79 49 -127.5t135 -48.5zM261 -12q-91 0 -142.5 51t-51.5 135v152q0 84 51.5 135t142.5 51q93 0 143.5 -50.5t50.5 -135.5v-152q0 -85 -50.5 -135.5t-143.5 -50.5zM178 590h-13
l127 140h9v-5zM344 590h-13l127 140h9v-5z" />
    <glyph glyph-name="OE" unicode="&#x152;" horiz-adv-x="1046" 
d="M334 -15q-118 0 -186 66t-68 182v234q0 116 68 182t186 66q94 0 158 -44t86 -124v153h408v-10h-398v-332h350v-10h-350v-338h398v-10h-408v153q-22 -81 -86 -124.5t-158 -43.5zM334 -5q110 0 177 63t67 169v246q0 106 -67 169t-177 63q-114 0 -179 -63.5t-65 -174.5v-234
q0 -111 65 -174.5t179 -63.5z" />
    <glyph glyph-name="oe" unicode="&#x153;" horiz-adv-x="900" 
d="M261 -12q-91 0 -142.5 51t-51.5 135v152q0 84 51.5 135t142.5 51q77 0 126.5 -37t62.5 -101q13 64 62.5 101t126.5 37q93 0 143.5 -50.5t50.5 -135.5v-76h-378v-79q0 -78 50 -125.5t134 -47.5q80 0 126 40t53 108h10q-6 -73 -55 -115.5t-134 -42.5q-77 0 -126.5 37
t-62.5 101q-13 -64 -61.5 -101t-127.5 -37zM261 -2q86 0 135 47t49 126v159q0 77 -49 124.5t-135 47.5t-135 -48.5t-49 -127.5v-152q0 -79 49 -127.5t135 -48.5zM455 326v-66h368v66q0 80 -48 128t-136 48q-86 0 -135 -48.5t-49 -127.5z" />
    <glyph glyph-name="Racute" unicode="&#x154;" horiz-adv-x="630" 
d="M110 0h-10v700h279q86 0 134.5 -53.5t48.5 -146.5q0 -88 -44 -140.5t-120 -59.5l180 -295v-5h-9l-183 300h-276v-300zM110 690v-380h269q81 0 127 51t46 139t-46 139t-127 51h-269zM307 762h-14l136 151h10v-6z" />
    <glyph glyph-name="racute" unicode="&#x155;" horiz-adv-x="362" 
d="M182 590h-13l127 140h9v-5zM100 0h-10v500h10v-94q98 104 217 104h5v-10h-5q-119 0 -217 -108v-392z" />
    <glyph glyph-name="Rcommaaccent" unicode="&#x156;" horiz-adv-x="630" 
d="M110 0h-10v700h279q86 0 134.5 -53.5t48.5 -146.5q0 -88 -44 -140.5t-120 -59.5l180 -295v-5h-9l-183 300h-276v-300zM110 690v-380h269q81 0 127 51t46 139t-46 139t-127 51h-269zM261 -235h-9v5l78 163h9v-5z" />
    <glyph glyph-name="uni0157" unicode="&#x157;" horiz-adv-x="362" 
d="M100 0h-10v500h10v-94q98 104 217 104h5v-10h-5q-119 0 -217 -108v-392zM28 -235h-9v5l72 163h8v-5z" />
    <glyph glyph-name="Rcaron" unicode="&#x158;" horiz-adv-x="630" 
d="M110 0h-10v700h279q86 0 134.5 -53.5t48.5 -146.5q0 -88 -44 -140.5t-120 -59.5l180 -295v-5h-9l-183 300h-276v-300zM110 690v-380h269q81 0 127 51t46 139t-46 139t-127 51h-269zM313 763h-13l-132 145v5h10l128 -141l129 141h10v-5z" />
    <glyph glyph-name="rcaron" unicode="&#x159;" horiz-adv-x="362" 
d="M208 590h-12l-123 135v5h9l120 -132l120 132h9v-5zM100 0h-10v500h10v-94q98 104 217 104h5v-10h-5q-119 0 -217 -108v-392z" />
    <glyph glyph-name="Sacute" unicode="&#x15a;" horiz-adv-x="611" 
d="M319 -15q-50 0 -96 14t-84 41.5t-61 75.5t-23 111h10q0 -115 75 -174q76 -58 179 -58q100 0 156 45.5t56 119.5q0 59 -36.5 97t-119.5 69l-126 48q-96 35 -133 71q-35 37 -35 102q0 76 58.5 122t158.5 46q105 0 173 -59q67 -58 67 -177h-10q0 115 -66 171q-64 55 -164 55
q-95 0 -151 -43.5t-56 -114.5q0 -60 31 -92q31 -33 106 -61l124 -47q101 -38 144 -77q45 -39 45 -110q0 -79 -58 -127t-164 -48zM300 762h-14l136 151h10v-6z" />
    <glyph glyph-name="sacute" unicode="&#x15b;" horiz-adv-x="523" 
d="M269 -12q-55 -2 -100.5 15t-76.5 58.5t-32 101.5h10q0 -59 31 -97q56 -68 168 -68q80 0 127 34.5t47 90.5q0 47 -30 72t-104 44l-102 27q-69 18 -96.5 44.5t-27.5 76.5q0 55 47.5 90t129.5 35q87 0 138 -43.5t51 -126.5h-10q0 78 -48 119t-131 41q-78 0 -122.5 -31.5
t-44.5 -83.5q0 -45 25.5 -69.5t89.5 -41.5l102 -27q81 -22 112 -48t31 -78q0 -61 -48.5 -98t-135.5 -37zM246 590h-13l127 140h9v-5z" />
    <glyph glyph-name="scircumflex" unicode="&#x15d;" horiz-adv-x="523" 
d="M269 -12q-55 -2 -100.5 15t-76.5 58.5t-32 101.5h10q0 -59 31 -97q56 -68 168 -68q80 0 127 34.5t47 90.5q0 47 -30 72t-104 44l-102 27q-69 18 -96.5 44.5t-27.5 76.5q0 55 47.5 90t129.5 35q87 0 138 -43.5t51 -126.5h-10q0 78 -48 119t-131 41q-78 0 -122.5 -31.5
t-44.5 -83.5q0 -45 25.5 -69.5t89.5 -41.5l102 -27q81 -22 112 -48t31 -78q0 -61 -48.5 -98t-135.5 -37zM157 590h-9v5l123 135h12l123 -135v-5h-9l-120 132z" />
    <glyph glyph-name="Scaron" unicode="&#x160;" horiz-adv-x="611" 
d="M319 -15q-50 0 -96 14t-84 41.5t-61 75.5t-23 111h10q0 -115 75 -174q76 -58 179 -58q100 0 156 45.5t56 119.5q0 59 -36.5 97t-119.5 69l-126 48q-96 35 -133 71q-35 37 -35 102q0 76 58.5 122t158.5 46q105 0 173 -59q67 -58 67 -177h-10q0 115 -66 171q-64 55 -164 55
q-95 0 -151 -43.5t-56 -114.5q0 -60 31 -92q31 -33 106 -61l124 -47q101 -38 144 -77q45 -39 45 -110q0 -79 -58 -127t-164 -48zM321 763h-13l-132 145v5h10l128 -141l129 141h10v-5z" />
    <glyph glyph-name="scaron" unicode="&#x161;" horiz-adv-x="523" 
d="M269 -12q-55 -2 -100.5 15t-76.5 58.5t-32 101.5h10q0 -59 31 -97q56 -68 168 -68q80 0 127 34.5t47 90.5q0 47 -30 72t-104 44l-102 27q-69 18 -96.5 44.5t-27.5 76.5q0 55 47.5 90t129.5 35q87 0 138 -43.5t51 -126.5h-10q0 78 -48 119t-131 41q-78 0 -122.5 -31.5
t-44.5 -83.5q0 -45 25.5 -69.5t89.5 -41.5l102 -27q81 -22 112 -48t31 -78q0 -61 -48.5 -98t-135.5 -37zM273 590h-12l-123 135v5h9l120 -132l120 132h9v-5z" />
    <glyph glyph-name="Tcaron" unicode="&#x164;" horiz-adv-x="540" 
d="M275 0h-10v690h-235v10h480v-10h-235v-690zM277 763h-13l-132 145v5h10l128 -141l129 141h10v-5z" />
    <glyph glyph-name="tcaron" unicode="&#x165;" horiz-adv-x="424" 
d="M284 0h-35q-61 0 -93 35t-32 87v368h-94v10h94v104h10v-104h150v-10h-150v-368q0 -53 30 -82.5t84 -29.5h36v-10zM366 537h-9v5l78 163h9v-5z" />
    <glyph glyph-name="Umacron" unicode="&#x16a;" horiz-adv-x="660" 
d="M90 237v463h10v-463q0 -113 62 -177.5t168 -64.5t168 64.5t62 177.5v463h10v-463q0 -117 -65 -185q-64 -67 -175 -67t-175 67q-65 68 -65 185zM455 822h-250v11h250v-11z" />
    <glyph glyph-name="umacron" unicode="&#x16b;" horiz-adv-x="559" 
d="M255 -12q-76 0 -123 48.5t-47 135.5v328h10v-324q0 -85 44 -131.5t116 -46.5q111 0 204 111v391h10v-500h-10v94q-94 -106 -204 -106zM393 645h-233v10h233v-10z" />
    <glyph glyph-name="Uring" unicode="&#x16e;" horiz-adv-x="660" 
d="M90 237v463h10v-463q0 -113 62 -177.5t168 -64.5t168 64.5t62 177.5v463h10v-463q0 -117 -65 -185q-64 -67 -175 -67t-175 67q-65 68 -65 185zM425 847q0 36 -27.5 61.5t-66.5 25.5q-37 0 -66 -26q-28 -25 -28 -61t27 -62q19 -19 48.5 -23t54.5 5t42.5 31t15.5 49z
M226 847q0 40 31 68.5t74 28.5t74 -28.5t31 -68.5q0 -41 -31 -69.5t-74 -28.5t-74 28.5t-31 69.5z" />
    <glyph glyph-name="uring" unicode="&#x16f;" horiz-adv-x="559" 
d="M255 -12q-76 0 -123 48.5t-47 135.5v328h10v-324q0 -85 44 -131.5t116 -46.5q111 0 204 111v391h10v-500h-10v94q-94 -106 -204 -106zM215 610q26 -23 62 -23t62 23q26 24 26 58t-26 57q-26 24 -62 24t-62 -24q-26 -23 -26 -57t26 -58zM346 603q-29 -26 -69 -26t-69 26
q-29 27 -29 65t29 64q29 27 69 27t69 -27q29 -26 29 -64t-29 -65z" />
    <glyph glyph-name="Uhungarumlaut" unicode="&#x170;" horiz-adv-x="660" 
d="M90 237v463h10v-463q0 -113 62 -177.5t168 -64.5t168 64.5t62 177.5v463h10v-463q0 -117 -65 -185q-64 -67 -175 -67t-175 67q-65 68 -65 185zM225 763h-14l136 150h10v-5zM403 763h-14l136 150h10v-5z" />
    <glyph glyph-name="uhungarumlaut" unicode="&#x171;" horiz-adv-x="559" 
d="M255 -12q-76 0 -123 48.5t-47 135.5v328h10v-324q0 -85 44 -131.5t116 -46.5q111 0 204 111v391h10v-500h-10v94q-94 -106 -204 -106zM180 590h-13l127 140h9v-5zM346 590h-13l127 140h9v-5z" />
    <glyph glyph-name="Uogonek" unicode="&#x172;" horiz-adv-x="660" 
d="M489 -160h-50q-43 0 -68 19.5t-25 53.5q0 38 47 79q-27 -7 -63 -7q-111 0 -175 67q-65 68 -65 185v463h10v-463q0 -113 62 -177.5t168 -64.5t168 64.5t62 177.5v463h10v-463q0 -172 -136 -233q-36 -16 -57 -42t-21 -49q0 -63 86 -63h47v-10z" />
    <glyph glyph-name="uogonek" unicode="&#x173;" horiz-adv-x="559" 
d="M538 -160h-50q-44 0 -68.5 18.5t-24.5 52.5q0 48 64 94v89q-94 -106 -204 -106q-76 0 -123 48.5t-47 135.5v328h10v-324q0 -85 44 -131.5t116 -46.5q111 0 204 111v391h10v-500q-64 -46 -64 -89q0 -61 86 -61h47v-10z" />
    <glyph glyph-name="Ydieresis" unicode="&#x178;" horiz-adv-x="596" 
d="M303 0h-10v278l-273 417v5h9l269 -411l269 411h9v-5l-273 -417v-278zM214 771h-11v118h11v-118zM394 771h-11v118h11v-118z" />
    <glyph glyph-name="Zacute" unicode="&#x179;" horiz-adv-x="558" 
d="M508 0h-458v10l437 680h-424v10h436v-10l-437 -680h446v-10zM262 762h-14l136 151h10v-6z" />
    <glyph glyph-name="zacute" unicode="&#x17a;" horiz-adv-x="501" 
d="M436 0h-376v10l362 480h-344v10h357v-10l-362 -480h363v-10zM222 590h-13l127 140h9v-5z" />
    <glyph glyph-name="Zdotaccent" unicode="&#x17b;" horiz-adv-x="558" 
d="M508 0h-458v10l437 680h-424v10h436v-10l-437 -680h446v-10zM276 768h-11v118h11v-118z" />
    <glyph glyph-name="zdotaccent" unicode="&#x17c;" horiz-adv-x="501" 
d="M436 0h-376v10l362 480h-344v10h357v-10l-362 -480h363v-10zM257 595h-10v110h10v-110z" />
    <glyph glyph-name="Zcaron" unicode="&#x17d;" horiz-adv-x="558" 
d="M508 0h-458v10l437 680h-424v10h436v-10l-437 -680h446v-10zM285 763h-13l-132 145v5h10l128 -141l129 141h10v-5z" />
    <glyph glyph-name="zcaron" unicode="&#x17e;" horiz-adv-x="501" 
d="M255 590h-12l-123 135v5h9l120 -132l120 132h9v-5zM436 0h-376v10l362 480h-344v10h357v-10l-362 -480h363v-10z" />
    <glyph glyph-name="florin" unicode="&#x192;" horiz-adv-x="378" 
d="M78 490v10h94l6 73q11 134 138 134l32 -2v-10q-22 2 -33 2q-57 0 -90 -32t-37 -92l-6 -73h150v-10h-151l-41 -528q-11 -134 -138 -134l-32 2v10q22 -2 33 -2q57 0 90 32t37 92l41 528h-93z" />
    <glyph glyph-name="scommaaccent" unicode="&#x219;" horiz-adv-x="523" 
d="M269 -12q-55 -2 -100.5 15t-76.5 58.5t-32 101.5h10q0 -59 31 -97q56 -68 168 -68q80 0 127 34.5t47 90.5q0 47 -30 72t-104 44l-102 27q-69 18 -96.5 44.5t-27.5 76.5q0 55 47.5 90t129.5 35q87 0 138 -43.5t51 -126.5h-10q0 78 -48 119t-131 41q-78 0 -122.5 -31.5
t-44.5 -83.5q0 -45 25.5 -69.5t89.5 -41.5l102 -27q81 -22 112 -48t31 -78q0 -61 -48.5 -98t-135.5 -37zM212 -235h-9v5l72 163h8v-5z" />
    <glyph glyph-name="circumflex" unicode="&#x2c6;" horiz-adv-x="398" 
d="M79 590h-9v5l123 135h12l123 -135v-5h-9l-120 132z" />
    <glyph glyph-name="caron" unicode="&#x2c7;" horiz-adv-x="398" 
d="M205 590h-12l-123 135v5h9l120 -132l120 132h9v-5z" />
    <glyph glyph-name="breve" unicode="&#x2d8;" horiz-adv-x="394" 
d="M197 571q-66 0 -105.5 37t-39.5 100v12h10v-11q0 -59 37 -93.5t98 -34.5t98 34.5t37 93.5v11h10v-12q0 -63 -39.5 -100t-105.5 -37z" />
    <glyph glyph-name="dotaccent" unicode="&#x2d9;" horiz-adv-x="150" 
d="M80 595h-10v110h10v-110z" />
    <glyph glyph-name="ring" unicode="&#x2da;" horiz-adv-x="336" 
d="M106 610q26 -23 62 -23t62 23q26 24 26 58t-26 57q-26 24 -62 24t-62 -24q-26 -23 -26 -57t26 -58zM237 603q-29 -26 -69 -26t-69 26q-29 27 -29 65t29 64q29 27 69 27t69 -27q29 -26 29 -64t-29 -65z" />
    <glyph glyph-name="ogonek" unicode="&#x2db;" horiz-adv-x="265" 
d="M203 -160h-50q-43 0 -68 19.5t-25 53.5q0 41 58 87h16q-64 -46 -64 -87q0 -63 86 -63h47v-10z" />
    <glyph glyph-name="tilde" unicode="&#x2dc;" horiz-adv-x="491" 
d="M78 632l-8 6q38 47 56 61q19 16 43 16q27 0 69 -30l22 -16q36 -27 63 -27q20 0 37 14t53 59l8 -6q-37 -46 -56 -61.5t-43 -15.5q-27 0 -69 30l-22 16q-37 27 -63 27q-21 0 -38 -14q-14 -11 -52 -59z" />
    <glyph glyph-name="hungarumlaut" unicode="&#x2dd;" horiz-adv-x="442" 
d="M83 590h-13l127 140h9v-5zM249 590h-13l127 140h9v-5z" />
    <glyph glyph-name="uni03A9" unicode="&#x3a9;" horiz-adv-x="708" 
d="M305 0h-220v10h175q-76 23 -118 84t-42 151v222q0 116 68 182t186 66t186 -66t68 -182v-222q0 -90 -42 -150.5t-118 -84.5h175v-10h-220v10q91 13 143 75t52 160v223q0 111 -65 174.5t-179 63.5t-179 -63.5t-65 -174.5v-223q0 -98 52 -160t143 -75v-10z" />
    <glyph glyph-name="pi" unicode="&#x3c0;" horiz-adv-x="624" 
d="M156 0h-10v490h-106v10h544v-10h-106v-490h-10v490h-312v-490z" />
    <glyph glyph-name="uni0401" unicode="&#x401;" horiz-adv-x="568" 
d="M508 0h-408v700h408v-10h-398v-332h350v-10h-350v-338h398v-10zM215 768h-11v118h11v-118zM395 768h-11v118h11v-118z" />
    <glyph glyph-name="uni0402" unicode="&#x402;" horiz-adv-x="707" 
d="M204 0h-10v690h-184v10h463v-10h-269v-336q111 39 215 39q108 0 170.5 -53t62.5 -143q0 -92 -49.5 -144.5t-139.5 -52.5h-53v10h53q86 0 132.5 50t46.5 137q0 86 -62 136t-161 50q-105 0 -215 -40v-343z" />
    <glyph glyph-name="uni0403" unicode="&#x403;" horiz-adv-x="558" 
d="M284 762h-14l136 151h10v-6zM110 0h-10v700h408v-10h-398v-690z" />
    <glyph glyph-name="afii10053" unicode="&#x404;" horiz-adv-x="656" 
d="M339 -15q-119 0 -189 67t-70 185v226q0 118 70 185t189 67q105 0 175 -61q72 -60 72 -166v-10h-10v10q0 100 -69 159q-67 58 -168 58q-115 0 -182 -64.5t-67 -177.5v-107h346v-10h-346v-109q0 -113 67 -177.5t182 -64.5q101 0 168 58q69 59 69 159v10h10v-10
q0 -105 -72 -167q-70 -60 -175 -60z" />
    <glyph glyph-name="afii10054" unicode="&#x405;" horiz-adv-x="611" 
d="M319 -15q-50 0 -96 14t-84 41.5t-61 75.5t-23 111h10q0 -115 75 -174q76 -58 179 -58q100 0 156 45.5t56 119.5q0 59 -36.5 97t-119.5 69l-126 48q-96 35 -133 71q-35 37 -35 102q0 76 58.5 122t158.5 46q105 0 173 -59q67 -58 67 -177h-10q0 115 -66 171q-64 55 -164 55
q-95 0 -151 -43.5t-56 -114.5q0 -60 31 -92q31 -33 106 -61l124 -47q101 -38 144 -77q45 -39 45 -110q0 -79 -58 -127t-164 -48z" />
    <glyph glyph-name="uni0406" unicode="&#x406;" horiz-adv-x="210" 
d="M110 0h-10v700h10v-700z" />
    <glyph glyph-name="uni0407" unicode="&#x407;" horiz-adv-x="210" 
d="M110 0h-10v700h10v-700zM21 768h-11v118h11v-118zM201 768h-11v118h11v-118z" />
    <glyph glyph-name="uni0408" unicode="&#x408;" horiz-adv-x="555" 
d="M30 197v25h10v-25q0 -95 55.5 -148.5t151.5 -53.5q97 0 152.5 53.5t55.5 148.5v503h10v-503q0 -99 -59 -155.5t-159 -56.5t-158.5 56.5t-58.5 155.5z" />
    <glyph glyph-name="uni0409" unicode="&#x409;" horiz-adv-x="1079" 
d="M581 390v-380h260q81 0 127 51t46 139t-46 139t-127 51h-260zM186 358v342h395v-300h260q86 0 134.5 -53.5t48.5 -146.5t-48.5 -146.5t-134.5 -53.5h-270v690h-375v-332q0 -148 -19 -225q-18 -76 -51 -104.5t-97 -28.5v10q59 0 90 27q67 56 67 321z" />
    <glyph glyph-name="uni040A" unicode="&#x40a;" horiz-adv-x="1078" 
d="M120 0h-10v700h10v-300h450v300h10v-300h260q86 0 134.5 -53.5t48.5 -146.5t-48.5 -146.5t-134.5 -53.5h-270v390h-450v-390zM580 390v-380h260q81 0 127 51t46 139t-46 139t-127 51h-260z" />
    <glyph glyph-name="uni040B" unicode="&#x40b;" horiz-adv-x="723" 
d="M204 0h-10v690h-184v10h463v-10h-269v-336q93 39 207 39q242 0 242 -209v-184h-10v184q0 199 -232 199q-111 0 -207 -41v-342z" />
    <glyph glyph-name="uni040C" unicode="&#x40c;" horiz-adv-x="577" 
d="M110 0h-10v700h10v-344h166l251 344h9v-5l-251 -344l262 -346v-5h-9l-261 346h-167v-346zM290 762h-14l136 151h10v-6z" />
    <glyph glyph-name="uni040E" unicode="&#x40e;" horiz-adv-x="547" 
d="M211 0v5l75 168l-266 522v5h9l262 -516l227 516h9v-5l-307 -695h-9zM276 742q-66 0 -105.5 37t-39.5 100v9h10v-8q0 -59 37 -93.5t98 -34.5t98 34.5t37 93.5v8h10v-9q0 -63 -39.5 -100t-105.5 -37z" />
    <glyph glyph-name="uni040F" unicode="&#x40f;" horiz-adv-x="670" 
d="M340 -140h-10v140h-230v700h10v-690h450v690h10v-700h-230v-140z" />
    <glyph glyph-name="uni0410" unicode="&#x410;" horiz-adv-x="650" 
d="M39 0h-9v5l289 695h12l289 -695v-5h-9l-91 218h-391zM325 689l-192 -461h383z" />
    <glyph glyph-name="uni0411" unicode="&#x411;" horiz-adv-x="633" 
d="M390 0h-290v700h435v-10h-425v-290h280q86 0 134.5 -53.5t48.5 -146.5t-48.5 -146.5t-134.5 -53.5zM110 390v-380h280q81 0 127 51t46 139t-46 139t-127 51h-280z" />
    <glyph glyph-name="uni0412" unicode="&#x412;" horiz-adv-x="638" 
d="M412 0h-312v700h290q77 0 120 -45.5t43 -125.5q0 -67 -30 -109t-80 -55q61 -9 98 -56t37 -126q0 -84 -44.5 -133.5t-121.5 -49.5zM110 358v-348h299q74 0 116.5 47t42.5 127q0 81 -42 127.5t-117 46.5h-299zM110 690v-322h286q69 0 108 43t39 118t-40.5 118t-112.5 43
h-280z" />
    <glyph glyph-name="uni0413" unicode="&#x413;" horiz-adv-x="558" 
d="M110 0h-10v700h408v-10h-398v-690z" />
    <glyph glyph-name="uni0414" unicode="&#x414;" horiz-adv-x="711" 
d="M45 -150h-10v160h49q37 47 58 88q25 47 42.5 133t17.5 192v277h368v-690h96v-160h-10v150h-611v-150zM98 10h462v680h-348v-267q0 -163 -30 -252q-29 -89 -84 -161z" />
    <glyph glyph-name="uni0415" unicode="&#x415;" horiz-adv-x="568" 
d="M508 0h-408v700h408v-10h-398v-332h350v-10h-350v-338h398v-10z" />
    <glyph glyph-name="uni0416" unicode="&#x416;" horiz-adv-x="826" 
d="M49 0h-9v5l213 346l-201 344v5h9l201 -344h146v344h10v-344h146l201 344h9v-5l-201 -344l213 -346v-5h-9l-212 346h-147v-346h-10v346h-147z" />
    <glyph glyph-name="uni0417" unicode="&#x417;" horiz-adv-x="592" 
d="M60 212h10q2 -101 65 -159q64 -58 168 -58q102 0 160.5 53t58.5 144q0 77 -52 124t-140 47h-109v10h109q79 0 124.5 40.5t45.5 116.5t-54 126q-53 50 -149 50q-99 0 -157 -58t-59 -160h-10q1 106 61.5 166.5t164.5 60.5q100 0 156 -53q57 -52 57 -132q0 -69 -36.5 -111
t-98.5 -51q70 -9 113.5 -56t43.5 -120q0 -95 -61 -151t-168 -56t-175 60q-67 61 -68 167z" />
    <glyph glyph-name="uni0418" unicode="&#x418;" horiz-adv-x="680" 
d="M110 0h-10v700h10v-681l460 681h10v-700h-10v681z" />
    <glyph glyph-name="uni0419" unicode="&#x419;" horiz-adv-x="680" 
d="M110 0h-10v700h10v-681l460 681h10v-700h-10v681zM340 742q-66 0 -105.5 37t-39.5 100v9h10v-8q0 -59 37 -93.5t98 -34.5t98 34.5t37 93.5v8h10v-9q0 -63 -39.5 -100t-105.5 -37z" />
    <glyph glyph-name="uni041A" unicode="&#x41a;" horiz-adv-x="577" 
d="M110 0h-10v700h10v-344h166l251 344h9v-5l-251 -344l262 -346v-5h-9l-261 346h-167v-346z" />
    <glyph glyph-name="uni041B" unicode="&#x41b;" horiz-adv-x="681" 
d="M29 0v10q59 0 90 27q67 56 67 321v342h395v-700h-10v690h-375v-332q0 -148 -19 -225q-18 -76 -51 -104.5t-97 -28.5z" />
    <glyph glyph-name="uni041C" unicode="&#x41c;" horiz-adv-x="788" 
d="M110 0h-10v700h10l284 -420l284 420h10v-700h-10v681l-280 -414h-8l-280 414v-681z" />
    <glyph glyph-name="uni041D" unicode="&#x41d;" horiz-adv-x="680" 
d="M110 0h-10v700h10v-344h460v344h10v-700h-10v346h-460v-346z" />
    <glyph glyph-name="uni041E" unicode="&#x41e;" horiz-adv-x="668" 
d="M578 233v234q0 111 -65 174.5t-179 63.5t-179 -63.5t-65 -174.5v-234q0 -111 65 -174.5t179 -63.5t179 63.5t65 174.5zM80 233v234q0 116 68 182t186 66t186 -66t68 -182v-234q0 -116 -68 -182t-186 -66t-186 66t-68 182z" />
    <glyph glyph-name="uni041F" unicode="&#x41f;" horiz-adv-x="674" 
d="M110 0h-10v700h474v-700h-10v690h-454v-690z" />
    <glyph glyph-name="uni0420" unicode="&#x420;" horiz-adv-x="608" 
d="M110 0h-10v700h270q86 0 134.5 -53.5t48.5 -146.5t-48.5 -146.5t-134.5 -53.5h-260v-300zM110 690v-380h260q81 0 127 51t46 139t-46 139t-127 51h-260z" />
    <glyph glyph-name="uni0421" unicode="&#x421;" horiz-adv-x="656" 
d="M339 -15q-119 0 -189 67t-70 185v226q0 118 70 185t189 67q105 0 175 -61q72 -60 72 -166v-10h-10v10q0 100 -69 159q-67 58 -168 58q-115 0 -182 -64.5t-67 -177.5v-226q0 -113 67 -177.5t182 -64.5q101 0 168 58q69 59 69 159v10h10v-10q0 -105 -72 -167
q-70 -60 -175 -60z" />
    <glyph glyph-name="uni0422" unicode="&#x422;" horiz-adv-x="540" 
d="M275 0h-10v690h-235v10h480v-10h-235v-690z" />
    <glyph glyph-name="uni0423" unicode="&#x423;" horiz-adv-x="547" 
d="M211 0v5l75 168l-266 522v5h9l262 -516l227 516h9v-5l-307 -695h-9z" />
    <glyph glyph-name="uni0424" unicode="&#x424;" horiz-adv-x="772" 
d="M391 -12h-10v105h-71q-115 0 -182.5 58.5t-67.5 160.5v74q0 102 67.5 160.5t182.5 58.5h71v95h10v-95h71q115 0 182.5 -58.5t67.5 -160.5v-74q0 -102 -67.5 -160.5t-182.5 -58.5h-71v-105zM310 103h71v492h-71q-111 0 -175.5 -55.5t-64.5 -153.5v-74q0 -98 64.5 -153.5
t175.5 -55.5zM391 595v-492h71q111 0 175.5 55.5t64.5 153.5v74q0 98 -64.5 153.5t-175.5 55.5h-71z" />
    <glyph glyph-name="uni0425" unicode="&#x425;" horiz-adv-x="586" 
d="M49 0h-9v5l246 347l-246 343v5h9l244 -341l244 341h9v-5l-246 -344l246 -346v-5h-9l-244 344z" />
    <glyph glyph-name="uni0426" unicode="&#x426;" horiz-adv-x="711" 
d="M666 -150h-10v150h-556v700h10v-690h450v690h10v-690h96v-160z" />
    <glyph glyph-name="uni0427" unicode="&#x427;" horiz-adv-x="629" 
d="M529 0h-10v346q-93 -39 -207 -39q-242 0 -242 209v184h10v-184q0 -199 232 -199q111 0 207 41v342h10v-700z" />
    <glyph glyph-name="uni0428" unicode="&#x428;" horiz-adv-x="938" 
d="M838 0h-738v700h10v-690h354v690h10v-690h354v690h10v-700z" />
    <glyph glyph-name="uni0429" unicode="&#x429;" horiz-adv-x="979" 
d="M934 -150h-10v150h-824v700h10v-690h354v690h10v-690h354v690h10v-690h96v-160z" />
    <glyph glyph-name="uni042A" unicode="&#x42a;" horiz-adv-x="713" 
d="M475 0h-270v690h-185v10h195v-300h260q86 0 134.5 -53.5t48.5 -146.5t-48.5 -146.5t-134.5 -53.5zM215 390v-380h260q81 0 127 51t46 139t-46 139t-127 51h-260z" />
    <glyph glyph-name="uni042B" unicode="&#x42b;" horiz-adv-x="840" 
d="M370 0h-270v700h10v-300h260q86 0 134.5 -53.5t48.5 -146.5t-48.5 -146.5t-134.5 -53.5zM110 390v-380h260q81 0 127 51t46 139t-46 139t-127 51h-260zM740 0h-10v700h10v-700z" />
    <glyph glyph-name="uni042C" unicode="&#x42c;" horiz-adv-x="608" 
d="M370 0h-270v700h10v-300h260q86 0 134.5 -53.5t48.5 -146.5t-48.5 -146.5t-134.5 -53.5zM110 390v-380h260q81 0 127 51t46 139t-46 139t-127 51h-260z" />
    <glyph glyph-name="uni042D" unicode="&#x42d;" horiz-adv-x="656" 
d="M317 -15q-104 0 -176 60q-71 62 -71 167v10h10v-10q0 -100 68 -159q68 -58 169 -58q115 0 182 64.5t67 177.5v109h-346v10h346v107q0 113 -67 177.5t-182 64.5q-101 0 -169 -58q-68 -59 -68 -159v-10h-10v10q0 106 71 166q71 61 176 61q119 0 189 -67t70 -185v-226
q0 -118 -70 -185t-189 -67z" />
    <glyph glyph-name="uni042E" unicode="&#x42e;" horiz-adv-x="900" 
d="M576 -15q-114 0 -179 63.5t-65 174.5v123h-222v-346h-10v700h10v-344h222v121q0 111 65 174.5t179 63.5q112 0 178 -63.5t66 -174.5v-254q0 -111 -66 -174.5t-178 -63.5zM810 223v254q0 107 -62.5 167.5t-171.5 60.5t-171.5 -60.5t-62.5 -167.5v-254q0 -107 62.5 -167.5
t171.5 -60.5t171.5 60.5t62.5 167.5z" />
    <glyph glyph-name="uni042F" unicode="&#x42f;" horiz-adv-x="617" 
d="M61 0h-9v5l196 305q-89 0 -136.5 51.5t-47.5 143.5q0 90 47.5 142.5t130.5 52.5h275v-700h-10v310h-246zM242 320h265v370h-265q-78 0 -123 -50t-45 -135t45 -135t123 -50z" />
    <glyph glyph-name="uni0430" unicode="&#x430;" 
d="M216 -12q-72 0 -116.5 36t-44.5 104q0 74 53 112.5t155 38.5h164v79q0 65 -43.5 104.5t-123.5 39.5q-77 0 -121.5 -39.5t-44.5 -104.5h-10q0 70 46.5 112t129.5 42q85 0 131 -41.5t46 -112.5v-358h-10v83q-104 -95 -211 -95zM216 -2q103 0 211 99v172h-164
q-96 0 -147 -36t-51 -105q0 -63 42 -96.5t109 -33.5z" />
    <glyph glyph-name="uni0431" unicode="&#x431;" horiz-adv-x="530" 
d="M269 -12q-91 0 -142.5 51t-51.5 135v187q0 98 38 153.5t127 81.5l109 32q44 12 61.5 28.5t17.5 41.5v7h10v-7q0 -30 -18 -47.5t-68 -32.5l-109 -32q-84 -25 -121 -78t-37 -147v-21q96 106 204 106q82 0 128 -51t46 -135v-86q0 -85 -50.5 -135.5t-143.5 -50.5zM269 -2
q88 0 136 48t48 128v86q0 80 -43.5 128t-120.5 48q-103 0 -204 -110v-152q0 -79 49 -127.5t135 -48.5z" />
    <glyph glyph-name="uni0432" unicode="&#x432;" horiz-adv-x="530" 
d="M334 0h-244v500h224q63 0 97.5 -33.5t34.5 -92.5q0 -102 -87 -121q50 -6 79.5 -38t29.5 -87q0 -59 -35.5 -93.5t-98.5 -34.5zM100 246v-236h231q59 0 93 32t34 86t-33.5 86t-93.5 32h-231zM100 490v-234h218q54 0 85.5 31.5t31.5 85.5q0 55 -31.5 86t-90.5 31h-213z" />
    <glyph glyph-name="uni0433" unicode="&#x433;" horiz-adv-x="445" 
d="M100 0h-10v500h305v-10h-295v-490z" />
    <glyph glyph-name="uni0434" unicode="&#x434;" horiz-adv-x="610" 
d="M48 -136h-10v146h43q27 35 43 62q44 82 44 229v199h319v-490h78v-146h-10v136h-507v-136zM95 10h382v480h-299v-189q0 -79 -14 -143q-14 -62 -28 -87q-16 -27 -41 -61z" />
    <glyph glyph-name="uni0435" unicode="&#x435;" 
d="M261 -12q-91 0 -142.5 51t-51.5 135v152q0 84 51.5 135t142.5 51q93 0 143.5 -50.5t50.5 -135.5v-76h-378v-76q0 -79 49 -127.5t135 -48.5q80 0 126 40t53 108h10q-6 -73 -55 -115.5t-134 -42.5zM77 326v-66h368v66q0 80 -48 128t-136 48q-86 0 -135 -48.5t-49 -127.5z
" />
    <glyph glyph-name="uni0436" unicode="&#x436;" horiz-adv-x="768" 
d="M59 0h-9v5l177 249l-170 241v5h9l171 -242h142v242h10v-242h141l172 242h9v-5l-170 -241l177 -249v-5h-9l-176 248h-144v-248h-10v248h-145z" />
    <glyph glyph-name="uni0437" unicode="&#x437;" horiz-adv-x="509" 
d="M261 -12q-90 0 -142.5 43t-55.5 120h10q2 -71 53 -112t135 -41q81 0 127 36.5t46 99.5q0 54 -41 84t-113 30h-63v10h65q62 0 98 30.5t36 84.5q0 58 -42.5 93.5t-119.5 35.5q-76 0 -123 -41t-49 -112h-10q3 75 52 119t130 44q80 0 126 -38.5t46 -100.5q0 -51 -30 -83.5
t-79 -35.5q58 -5 92.5 -36.5t34.5 -83.5q0 -69 -48 -107.5t-135 -38.5z" />
    <glyph glyph-name="uni0438" unicode="&#x438;" horiz-adv-x="574" 
d="M100 0h-10v500h10v-483l374 483h10v-500h-10v483z" />
    <glyph glyph-name="uni0439" unicode="&#x439;" horiz-adv-x="574" 
d="M100 0h-10v500h10v-483l374 483h10v-500h-10v483zM287 571q-66 0 -105.5 37t-39.5 100v12h10v-11q0 -59 37 -93.5t98 -34.5t98 34.5t37 93.5v11h10v-12q0 -63 -39.5 -100t-105.5 -37z" />
    <glyph glyph-name="uni043A" unicode="&#x43a;" horiz-adv-x="498" 
d="M100 0h-10v500h10v-242h132l200 242h9v-5l-199 -241l206 -249v-5h-9l-204 248h-135v-248z" />
    <glyph glyph-name="uni043B" unicode="&#x43b;" horiz-adv-x="547" 
d="M22 0h-2v10h2q65 0 92 67t27 217v206h316v-500h-10v490h-296v-196q0 -156 -29.5 -225t-99.5 -69z" />
    <glyph glyph-name="uni043C" unicode="&#x43c;" horiz-adv-x="661" 
d="M100 0h-10v500h10l228 -281l233 281h10v-500h-10v483l-228 -274h-10l-223 274v-483z" />
    <glyph glyph-name="uni043D" unicode="&#x43d;" horiz-adv-x="564" 
d="M100 0h-10v500h10v-245h364v245h10v-500h-10v245h-364v-245z" />
    <glyph glyph-name="uni043E" unicode="&#x43e;" 
d="M261 -2q88 0 136 48t48 128v152q0 80 -48 128t-136 48q-86 0 -135 -48.5t-49 -127.5v-152q0 -79 49 -127.5t135 -48.5zM261 -12q-91 0 -142.5 51t-51.5 135v152q0 84 51.5 135t142.5 51q93 0 143.5 -50.5t50.5 -135.5v-152q0 -85 -50.5 -135.5t-143.5 -50.5z" />
    <glyph glyph-name="uni043F" unicode="&#x43f;" horiz-adv-x="560" 
d="M100 0h-10v500h380v-500h-10v490h-360v-490z" />
    <glyph glyph-name="uni0440" unicode="&#x440;" horiz-adv-x="553" 
d="M100 -160h-10v660h10v-94q96 106 204 106q82 0 128 -51t46 -135v-152q0 -84 -46 -135t-128 -51q-108 0 -204 106v-254zM304 -2q77 0 120.5 48t43.5 128v152q0 80 -43.5 128t-120.5 48q-103 0 -204 -110v-284q101 -110 204 -110z" />
    <glyph glyph-name="uni0441" unicode="&#x441;" horiz-adv-x="518" 
d="M261 -12q-91 0 -142.5 51t-51.5 135v152q0 84 51.5 135t142.5 51q89 0 141.5 -46.5t52.5 -120.5v-4h-10v4q0 70 -49.5 113.5t-134.5 43.5q-86 0 -135 -48.5t-49 -127.5v-152q0 -79 49 -127.5t135 -48.5q85 0 134.5 44t49.5 115v5h10v-5q0 -75 -52.5 -122t-141.5 -47z" />
    <glyph glyph-name="uni0442" unicode="&#x442;" horiz-adv-x="452" 
d="M231 0h-10v490h-191v10h392v-10h-191v-490z" />
    <glyph glyph-name="uni0443" unicode="&#x443;" horiz-adv-x="490" 
d="M184 -160h-9v5l65 155l-210 495v5h9l206 -489l206 489h9v-5z" />
    <glyph glyph-name="uni0444" unicode="&#x444;" horiz-adv-x="744" 
d="M377 -160h-10v229q-73 -81 -156 -81q-65 0 -100.5 40.5t-35.5 107.5v228q0 67 35.5 107.5t100.5 40.5q83 0 156 -81v274h10v-274q73 81 156 81q65 0 100.5 -40.5t35.5 -107.5v-228q0 -67 -35.5 -107.5t-100.5 -40.5q-83 0 -156 81v-229zM212 -2q79 0 155 85v334
q-76 85 -155 85q-61 0 -94 -38t-33 -100v-228q0 -62 33 -100t94 -38zM532 -2q61 0 94 38t33 100v228q0 62 -33 100t-94 38q-79 0 -155 -85v-334q76 -85 155 -85z" />
    <glyph glyph-name="uni0445" unicode="&#x445;" horiz-adv-x="500" 
d="M59 0h-9v5l194 245l-193 245v5h9l190 -241l190 241h9v-5l-193 -245l194 -245v-5h-9l-191 242z" />
    <glyph glyph-name="uni0446" unicode="&#x446;" horiz-adv-x="593" 
d="M548 -136h-10v136h-448v500h10v-490h360v490h10v-490h78v-146z" />
    <glyph glyph-name="uni0447" unicode="&#x447;" horiz-adv-x="520" 
d="M430 0h-10v226q-78 -25 -172 -25q-89 0 -138.5 38.5t-49.5 111.5v149h10v-149q0 -68 47.5 -104t130.5 -36q94 0 172 26v263h10v-500z" />
    <glyph glyph-name="uni0448" unicode="&#x448;" horiz-adv-x="746" 
d="M656 0h-566v500h10v-490h268v490h10v-490h268v490h10v-500z" />
    <glyph glyph-name="uni0449" unicode="&#x449;" horiz-adv-x="779" 
d="M734 -136h-10v136h-634v500h10v-490h268v490h10v-490h268v490h10v-490h78v-146z" />
    <glyph glyph-name="uni044A" unicode="&#x44a;" horiz-adv-x="583" 
d="M386 0h-221v490h-155v10h165v-199h211q74 0 115.5 -40.5t41.5 -110.5q0 -69 -41.5 -109.5t-115.5 -40.5zM175 291v-281h211q69 0 108 38t39 102q0 65 -39 103t-108 38h-211z" />
    <glyph glyph-name="uni044B" unicode="&#x44b;" horiz-adv-x="689" 
d="M311 0h-221v500h10v-199h211q74 0 115.5 -40.5t41.5 -110.5q0 -69 -41.5 -109.5t-115.5 -40.5zM100 291v-281h211q69 0 108 38t39 102q0 65 -39 103t-108 38h-211zM599 0h-10v500h10v-500z" />
    <glyph glyph-name="uni044C" unicode="&#x44c;" horiz-adv-x="518" 
d="M321 0h-231v500h10v-199h221q74 0 115.5 -40.5t41.5 -110.5q0 -69 -41.5 -109.5t-115.5 -40.5zM100 291v-281h221q69 0 108 38t39 102q0 65 -39 103t-108 38h-221z" />
    <glyph glyph-name="uni044D" unicode="&#x44d;" horiz-adv-x="524" 
d="M260 -12q-91 0 -144 48t-53 126h10q0 -74 50 -119t137 -45t137 49t50 130v67h-241v10h241v69q0 81 -50 130t-137 49q-86 0 -136.5 -44.5t-50.5 -116.5h-10q0 76 53 123.5t144 47.5q93 0 145 -51.5t52 -137.5v-146q0 -86 -52 -137.5t-145 -51.5z" />
    <glyph glyph-name="uni044E" unicode="&#x44e;" horiz-adv-x="717" 
d="M460 -12q-89 0 -139 49.5t-50 132.5v75h-171v-245h-10v500h10v-245h171v75q0 83 50 132.5t139 49.5q90 0 140 -49.5t50 -132.5v-160q0 -83 -50 -132.5t-140 -49.5zM460 -2q86 0 133 47t47 125v160q0 78 -47 125t-133 47q-83 0 -131 -47t-48 -125v-160q0 -78 48 -125
t131 -47z" />
    <glyph glyph-name="uni044F" unicode="&#x44f;" horiz-adv-x="519" 
d="M69 0h-9v5l142 216q-60 4 -93.5 41.5t-33.5 98.5q0 64 37.5 101.5t103.5 37.5h213v-500h-10v221h-206zM216 230h203v260h-203q-62 0 -96.5 -35t-34.5 -95t34.5 -95t96.5 -35z" />
    <glyph glyph-name="uni0451" unicode="&#x451;" 
d="M261 -12q-91 0 -142.5 51t-51.5 135v152q0 84 51.5 135t142.5 51q93 0 143.5 -50.5t50.5 -135.5v-76h-378v-76q0 -79 49 -127.5t135 -48.5q80 0 126 40t53 108h10q-6 -73 -55 -115.5t-134 -42.5zM77 326v-66h368v66q0 80 -48 128t-136 48q-86 0 -135 -48.5t-49 -127.5z
M183 595h-10v110h10v-110zM351 595h-10v110h10v-110z" />
    <glyph glyph-name="uni0452" unicode="&#x452;" horiz-adv-x="579" 
d="M384 -172l-28 2v10q18 -2 28 -2q49 0 76.5 28t27.5 81v284q0 85 -44 131.5t-116 46.5q-111 0 -204 -111v-298h-10v567h-91v10h91v128h10v-128h255v-10h-255v-254q94 106 204 106q76 0 123 -48.5t47 -135.5v-288q0 -58 -29.5 -88.5t-84.5 -30.5z" />
    <glyph glyph-name="uni0453" unicode="&#x453;" horiz-adv-x="445" 
d="M228 590h-13l127 140h9v-5zM100 0h-10v500h305v-10h-295v-490z" />
    <glyph glyph-name="uni0454" unicode="&#x454;" horiz-adv-x="524" 
d="M264 -12q-93 0 -145 51.5t-52 137.5v146q0 86 52 137.5t145 51.5q91 0 144 -47.5t53 -123.5h-10q0 72 -50.5 116.5t-136.5 44.5q-87 0 -137 -49t-50 -130v-69h241v-10h-241v-67q0 -81 50 -130t137 -49t137 45t50 119h10q0 -78 -53 -126t-144 -48z" />
    <glyph glyph-name="uni0455" unicode="&#x455;" horiz-adv-x="523" 
d="M269 -12q-55 -2 -100.5 15t-76.5 58.5t-32 101.5h10q0 -59 31 -97q56 -68 168 -68q80 0 127 34.5t47 90.5q0 47 -30 72t-104 44l-102 27q-69 18 -96.5 44.5t-27.5 76.5q0 55 47.5 90t129.5 35q87 0 138 -43.5t51 -126.5h-10q0 78 -48 119t-131 41q-78 0 -122.5 -31.5
t-44.5 -83.5q0 -45 25.5 -69.5t89.5 -41.5l102 -27q81 -22 112 -48t31 -78q0 -61 -48.5 -98t-135.5 -37z" />
    <glyph glyph-name="uni0456" unicode="&#x456;" horiz-adv-x="190" 
d="M100 0h-10v500h10v-500zM100 595h-10v110h10v-110z" />
    <glyph glyph-name="uni0457" unicode="&#x457;" horiz-adv-x="190" 
d="M16 595h-10v110h10v-110zM184 595h-10v110h10v-110zM100 0h-10v500h10v-500z" />
    <glyph glyph-name="uni0458" unicode="&#x458;" horiz-adv-x="190" 
d="M90 -53v553h10v-553q0 -58 -29.5 -88.5t-84.5 -30.5l-28 2v10q18 -2 28 -2q49 0 76.5 28t27.5 81zM100 595h-10v110h10v-110z" />
    <glyph glyph-name="uni0459" unicode="&#x459;" horiz-adv-x="840" 
d="M22 0h-2v10h2q65 0 92 67t27 217v206h301v-199h201q74 0 115.5 -40.5t41.5 -110.5q0 -69 -41.5 -109.5t-115.5 -40.5h-211v490h-281v-196q0 -156 -29.5 -225t-99.5 -69zM442 291v-281h201q69 0 108 38t39 102q0 65 -39 103t-108 38h-201z" />
    <glyph glyph-name="uni045A" unicode="&#x45a;" horiz-adv-x="832" 
d="M100 0h-10v500h10v-222h334v222h10v-222h203q68 0 106.5 -37.5t38.5 -101.5t-38.5 -101.5t-106.5 -37.5h-213v268h-334v-268zM444 268v-258h203q63 0 99 34.5t36 94.5t-36 94.5t-99 34.5h-203z" />
    <glyph glyph-name="uni045B" unicode="&#x45b;" horiz-adv-x="564" 
d="M110 0h-10v567h-91v10h91v128h10v-128h255v-10h-255v-254q94 106 204 106q76 0 123 -48.5t47 -135.5v-235h-10v231q0 85 -44 131.5t-116 46.5q-111 0 -204 -111v-298z" />
    <glyph glyph-name="uni045C" unicode="&#x45c;" horiz-adv-x="498" 
d="M100 0h-10v500h10v-242h132l200 242h9v-5l-199 -241l206 -249v-5h-9l-204 248h-135v-248zM244 590h-13l127 140h9v-5z" />
    <glyph glyph-name="uni045E" unicode="&#x45e;" horiz-adv-x="490" 
d="M184 -160h-9v5l65 155l-210 495v5h9l206 -489l206 489h9v-5zM245 571q-66 0 -105.5 37t-39.5 100v12h10v-11q0 -59 37 -93.5t98 -34.5t98 34.5t37 93.5v11h10v-12q0 -63 -39.5 -100t-105.5 -37z" />
    <glyph glyph-name="uni045F" unicode="&#x45f;" horiz-adv-x="560" 
d="M285 -126h-10v126h-185v500h10v-490h360v490h10v-500h-185v-126z" />
    <glyph glyph-name="uni0490" unicode="&#x490;" horiz-adv-x="548" 
d="M110 0h-10v700h388v130h10v-140h-388v-690z" />
    <glyph glyph-name="uni0491" unicode="&#x491;" horiz-adv-x="440" 
d="M100 0h-10v500h290v121h10v-131h-290v-490z" />
    <glyph glyph-name="uni1E61" unicode="&#x1e61;" horiz-adv-x="523" 
d="M269 -12q-55 -2 -100.5 15t-76.5 58.5t-32 101.5h10q0 -59 31 -97q56 -68 168 -68q80 0 127 34.5t47 90.5q0 47 -30 72t-104 44l-102 27q-69 18 -96.5 44.5t-27.5 76.5q0 55 47.5 90t129.5 35q87 0 138 -43.5t51 -126.5h-10q0 78 -48 119t-131 41q-78 0 -122.5 -31.5
t-44.5 -83.5q0 -45 25.5 -69.5t89.5 -41.5l102 -27q81 -22 112 -48t31 -78q0 -61 -48.5 -98t-135.5 -37zM269 595h-10v110h10v-110z" />
    <glyph glyph-name="uni1E63" unicode="&#x1e63;" horiz-adv-x="523" 
d="M269 -12q-55 -2 -100.5 15t-76.5 58.5t-32 101.5h10q0 -59 31 -97q56 -68 168 -68q80 0 127 34.5t47 90.5q0 47 -30 72t-104 44l-102 27q-69 18 -96.5 44.5t-27.5 76.5q0 55 47.5 90t129.5 35q87 0 138 -43.5t51 -126.5h-10q0 78 -48 119t-131 41q-78 0 -122.5 -31.5
t-44.5 -83.5q0 -45 25.5 -69.5t89.5 -41.5l102 -27q81 -22 112 -48t31 -78q0 -61 -48.5 -98t-135.5 -37zM271 -182h-10v110h10v-110z" />
    <glyph glyph-name="endash" unicode="&#x2013;" horiz-adv-x="571" 
d="M501 308h-431v10h431v-10z" />
    <glyph glyph-name="emdash" unicode="&#x2014;" horiz-adv-x="794" 
d="M724 308h-654v10h654v-10z" />
    <glyph glyph-name="quoteleft" unicode="&#x2018;" horiz-adv-x="159" 
d="M110 705h9v-5l-85 -200h-9v5z" />
    <glyph glyph-name="quoteright" unicode="&#x2019;" horiz-adv-x="159" 
d="M34 500h-9v5l85 200h9v-5z" />
    <glyph glyph-name="quotesinglbase" unicode="&#x201a;" horiz-adv-x="169" 
d="M34 -82h-9v5l85 200h9v-5z" />
    <glyph glyph-name="quotedblleft" unicode="&#x201c;" horiz-adv-x="323" 
d="M274 705h9v-5l-85 -200h-9v5zM110 705h9v-5l-85 -200h-9v5z" />
    <glyph glyph-name="quotedblright" unicode="&#x201d;" horiz-adv-x="323" 
d="M34 500h-9v5l85 200h9v-5zM198 500h-9v5l85 200h9v-5z" />
    <glyph glyph-name="quotedblbase" unicode="&#x201e;" horiz-adv-x="333" 
d="M34 -82h-9v5l85 200h9v-5zM198 -82h-9v5l85 200h9v-5z" />
    <glyph glyph-name="dagger" unicode="&#x2020;" horiz-adv-x="516" 
d="M263 -160h-10v625h-213v10h213v230h10v-230h213v-10h-213v-625z" />
    <glyph glyph-name="daggerdbl" unicode="&#x2021;" horiz-adv-x="516" 
d="M263 -160h-10v336h-213v10h213v279h-213v10h213v230h10v-230h213v-10h-213v-279h213v-10h-213v-336z" />
    <glyph glyph-name="bullet" unicode="&#x2022;" horiz-adv-x="311" 
d="M156 234q-40 0 -63 22t-23 61v6q0 39 23 61t63 22t62.5 -21.5t22.5 -61.5v-6q0 -39 -23 -61t-62 -22z" />
    <glyph glyph-name="ellipsis" unicode="&#x2026;" horiz-adv-x="642" 
d="M90 0h-10v123h10v-123zM326 0h-10v123h10v-123zM562 0h-10v123h10v-123z" />
    <glyph glyph-name="perthousand" unicode="&#x2030;" horiz-adv-x="1058" 
d="M189 358q62 0 96 34t34 89v100q0 56 -34 90t-96 34q-60 0 -94.5 -34t-34.5 -90v-100q0 -56 34.5 -89.5t94.5 -33.5zM189 348q-65 0 -102 37t-37 97v99q0 61 37 97.5t102 36.5q67 0 103.5 -36.5t36.5 -97.5v-99q0 -61 -36.5 -97.5t-103.5 -36.5zM181 0h-9v5l385 695h9v-5z
M551 -5q62 0 96 34t34 89v100q0 56 -34 90t-96 34q-60 0 -94.5 -34t-34.5 -90v-100q0 -56 34.5 -89.5t94.5 -33.5zM551 -15q-65 0 -102 36.5t-37 97.5v99q0 60 37 97t102 37q67 0 103.5 -36.5t36.5 -97.5v-99q0 -61 -36.5 -97.5t-103.5 -36.5zM868 -5q62 0 96 34t34 89v100
q0 56 -34 90t-96 34q-60 0 -94.5 -34t-34.5 -90v-100q0 -56 34.5 -89.5t94.5 -33.5zM868 -15q-66 0 -102.5 36.5t-36.5 97.5v99q0 60 36.5 97t102.5 37q67 0 103.5 -36.5t36.5 -97.5v-99q0 -61 -36.5 -97.5t-103.5 -36.5z" />
    <glyph glyph-name="guilsinglleft" unicode="&#x2039;" horiz-adv-x="331" 
d="M263 62h-10l-193 202l194 203h10v-5l-189 -198l188 -197v-5z" />
    <glyph glyph-name="guilsinglright" unicode="&#x203a;" horiz-adv-x="331" 
d="M77 467l194 -203l-193 -202h-10v5l188 197l-189 198v5h10z" />
    <glyph glyph-name="fraction" unicode="&#x2044;" horiz-adv-x="314" 
d="M-31 0h-9v5l385 695h9v-5z" />
    <glyph glyph-name="fourinferior" unicode="&#x2084;" horiz-adv-x="347" 
d="M30 455l134 245h10v-5l-131 -240h203v102h10v-102h71v-10h-71v-87h-10v87h-216v10z" />
    <glyph glyph-name="Euro" unicode="&#x20ac;" horiz-adv-x="662" 
d="M359 -15q-113 0 -178.5 67t-65.5 185v32h-85v10h85v141h-85v10h85v33q0 118 65.5 185t178.5 67q98 0 165 -61q68 -60 68 -166v-10h-10v10q0 100 -65 159q-64 58 -158 58q-109 0 -171.5 -64.5t-62.5 -177.5v-33h299v-10h-299v-141h299v-10h-299v-32q0 -113 62.5 -177.5
t171.5 -64.5q94 0 158 58q65 59 65 159v10h10v-10q0 -105 -68 -167q-68 -60 -165 -60z" />
    <glyph glyph-name="uni20B4" unicode="&#x20b4;" horiz-adv-x="623" 
d="M302 -15q-102 0 -158 49q-56 50 -56 126q0 62 38 108h-86v10h543v-10h-443q-42 -44 -42 -108q0 -72 54 -118q56 -47 150 -47q83 0 144 46t75 143h10q-14 -101 -77 -150q-62 -49 -152 -49zM583 419h-543v10h426q46 47 46 117q0 65 -53 112t-142 47q-88 0 -145.5 -48
t-68.5 -141h-10q10 97 69.5 148t154.5 51q94 0 149 -49q56 -48 56 -120q0 -68 -43 -117h104v-10z" />
    <glyph glyph-name="uni20BD" unicode="&#x20bd;" horiz-adv-x="630" 
d="M145 0h-10v149h-97v10h97v141h-97v10h97v390h257q86 0 134.5 -53.5t48.5 -146.5t-48.5 -146.5t-134.5 -53.5h-247v-141h231v-10h-231v-149zM145 690v-380h247q81 0 127 51t46 139t-46 139t-127 51h-247z" />
    <glyph glyph-name="uni2116" unicode="&#x2116;" horiz-adv-x="1001" 
d="M110 0h-10v700h10l416 -680v680h10v-700h-9l-417 680v-680zM781 358q62 0 96 34t34 89v100q0 56 -34 90t-96 34q-60 0 -94.5 -34t-34.5 -90v-100q0 -56 34.5 -89.5t94.5 -33.5zM781 348q-65 0 -102 37t-37 97v99q0 61 37 97.5t102 36.5q67 0 103.5 -36.5t36.5 -97.5v-99
q0 -61 -36.5 -97.5t-103.5 -36.5zM921 237h-279v10h279v-10z" />
    <glyph glyph-name="trademark" unicode="&#x2122;" horiz-adv-x="645" 
d="M302 377h-10v323h10l129 -179l131 179h10v-323h-10v307l-126 -172h-10l-124 172v-307zM138 377h-10v313h-108v10h226v-10h-108v-313z" />
    <glyph glyph-name="Omega" unicode="&#x2126;" horiz-adv-x="708" 
d="M305 0h-220v10h175q-76 23 -118 84t-42 151v222q0 116 68 182t186 66t186 -66t68 -182v-222q0 -90 -42 -150.5t-118 -84.5h175v-10h-220v10q91 13 143 75t52 160v222q0 111 -65 174.5t-179 63.5t-179 -63.5t-65 -174.5v-222q0 -98 52 -160t143 -75v-10z" />
    <glyph glyph-name="partialdiff" unicode="&#x2202;" horiz-adv-x="530" 
d="M232 -12q-86 0 -134 45.5t-48 121.5l9 105q8 86 57.5 136t132.5 50q108 0 195 -106q6 105 6 124q0 113 -50.5 173t-149.5 60q-58 0 -112 -16l1 11q48 15 111 15q210 0 210 -243q0 -38 -21 -290q-7 -85 -61.5 -135.5t-145.5 -50.5zM234 -2q85 0 136.5 48t58.5 128l14 152
q-90 110 -195 110q-77 0 -124 -47t-55 -129q-9 -95 -9 -103q0 -72 46 -115.5t128 -43.5z" />
    <glyph glyph-name="increment" unicode="&#x2206;" horiz-adv-x="650" 
d="M620 0h-590v5l289 695h12l289 -695v-5zM325 689l-282 -679h564z" />
    <glyph glyph-name="product" unicode="&#x220f;" horiz-adv-x="674" 
d="M110 -75h-10v775h474v-775h-10v765h-454v-765z" />
    <glyph glyph-name="summation" unicode="&#x2211;" horiz-adv-x="539" 
d="M479 -75h-419v10l217 380l-217 375v10h408v-10h-395l217 -375l-217 -380h406v-10z" />
    <glyph glyph-name="minus" unicode="&#x2212;" horiz-adv-x="498" 
d="M448 308h-398v10h398v-10z" />
    <glyph glyph-name="radical" unicode="&#x221a;" horiz-adv-x="585" 
d="M322 -75h-10l-178 453h-123v10h130l175 -447l243 856h9v-5z" />
    <glyph glyph-name="infinity" unicode="&#x221e;" horiz-adv-x="838" 
d="M219 139q-66 0 -107.5 48t-41.5 126t41.5 126t107.5 48q36 0 68 -21q30 -18 55 -46q21 -23 65 -82l12 -16l12 16q50 67 64 82q59 67 124 67q66 0 107.5 -48t41.5 -126t-41.5 -126t-107.5 -48q-35 0 -69 20q-33 22 -55 47q-14 15 -64 82l-12 16l-12 -16q-44 -59 -65 -82
q-56 -67 -123 -67zM220 149q43 0 81.5 31.5t97.5 112.5l15 20l-15 20q-60 78 -96 110q-37 34 -83 34q-63 0 -101.5 -46t-38.5 -118q0 -73 38.5 -118.5t101.5 -45.5zM618 149q63 0 101.5 45.5t38.5 118.5q0 72 -38.5 118t-101.5 46q-46 0 -83 -34q-36 -32 -96 -110l-15 -20
l15 -20q57 -79 96 -111.5t83 -32.5z" />
    <glyph glyph-name="integral" unicode="&#x222b;" horiz-adv-x="332" 
d="M23 -160h-33v10h31q64 0 102 40.5t38 111.5v536q0 75 40 118.5t108 43.5h33v-10h-31q-64 0 -102 -40.5t-38 -111.5v-536q0 -75 -40 -118.5t-108 -43.5z" />
    <glyph glyph-name="approxequal" unicode="&#x2248;" horiz-adv-x="451" 
d="M58 411l-8 6q50 77 99 77q27 0 69 -30l22 -16q36 -27 63 -27q44 0 90 73l8 -6q-47 -77 -99 -77q-27 0 -69 30l-22 16q-37 27 -63 27q-44 0 -90 -73zM58 201l-8 6q50 77 99 77q27 0 69 -30l22 -16q36 -27 63 -27q44 0 90 73l8 -6q-47 -77 -99 -77q-27 0 -69 30l-22 16
q-37 27 -63 27q-44 0 -90 -73z" />
    <glyph glyph-name="notequal" unicode="&#x2260;" horiz-adv-x="536" 
d="M79 0h-9v5l123 195h-123v10h130l131 207h-261v10h267l120 189h9v-5l-117 -184h117v-10h-123l-131 -207h254v-10h-261z" />
    <glyph glyph-name="lessequal" unicode="&#x2264;" horiz-adv-x="460" 
d="M410 124h-10l-350 194v10l350 194h10v-5l-349 -194l349 -194v-5zM410 38h-360v10h360v-10z" />
    <glyph glyph-name="greaterequal" unicode="&#x2265;" horiz-adv-x="460" 
d="M60 124h-10v5l349 194l-349 194v5h10l350 -194v-10zM410 38h-360v10h360v-10z" />
    <glyph glyph-name="lozenge" unicode="&#x25ca;" horiz-adv-x="524" 
d="M267 0h-10l-197 350l197 350h10l197 -350zM72 350l190 -340l190 340l-190 340z" />
    <glyph glyph-name="uniF64E" unicode="&#xf64e;" horiz-adv-x="543" 
d="M286 -12q-91 0 -142.5 51t-51.5 135v13h-69v10h69v98h-69v10h69v21q0 84 51.5 135t142.5 51q89 0 141.5 -46.5t52.5 -120.5v-4h-10v4q0 70 -49.5 113.5t-134.5 43.5t-134.5 -48.5t-49.5 -127.5v-21h221v-10h-221v-98h221v-10h-221v-13q0 -79 49.5 -127.5t134.5 -48.5
t134.5 44t49.5 115v5h10v-5q0 -75 -52.5 -122t-141.5 -47z" />
    <glyph glyph-name="uniF653" unicode="&#xf653;" horiz-adv-x="523" 
d="M269 -89h-10v77q-83 3 -142 45q-57 43 -57 130h10q0 -59 31 -97q56 -68 168 -68q80 0 127 34.5t47 90.5q0 47 -30 72t-104 44l-102 27q-69 18 -96.5 44.5t-27.5 76.5q0 55 48 90t128 35v76h10v-76q82 -2 131 -46t49 -124h-10q0 78 -48 119t-131 41q-78 0 -122.5 -31.5
t-44.5 -83.5q0 -45 25.5 -69.5t89.5 -41.5l102 -27q81 -22 112 -48t31 -78q0 -61 -48.5 -98t-135.5 -37v-77z" />
    <glyph glyph-name="commaaccent" unicode="&#xf6c3;" horiz-adv-x="127" 
d="M29 -235h-9v5l78 163h9v-5z" />
    <glyph glyph-name="uniF721" unicode="&#xf721;" horiz-adv-x="546" 
d="M271 -12q-80 0 -126.5 35t-46.5 91q0 42 28 76h-76v10h446v-10h-356q-32 -35 -32 -76q0 -51 44 -83.5t119 -32.5q70 0 117.5 33.5t56.5 99.5h11q-9 -70 -59.5 -106.5t-125.5 -36.5zM496 298h-446v10h354q34 35 34 79q0 51 -42 83t-115 32q-70 0 -116.5 -33.5t-52.5 -99.5
h-10q8 70 56 106.5t125 36.5q75 0 120 -35t45 -90q0 -44 -31 -79h79v-10z" />
    <glyph glyph-name="uniF722" unicode="&#xf722;" horiz-adv-x="520" 
d="M110 0h-10v91h-77v10h77v98h-77v10h77v291h223q74 0 115.5 -40.5t41.5 -109.5q0 -70 -41.5 -110.5t-115.5 -40.5h-213v-98h203v-10h-203v-91zM110 490v-281h213q69 0 108 38t39 103q0 64 -39 102t-108 38h-213z" />
    <glyph glyph-name="uniF725" unicode="&#xf725;" horiz-adv-x="502" 
d="M452 0h-429v10h75v227h-75v10h75v79q0 84 47 135t130 51q81 0 129 -46.5t48 -120.5v-4h-10v4q0 70 -45 113.5t-122 43.5t-122 -48.5t-45 -127.5v-79h197v-10h-197v-227h344v-10z" />
    <glyph glyph-name="uniF727" unicode="&#xf727;" horiz-adv-x="499" 
d="M254 0h-10v91h-165v10h165v98h-165v10h158l-192 286v5h9l194 -291h1l196 291h9v-5l-193 -286h149v-10h-156v-98h156v-10h-156v-91z" />
    <glyph glyph-name="NULL" horiz-adv-x="0" 
 />
    <glyph glyph-name="CR" horiz-adv-x="333" 
 />
    <glyph glyph-name="brevecap" horiz-adv-x="438" 
d="M219 742q-66 0 -105.5 37t-39.5 100v9h10v-8q0 -59 37 -93.5t98 -34.5t98 34.5t37 93.5v8h10v-9q0 -63 -39.5 -100t-105.5 -37z" />
    <glyph glyph-name="zero.onum" 
d="M261 -2q88 0 136 48t48 128v152q0 80 -48 128t-136 48q-86 0 -135 -48.5t-49 -127.5v-152q0 -79 49 -127.5t135 -48.5zM261 -12q-91 0 -142.5 51t-51.5 135v152q0 84 51.5 135t142.5 51q93 0 143.5 -50.5t50.5 -135.5v-152q0 -85 -50.5 -135.5t-143.5 -50.5z" />
    <glyph glyph-name="one.onum" horiz-adv-x="240" 
d="M140 0h-10v490h-94v5l4 5h100v-500z" />
    <glyph glyph-name="two.onum" horiz-adv-x="537" 
d="M486 0h-416v10l180 112l43 25l49 30q10 6 43 32q26 20 40 39q36 45 36 98q0 71 -52 113q-52 43 -133 43q-86 0 -141 -46q-56 -47 -56 -129h-10q0 86 59 136q58 49 148 49q85 0 140 -46q55 -45 55 -120q0 -28 -12 -57q-21 -51 -67 -87q-25 -21 -44 -33l-50 -30l-42 -25
l-168 -104h398v-10z" />
    <glyph glyph-name="three.onum" horiz-adv-x="557" 
d="M281 -172q-96 0 -158 50q-60 49 -63 136h10q3 -81 60.5 -128.5t150.5 -47.5q92 0 144 48.5t52 134.5q0 72 -47.5 116.5t-125.5 44.5h-71v10h74q69 0 109.5 41t40.5 108t-50 114t-134 47q-88 0 -140.5 -50t-52.5 -139h-10q0 93 55 146t148 53q88 0 141 -50t53 -121
q0 -63 -33.5 -104t-88.5 -50q64 -12 103 -55.5t39 -110.5q0 -91 -54 -142t-152 -51z" />
    <glyph glyph-name="four.onum" horiz-adv-x="533" 
d="M400 -160h-10v160h-340v10l306 490h9v-5l-302 -485h327v201h10v-201h103v-10h-103v-160z" />
    <glyph glyph-name="five.onum" horiz-adv-x="567" 
d="M288 -172q-88 0 -145 47.5t-70 132.5h11q13 -80 67.5 -125t136.5 -45q93 0 146 57t53 152q0 101 -52 154t-144 53q-49 0 -94 -20t-73 -53h-9l28 319h313v-10h-304l-26 -292q63 66 164 66q98 0 152.5 -55.5t54.5 -161.5q0 -99 -55 -158q-55 -61 -154 -61z" />
    <glyph glyph-name="six.onum" horiz-adv-x="560" 
d="M65 204q0 53 15 92q16 40 51 96l195 308h9v-5l-212 -334q57 60 161 60q101 0 156 -58t55 -159q0 -100 -56 -158t-159 -58t-159 58t-56 158zM485 204q0 97 -52 152t-149 55q-90 0 -150 -54q-59 -54 -59 -153q0 -95 53.5 -150.5t151.5 -55.5t151.5 55.5t53.5 150.5z" />
    <glyph glyph-name="seven.onum" horiz-adv-x="523" 
d="M224 -160h-8v5l245 645h-391v-175h-10v185h413v-10z" />
    <glyph glyph-name="eight.onum" horiz-adv-x="594" 
d="M70 184q0 75 43.5 122.5t113.5 60.5q-57 10 -94.5 53.5t-37.5 110.5q0 83 53.5 133.5t148.5 50.5t148.5 -50.5t53.5 -133.5q0 -67 -37.5 -110.5t-94.5 -53.5q70 -13 113.5 -60.5t43.5 -122.5q0 -93 -59 -146t-168 -53t-168 53t-59 146zM296 -5q106 0 162 51t56 138
q0 74 -51 126q-49 52 -154 52h-24q-104 0 -155 -52q-50 -53 -50 -126q0 -87 55.5 -138t160.5 -51zM285 372h24q90 0 135 43.5t45 120.5q0 76 -51.5 122.5t-140.5 46.5t-140.5 -47t-51.5 -122q0 -77 45 -120.5t135 -43.5z" />
    <glyph glyph-name="nine.onum" horiz-adv-x="560" 
d="M261 -160h-9v5l185 294q-57 -60 -161 -60q-101 0 -156 58t-55 159q0 100 56 158t159 58t159 -58t56 -158q0 -54 -16 -93q-15 -38 -50 -95zM276 89q90 0 149 54q60 54 60 153q0 95 -53.5 150.5t-151.5 55.5t-151.5 -55.5t-53.5 -150.5q0 -97 52 -152t149 -55z" />
    <glyph glyph-name="zero.onum.mono" horiz-adv-x="588" 
d="M294 -12q-91 0 -142.5 51t-51.5 135v152q0 84 51.5 135t142.5 51q93 0 143.5 -50.5t50.5 -135.5v-152q0 -85 -50.5 -135.5t-143.5 -50.5zM110 326v-152q0 -68 35 -112l294 382q-49 58 -145 58q-85 0 -134.5 -48.5t-49.5 -127.5zM294 -2q88 0 136 48t48 128v152
q0 62 -32 109l-295 -381q48 -56 143 -56z" />
    <glyph glyph-name="one.onum.mono" horiz-adv-x="588" 
d="M482 0h-376v10h183v480h-134v5l4 5h140v-490h183v-10z" />
    <glyph glyph-name="two.onum.mono" horiz-adv-x="588" 
d="M508 0h-416v10l180 112l43 25l49 30q10 6 43 32q26 20 40 39q36 45 36 98q0 71 -52 113q-52 43 -133 43q-86 0 -141 -46q-56 -47 -56 -129h-10q0 86 59 136q58 49 148 49q85 0 140 -46q55 -45 55 -120q0 -28 -12 -57q-21 -51 -67 -87q-25 -21 -44 -33l-50 -30l-42 -25
l-168 -104h398v-10z" />
    <glyph glyph-name="three.onum.mono" horiz-adv-x="588" 
d="M301 -172q-96 0 -158 50q-60 49 -63 136h10q3 -81 60.5 -128.5t150.5 -47.5q92 0 144 48.5t52 134.5q0 72 -47.5 116.5t-125.5 44.5h-71v10h74q69 0 109.5 41t40.5 108t-50 114t-134 47q-88 0 -140.5 -50t-52.5 -139h-10q0 93 55 146t148 53q88 0 141 -50t53 -121
q0 -63 -33.5 -104t-88.5 -50q64 -12 103 -55.5t39 -110.5q0 -91 -54 -142t-152 -51z" />
    <glyph glyph-name="four.onum.mono" horiz-adv-x="588" 
d="M420 -160h-10v160h-340v10l306 490h9v-5l-302 -485h327v201h10v-201h103v-10h-103v-160z" />
    <glyph glyph-name="five.onum.mono" horiz-adv-x="588" 
d="M298 -172q-88 0 -145 47.5t-70 132.5h11q13 -80 67.5 -125t136.5 -45q93 0 146 57t53 152q0 101 -52 154t-144 53q-49 0 -94 -20t-73 -53h-9l28 319h313v-10h-304l-26 -292q63 66 164 66q98 0 152.5 -55.5t54.5 -161.5q0 -99 -55 -158q-55 -61 -154 -61z" />
    <glyph glyph-name="six.onum.mono" horiz-adv-x="588" 
d="M80 201q0 53 15 92q17 41 51 96l195 311h9v-5l-212 -337q57 60 161 60q101 0 156 -58t55 -159q0 -100 -56 -158t-159 -58t-159 58t-56 158zM500 201q0 97 -52 152t-149 55q-90 0 -150 -54q-59 -54 -59 -153q0 -95 53.5 -150.5t151.5 -55.5t151.5 55.5t53.5 150.5z" />
    <glyph glyph-name="seven.onum.mono" horiz-adv-x="588" 
d="M254 -160h-8v5l245 645h-391v-175h-10v185h413v-10z" />
    <glyph glyph-name="eight.onum.mono" horiz-adv-x="588" 
d="M67 184q0 75 43.5 122.5t113.5 60.5q-57 10 -94.5 53.5t-37.5 110.5q0 83 53.5 133.5t148.5 50.5t148.5 -50.5t53.5 -133.5q0 -67 -37.5 -110.5t-94.5 -53.5q70 -13 113.5 -60.5t43.5 -122.5q0 -93 -59 -146t-168 -53t-168 53t-59 146zM293 -5q106 0 162 51t56 138
q0 74 -51 126q-49 52 -154 52h-24q-104 0 -155 -52q-50 -53 -50 -126q0 -87 55.5 -138t160.5 -51zM282 372h24q90 0 135 43.5t45 120.5q0 76 -51.5 122.5t-140.5 46.5t-140.5 -47t-51.5 -122q0 -77 45 -120.5t135 -43.5z" />
    <glyph glyph-name="nine.onum.mono" horiz-adv-x="588" 
d="M274 -160h-9v5l185 294q-57 -60 -161 -60q-101 0 -156 58t-55 159q0 100 56 158t159 58t159 -58t56 -158q0 -54 -16 -93q-15 -38 -50 -95zM289 89q91 0 149 54q60 54 60 153q0 95 -53.5 150.5t-151.5 55.5t-151.5 -55.5t-53.5 -150.5q0 -97 52 -152t149 -55z" />
    <glyph glyph-name="uniF653.mono" horiz-adv-x="588" 
d="M293 -89h-10v77q-83 3 -142 45q-57 43 -57 130h10q0 -59 31 -97q56 -68 168 -68q80 0 127 34.5t47 90.5q0 47 -30 72t-104 44l-102 27q-69 18 -96.5 44.5t-27.5 76.5q0 55 48 90t128 35v76h10v-76q82 -2 131 -46t49 -124h-10q0 78 -48 119t-131 41q-78 0 -122.5 -31.5
t-44.5 -83.5q0 -45 25.5 -69.5t89.5 -41.5l102 -27q81 -22 112 -48t31 -78q0 -61 -48.5 -98t-135.5 -37v-77z" />
    <glyph glyph-name="uniF64E.mono" horiz-adv-x="588" 
d="M310 -12q-91 0 -142.5 51t-51.5 135v13h-69v10h69v98h-69v10h69v21q0 84 51.5 135t142.5 51q89 0 141.5 -46.5t52.5 -120.5v-4h-10v4q0 70 -49.5 113.5t-134.5 43.5t-134.5 -48.5t-49.5 -127.5v-21h221v-10h-221v-98h221v-10h-221v-13q0 -79 49.5 -127.5t134.5 -48.5
t134.5 44t49.5 115v5h10v-5q0 -75 -52.5 -122t-141.5 -47z" />
    <glyph glyph-name="uniF725.mono" horiz-adv-x="588" 
d="M492 0h-429v10h75v227h-75v10h75v79q0 84 47 135t130 51q81 0 129 -46.5t48 -120.5v-4h-10v4q0 70 -45 113.5t-122 43.5t-122 -48.5t-45 -127.5v-79h197v-10h-197v-227h344v-10z" />
    <glyph glyph-name="uniF727.mono" horiz-adv-x="588" 
d="M298 0h-10v91h-165v10h165v98h-165v10h158l-192 286v5h9l194 -291h1l196 291h9v-5l-193 -286h149v-10h-156v-98h156v-10h-156v-91z" />
    <glyph glyph-name="uniF722.mono" horiz-adv-x="588" 
d="M138 0h-10v91h-77v10h77v98h-77v10h77v291h223q74 0 115.5 -40.5t41.5 -109.5q0 -70 -41.5 -110.5t-115.5 -40.5h-213v-98h203v-10h-203v-91zM138 490v-281h213q69 0 108 38t39 103q0 64 -39 102t-108 38h-213z" />
    <glyph glyph-name="uniF721.mono" horiz-adv-x="588" 
d="M283 -12q-80 0 -126.5 35t-46.5 91q0 42 28 76h-76v10h446v-10h-356q-32 -35 -32 -76q0 -51 44 -83.5t119 -32.5q70 0 117.5 33.5t56.5 99.5h11q-9 -70 -59.5 -106.5t-125.5 -36.5zM508 298h-446v10h354q34 35 34 79q0 51 -42 83t-115 32q-70 0 -116.5 -33.5t-52.5 -99.5
h-10q8 70 56 106.5t125 36.5q75 0 120 -35t45 -90q0 -44 -31 -79h79v-10z" />
    <glyph glyph-name="zero.mono" horiz-adv-x="588" 
d="M81 193v314q0 98 57 153t156 55t156 -55t57 -153v-314q0 -98 -57 -153t-156 -55t-156 55t-57 153zM91 508v-315q0 -72 32 -119l337 559q-54 73 -166 73q-94 0 -148.5 -52.5t-54.5 -145.5zM294 -5q94 0 148.5 52.5t54.5 145.5v315q0 66 -30 115l-337 -559q54 -69 164 -69z
" />
    <glyph glyph-name="one.mono" horiz-adv-x="588" 
d="M482 0h-376v10h183v680h-134v5l4 5h140v-690h183v-10z" />
    <glyph glyph-name="two.mono" horiz-adv-x="588" 
d="M499 0h-416v10l212 217q86 88 116 133q54 80 54 153q0 89 -51.5 140.5t-135.5 51.5t-140 -53q-55 -52 -55 -149h-10q0 101 58 156q59 56 147 56q89 0 143 -54t54 -148q0 -85 -59 -164q-28 -39 -50 -62q-42 -45 -52 -55l-12 -12l-205 -210h402v-10z" />
    <glyph glyph-name="three.mono" horiz-adv-x="588" 
d="M70 184h10q3 -87 60.5 -138t150.5 -51q92 0 144 51.5t52 144.5q0 75 -48 123q-46 49 -125 49h-71v10h74q71 0 112.5 43.5t41.5 115.5q0 73 -50 123q-49 51 -134 51q-88 0 -140.5 -54t-52.5 -149h-10q0 99 55 155.5t148 56.5q89 0 142 -53q52 -52 52 -130
q0 -67 -35 -110.5t-91 -53.5q64 -12 103 -59t39 -118q0 -97 -54.5 -151.5t-151.5 -54.5q-96 0 -158 53q-60 54 -63 146z" />
    <glyph glyph-name="four.mono" horiz-adv-x="588" 
d="M420 0h-10v183h-350v10l306 507h9v-5l-302 -502h337v218h10v-218h103v-10h-103v-183z" />
    <glyph glyph-name="five.mono" horiz-adv-x="588" 
d="M298 -15q-88 0 -145 49.5t-70 138.5h11q13 -84 67.5 -131t136.5 -47q94 0 146.5 59.5t52.5 159.5q0 106 -52 161t-144 55q-103 0 -167 -76h-9l28 346h313v-10h-304l-26 -319q28 31 72.5 50t91.5 19q98 0 152.5 -58t54.5 -168q0 -104 -55.5 -166.5t-153.5 -62.5z" />
    <glyph glyph-name="six.mono" horiz-adv-x="588" 
d="M80 201q0 53 15 92q17 41 51 96l195 311h9v-5l-212 -337q57 60 161 60q101 0 156 -58t55 -159q0 -100 -56 -158t-159 -58t-159 58t-56 158zM500 201q0 97 -52 152t-149 55q-90 0 -150 -54q-59 -54 -59 -153q0 -95 53.5 -150.5t151.5 -55.5t151.5 55.5t53.5 150.5z" />
    <glyph glyph-name="seven.mono" horiz-adv-x="588" 
d="M238 0h-8v5l261 685h-391v-175h-10v185h413v-10z" />
    <glyph glyph-name="eight.mono" horiz-adv-x="588" 
d="M67 184q0 75 43.5 122.5t113.5 60.5q-57 10 -94.5 53.5t-37.5 110.5q0 83 53.5 133.5t148.5 50.5t148.5 -50.5t53.5 -133.5q0 -67 -37.5 -110.5t-94.5 -53.5q70 -13 113.5 -60.5t43.5 -122.5q0 -93 -59 -146t-168 -53t-168 53t-59 146zM293 -5q106 0 162 51t56 138
q0 74 -51 126q-49 52 -154 52h-24q-104 0 -155 -52q-50 -53 -50 -126q0 -87 55.5 -138t160.5 -51zM282 372h24q90 0 135 43.5t45 120.5q0 76 -51.5 122.5t-140.5 46.5t-140.5 -47t-51.5 -122q0 -77 45 -120.5t135 -43.5z" />
    <glyph glyph-name="nine.mono" horiz-adv-x="588" 
d="M247 0h-9v5l212 337q-57 -60 -161 -60q-101 0 -156 58t-55 159q0 100 56 158t159 58t159 -58t56 -158q0 -54 -16 -93q-15 -38 -50 -95zM88 499q0 -97 52 -152t149 -55q91 0 149 54q60 54 60 153q0 95 -53.5 150.5t-151.5 55.5t-151.5 -55.5t-53.5 -150.5z" />
    <glyph glyph-name="dollar.mono" horiz-adv-x="588" 
d="M44 227h10q0 -115 75 -174q76 -58 179 -58q100 0 156 45.5t56 119.5q0 59 -36.5 97t-119.5 69l-126 48q-96 35 -133 71q-35 37 -35 102q0 76 58.5 122t158.5 46h4v95h10v-95q104 -4 165 -64t61 -172h-10q0 115 -66 171q-64 55 -164 55q-95 0 -151 -43.5t-56 -114.5
q0 -60 31 -92q31 -33 106 -61l124 -47q101 -38 144 -77q45 -39 45 -110q0 -79 -58 -127t-164 -48h-7v-95h-10v96q-48 2 -91 17t-78.5 43t-56.5 74.5t-21 106.5z" />
    <glyph glyph-name="Euro.mono" horiz-adv-x="588" 
d="M318 -15q-113 0 -178.5 67t-65.5 185v32h-85v10h85v141h-85v10h85v33q0 118 65.5 185t178.5 67q98 0 165 -61q68 -60 68 -166v-10h-10v10q0 100 -65 159q-64 58 -158 58q-109 0 -171.5 -64.5t-62.5 -177.5v-33h299v-10h-299v-141h299v-10h-299v-32q0 -113 62.5 -177.5
t171.5 -64.5q94 0 158 58q65 59 65 159v10h10v-10q0 -105 -68 -167q-67 -60 -165 -60z" />
    <glyph glyph-name="sterling.mono" horiz-adv-x="588" 
d="M521 0h-471v10h83v338h-83v10h83v171q0 84 51.5 135t142.5 51q89 0 141.5 -46.5t52.5 -120.5v-45h-10v45q0 70 -49.5 113.5t-134.5 43.5q-86 0 -135 -48t-49 -128v-171h219v-10h-219v-338h378v-10z" />
    <glyph glyph-name="yen.mono" horiz-adv-x="588" 
d="M299 0h-10v127h-220v10h220v141h-220v10h213l-266 407v5h9l269 -411l269 411h9v-5l-267 -407h214v-10h-220v-141h220v-10h-220v-127z" />
    <glyph glyph-name="uni20BD.mono" horiz-adv-x="588" 
d="M128 0h-10v149h-97v10h97v141h-97v10h97v390h257q86 0 134.5 -53.5t48.5 -146.5t-48.5 -146.5t-134.5 -53.5h-247v-141h231v-10h-231v-149zM128 690v-380h247q81 0 127 51t46 139t-46 139t-127 51h-247z" />
    <glyph glyph-name="uni20B4.mono" horiz-adv-x="588" 
d="M285 -15q-102 0 -158 49q-56 50 -56 126q0 62 38 108h-86v10h543v-10h-443q-42 -44 -42 -108q0 -72 54 -118q56 -47 150 -47q83 0 144 46t75 143h10q-14 -101 -77 -150q-62 -49 -152 -49zM566 419h-543v10h426q46 47 46 117q0 65 -53 112t-142 47q-88 0 -145.5 -48
t-68.5 -141h-10q10 97 69.5 148t154.5 51q94 0 149 -49q56 -48 56 -120q0 -68 -43 -117h104v-10z" />
    <glyph glyph-name="a.alt1" horiz-adv-x="553" 
d="M249 -12q-82 0 -128 51t-46 135v152q0 84 46 135t128 51q108 0 204 -106v94h10v-500h-10v94q-96 -106 -204 -106zM249 -2q103 0 204 110v284q-101 110 -204 110q-77 0 -120.5 -48t-43.5 -128v-152q0 -80 43.5 -128t120.5 -48z" />
    <glyph glyph-name="agrave.alt1" horiz-adv-x="553" 
d="M249 -12q-82 0 -128 51t-46 135v152q0 84 46 135t128 51q108 0 204 -106v94h10v-500h-10v94q-96 -106 -204 -106zM249 -2q103 0 204 110v284q-101 110 -204 110q-77 0 -120.5 -48t-43.5 -128v-152q0 -80 43.5 -128t120.5 -48zM341 590h-13l-123 135v5h9z" />
    <glyph glyph-name="aacute.alt1" horiz-adv-x="553" 
d="M249 -12q-82 0 -128 51t-46 135v152q0 84 46 135t128 51q108 0 204 -106v94h10v-500h-10v94q-96 -106 -204 -106zM249 -2q103 0 204 110v284q-101 110 -204 110q-77 0 -120.5 -48t-43.5 -128v-152q0 -80 43.5 -128t120.5 -48zM253 590h-13l127 140h9v-5z" />
    <glyph glyph-name="acircumflex.alt1" horiz-adv-x="553" 
d="M249 -12q-82 0 -128 51t-46 135v152q0 84 46 135t128 51q108 0 204 -106v94h10v-500h-10v94q-96 -106 -204 -106zM249 -2q103 0 204 110v284q-101 110 -204 110q-77 0 -120.5 -48t-43.5 -128v-152q0 -80 43.5 -128t120.5 -48zM164 590h-9v5l123 135h12l123 -135v-5h-9
l-120 132z" />
    <glyph glyph-name="atilde.alt1" horiz-adv-x="553" 
d="M112 632l-8 6q38 47 56 61q19 16 43 16q27 0 69 -30l22 -16q36 -27 63 -27q20 0 37 14t53 59l8 -6q-37 -46 -56 -61.5t-43 -15.5q-27 0 -69 30l-22 16q-37 27 -63 27q-21 0 -38 -14q-14 -11 -52 -59zM249 -12q-82 0 -128 51t-46 135v152q0 84 46 135t128 51
q108 0 204 -106v94h10v-500h-10v94q-96 -106 -204 -106zM249 -2q103 0 204 110v284q-101 110 -204 110q-77 0 -120.5 -48t-43.5 -128v-152q0 -80 43.5 -128t120.5 -48z" />
    <glyph glyph-name="adieresis.alt1" horiz-adv-x="553" 
d="M249 -12q-82 0 -128 51t-46 135v152q0 84 46 135t128 51q108 0 204 -106v94h10v-500h-10v94q-96 -106 -204 -106zM249 -2q103 0 204 110v284q-101 110 -204 110q-77 0 -120.5 -48t-43.5 -128v-152q0 -80 43.5 -128t120.5 -48zM192 595h-10v110h10v-110zM360 595h-10v110
h10v-110z" />
    <glyph glyph-name="aring.alt1" horiz-adv-x="553" 
d="M249 -12q-82 0 -128 51t-46 135v152q0 84 46 135t128 51q108 0 204 -106v94h10v-500h-10v94q-96 -106 -204 -106zM249 -2q103 0 204 110v284q-101 110 -204 110q-77 0 -120.5 -48t-43.5 -128v-152q0 -80 43.5 -128t120.5 -48zM214 610q26 -23 62 -23t62 23q26 24 26 58
t-26 57q-26 24 -62 24t-62 -24q-26 -23 -26 -57t26 -58zM345 603q-29 -26 -69 -26t-69 26q-29 27 -29 65t29 64q29 27 69 27t69 -27q29 -26 29 -64t-29 -65z" />
    <glyph glyph-name="amacron.alt1" horiz-adv-x="553" 
d="M249 -12q-82 0 -128 51t-46 135v152q0 84 46 135t128 51q108 0 204 -106v94h10v-500h-10v94q-96 -106 -204 -106zM249 -2q103 0 204 110v284q-101 110 -204 110q-77 0 -120.5 -48t-43.5 -128v-152q0 -80 43.5 -128t120.5 -48zM400 645h-233v10h233v-10z" />
    <glyph glyph-name="aogonek.alt1" horiz-adv-x="553" 
d="M249 -12q-82 0 -128 51t-46 135v152q0 84 46 135t128 51q108 0 204 -106v94h10v-500q-64 -46 -64 -89q0 -61 86 -61h47v-10h-50q-44 0 -68.5 18.5t-24.5 52.5q0 48 64 94v89q-96 -106 -204 -106zM249 -2q103 0 204 110v284q-101 110 -204 110q-77 0 -120.5 -48
t-43.5 -128v-152q0 -80 43.5 -128t120.5 -48z" />
    <glyph glyph-name="t.alt1" horiz-adv-x="372" 
d="M191 0h-10v490h-151v10h151v205h10v-205h151v-10h-151v-490z" />
    <glyph glyph-name="tcaron.alt1" horiz-adv-x="444" 
d="M191 0h-10v490h-151v10h151v205h10v-205h151v-10h-151v-490zM386 537h-9v5l78 163h9v-5z" />
    <glyph glyph-name="J.alt1" horiz-adv-x="555" 
d="M30 197v25h10v-25q0 -95 55.5 -148.5t151.5 -53.5q97 0 152.5 53.5t55.5 148.5v493h-298v10h308v-503q0 -99 -59 -155.5t-159 -56.5t-158.5 56.5t-58.5 155.5z" />
    <glyph glyph-name="ampersand.alt1" horiz-adv-x="626" 
d="M505 257h-111v10h232v-10h-111v-21q0 -116 -62 -184q-61 -67 -167 -67q-100 0 -164 56q-62 56 -62 152q0 81 45 131q48 51 110 61q-55 9 -89 49.5t-34 101.5q0 73 49 122t137 49q87 0 140 -43t63 -122h-10q-11 75 -60.5 115t-132.5 40t-130 -47q-46 -46 -46 -114
q0 -67 43.5 -106.5t123.5 -39.5h67v-10h-67q-91 0 -145 -51.5t-54 -135.5q0 -91 60 -145q62 -53 156 -53q101 0 160 65t59 176v21z" />
    <glyph glyph-name="ampersand.alt2" horiz-adv-x="580" 
d="M468 0h-242q-77 0 -121.5 49.5t-44.5 133.5q0 79 37 126t98 56q-50 13 -80 55t-30 109q0 80 43 125.5t120 45.5h104v-10h-104q-72 0 -112.5 -43t-40.5 -118t39 -118t108 -43h216v152h10v-152h72v-10h-72v-358zM229 10h229v348h-229q-75 0 -117 -46.5t-42 -127.5
q0 -80 42.5 -127t116.5 -47z" />
    <glyph glyph-name="at.alt1" horiz-adv-x="728" 
d="M434 -160h-92q-113 0 -183 62q-69 62 -69 162v417q0 101 69 162q70 62 183 62h44q113 0 183 -62q69 -61 69 -162v-371h-10v83q-104 -95 -211 -95q-72 0 -116.5 36t-44.5 104q0 74 53 112.5t155 38.5h164v90q0 98 -67 156q-66 60 -176 60h-42q-109 0 -177 -60
q-66 -59 -66 -156v-413q0 -98 66 -156q68 -60 177 -60h91v-10zM417 108q103 0 211 99v172h-164q-96 0 -147 -36t-51 -105q0 -63 42 -96.5t109 -33.5z" />
    <glyph glyph-name="uni0430.alt1" horiz-adv-x="553" 
d="M249 -12q-82 0 -128 51t-46 135v152q0 84 46 135t128 51q108 0 204 -106v94h10v-500h-10v94q-96 -106 -204 -106zM249 -2q103 0 204 110v284q-101 110 -204 110q-77 0 -120.5 -48t-43.5 -128v-152q0 -80 43.5 -128t120.5 -48z" />
    <glyph glyph-name="uni0423.alt1" horiz-adv-x="547" 
d="M123 0h-13v10h13q50 0 82.5 27t60.5 91l20 45l-266 522v5h9l262 -516l227 516h9v-5l-251 -568q-31 -71 -65 -99t-88 -28z" />
    <glyph glyph-name="uni040E.alt1" horiz-adv-x="547" 
d="M123 0h-13v10h13q50 0 82.5 27t60.5 91l20 45l-266 522v5h9l262 -516l227 516h9v-5l-251 -568q-31 -71 -65 -99t-88 -28zM276 742q-66 0 -105.5 37t-39.5 100v9h10v-8q0 -59 37 -93.5t98 -34.5t98 34.5t37 93.5v8h10v-9q0 -63 -39.5 -100t-105.5 -37z" />
    </font>
</defs>
</svg>
