<?xml version="1.0" standalone="no"?>
<!DOCTYPE svg PUBLIC "-//W3C//DTD SVG 1.1//EN" "http://www.w3.org/Graphics/SVG/1.1/DTD/svg11.dtd" >
<svg xmlns="http://www.w3.org/2000/svg" xmlns:xlink="http://www.w3.org/1999/xlink" version="1.1">
<metadata>
Created by FontForge 20161013 at Sat Mar 15 23:04:06 2014
 By ,,,
Copyright (c) 2013 by Gayane Bagdasaryan, Dmitry Rastvortsev. All rights reserved.
</metadata>
<defs>
<font id="BrutalType-ExtraLight" horiz-adv-x="593" >
  <font-face 
    font-family="Brutal Type"
    font-weight="250"
    font-stretch="normal"
    units-per-em="1000"
    panose-1="2 0 6 3 2 0 0 2 0 4"
    ascent="804"
    descent="-196"
    x-height="504"
    cap-height="700"
    bbox="-42 -240 1028 947"
    underline-thickness="50"
    underline-position="-200"
    unicode-range="U+0020-FB02"
  />
<missing-glyph horiz-adv-x="331" 
 />
    <glyph glyph-name="fi" unicode="fi" horiz-adv-x="522" 
d="M144 0h-30v477h-91v27h91v54q0 72 36 110.5t105 38.5q13 0 21 -1l12 -1v-28l-4 1q-3 0 -12 0.5t-14 0.5q-114 0 -114 -121v-54h290v-504h-30v477h-260v-477zM434 595h-30v110h30v-110z" />
    <glyph glyph-name="fl" unicode="fl" horiz-adv-x="522" 
d="M144 0h-30v477h-91v27h91v54q0 72 36 110.5t105 38.5q13 0 21 -1l12 -1v-28l-4 1q-3 0 -12 0.5t-14 0.5q-114 0 -114 -121v-54h143v-27h-143v-477zM434 0h-30v705h30v-705z" />
    <glyph glyph-name=".notdef" horiz-adv-x="331" 
 />
    <glyph glyph-name=".null" horiz-adv-x="0" 
 />
    <glyph glyph-name="nonmarkingreturn" horiz-adv-x="333" 
 />
    <glyph glyph-name="space" unicode=" " horiz-adv-x="265" 
 />
    <glyph glyph-name="exclam" unicode="!" horiz-adv-x="239" 
d="M135 0h-31v123h31v-123zM135 220h-30v480h30v-480z" />
    <glyph glyph-name="quotedbl" unicode="&#x22;" horiz-adv-x="299" 
d="M76 491h-20l-6 108v106h32v-106zM243 491h-20l-6 108v106h32v-106z" />
    <glyph glyph-name="numbersign" unicode="#" horiz-adv-x="604" 
d="M133 0h-27v12l37 192h-119v28h125l45 236h-129v28h134l40 204h26v-12l-36 -192h201l40 204h26v-12l-36 -192h120v-28h-126l-45 -236h130v-28h-136l-39 -204h-27v12l36 192h-201zM223 468l-45 -236h202l45 236h-202z" />
    <glyph glyph-name="dollar" unicode="$" horiz-adv-x="609" 
d="M53 227h30q0 -72 35 -124q64 -90 198 -90q92 0 143 42t51 110q0 54 -34 88.5t-111 64.5l-112 43q-100 37 -138 74q-37 37 -37 106q0 76 57.5 124t155.5 50v93h30v-94q94 -6 156 -65q61 -58 61 -170h-30q0 107 -60 157q-60 51 -151 51q-86 0 -137.5 -40.5t-51.5 -104.5
q0 -50 24.5 -80t84.5 -53l161 -63q87 -34 125 -73.5t38 -106.5q0 -80 -57.5 -129.5t-162.5 -51.5v-96h-30v96q-102 8 -170 67q-68 62 -68 175z" />
    <glyph glyph-name="percent" unicode="%" horiz-adv-x="751" 
d="M190 374q55 0 85.5 31t30.5 80v94q0 50 -30.5 80.5t-85.5 30.5q-53 0 -84 -30.5t-31 -80.5v-94q0 -50 31 -80.5t84 -30.5zM190 349q-67 0 -104.5 37.5t-37.5 100.5v90q0 63 37.5 100.5t104.5 37.5q68 0 105.5 -37t37.5 -101v-90q0 -64 -37.5 -101t-105.5 -37zM193 0h-26
v12l389 688h26v-12zM560 10q55 0 85.5 30.5t30.5 79.5v95q0 50 -30.5 80.5t-85.5 30.5q-53 0 -84 -30.5t-31 -80.5v-95q0 -49 31 -79.5t84 -30.5zM560 -15q-67 0 -104.5 37.5t-37.5 100.5v90q0 63 37.5 100.5t104.5 37.5q68 0 105.5 -37t37.5 -101v-90q0 -64 -37.5 -101
t-105.5 -37z" />
    <glyph glyph-name="ampersand" unicode="&#x26;" horiz-adv-x="587" 
d="M485 117l90 -103v-14h-26l-82 93q-81 -105 -217 -105q-96 0 -155 53q-58 52 -58 138q0 59 28 99q30 45 89 92l35 29l-24 28l-39 46q-34 45 -34 98q0 60 39 98t99 38t98.5 -37t38.5 -97q0 -67 -74 -127l-62 -50l233 -258q46 77 46 183h29q0 -119 -54 -204zM250 16
q127 0 197 97l-238 266l-36 -29q-56 -47 -81 -82t-25 -87q0 -73 51 -120q52 -45 132 -45zM122 571q0 -33 12.5 -57.5t50.5 -66.5l28 -31l56 47q69 55 69 110q0 46 -30.5 76t-77.5 30t-77.5 -30t-30.5 -78z" />
    <glyph glyph-name="quotesingle" unicode="'" horiz-adv-x="132" 
d="M76 491h-20l-6 108v106h32v-106z" />
    <glyph glyph-name="parenleft" unicode="(" horiz-adv-x="292" 
d="M268 -132v-28q-80 0 -125 42t-45 118v586q0 76 45 118t125 42v-28q-66 0 -103 -34.5t-37 -97.5v-586q0 -63 37 -97.5t103 -34.5z" />
    <glyph glyph-name="parenright" unicode=")" horiz-adv-x="292" 
d="M24 -160v28q66 0 103 34.5t37 97.5v586q0 63 -37 97.5t-103 34.5v28q80 0 125 -42t45 -118v-586q0 -76 -45 -118t-125 -42z" />
    <glyph glyph-name="asterisk" unicode="*" horiz-adv-x="399" 
d="M367 437l-13 -22l-142 82v-164h-25v164l-142 -82l-13 22l142 82l-142 82l13 22l142 -83v165h25v-165l142 83l13 -22l-142 -82z" />
    <glyph glyph-name="plus" unicode="+" horiz-adv-x="510" 
d="M269 109h-28v191h-189v26h189v190h28v-190h189v-26h-189v-191z" />
    <glyph glyph-name="comma" unicode="," horiz-adv-x="190" 
d="M138 111l-85 -199h-25l78 214h32v-15z" />
    <glyph glyph-name="hyphen" unicode="-" horiz-adv-x="432" 
d="M365 298h-297v30h297v-30z" />
    <glyph glyph-name="period" unicode="." horiz-adv-x="191" 
d="M111 0h-31v126h31v-126z" />
    <glyph glyph-name="slash" unicode="/" horiz-adv-x="451" 
d="M75 -100h-27v12l328 834h27v-12z" />
    <glyph glyph-name="zero" unicode="0" horiz-adv-x="591" 
d="M483 198v304q0 86 -50.5 135.5t-137.5 49.5t-137 -49.5t-50 -135.5v-304q0 -86 50 -135.5t137 -49.5t137.5 49.5t50.5 135.5zM78 200v300q0 101 58.5 158t158.5 57t159 -57t59 -158v-300q0 -101 -59 -158t-159 -57t-158.5 57t-58.5 158z" />
    <glyph glyph-name="one" unicode="1" horiz-adv-x="242" 
d="M114 0v672h-80v19l80 9h30v-700h-30z" />
    <glyph glyph-name="two" unicode="2" horiz-adv-x="558" 
d="M489 0h-423v26l212 216q35 35 43 44q3 3 41 47q24 28 41 56q36 68 36 122q0 81 -47 128.5t-125 47.5q-81 0 -130.5 -50.5t-49.5 -138.5h-29q0 102 59 159q58 58 150 58q91 0 146.5 -55.5t55.5 -148.5q0 -35 -12 -71q-5 -18 -14 -34q-21 -43 -36 -62l-21 -27l-23 -27
l-21 -23l-22 -23l-19 -19l-193 -197h381v-28z" />
    <glyph glyph-name="three" unicode="3" horiz-adv-x="562" 
d="M282 -15q-100 0 -160.5 55.5t-63.5 151.5h29q3 -83 55.5 -131t140.5 -48q86 0 134 47.5t48 132.5q0 72 -44.5 115.5t-119.5 43.5h-66v30h67q67 0 106.5 40t39.5 107q0 65 -45 112q-45 46 -124 46q-82 0 -130 -50t-49 -139h-29q1 101 57 159t151 58q92 0 145 -54
q53 -53 53 -131q0 -63 -32 -105t-86 -57q61 -13 98.5 -60t37.5 -115q0 -98 -56 -153t-157 -55z" />
    <glyph glyph-name="four" unicode="4" horiz-adv-x="537" 
d="M410 0h-30v174h-342v25l293 501h27v-12l-285 -486h307v209h30v-209h99v-28h-99v-174z" />
    <glyph glyph-name="five" unicode="5" horiz-adv-x="572" 
d="M290 -15q-90 0 -148.5 51t-70.5 141h30q11 -77 62 -120.5t128 -43.5q87 0 135.5 55.5t48.5 149.5q0 98 -48 149.5t-133 51.5q-98 0 -156 -72h-29l29 353h326v-28h-301l-24 -288q61 63 158 63t152.5 -58.5t55.5 -169.5q0 -105 -57 -170q-57 -64 -158 -64z" />
    <glyph glyph-name="six" unicode="6" horiz-adv-x="566" 
d="M288 -15q-105 0 -162.5 59t-57.5 162q0 49 14.5 89.5t51.5 98.5l192 306h29v-12l-199 -314q53 50 145 50q97 0 152 -58.5t55 -159.5q0 -103 -58 -162t-162 -59zM291 396q-86 0 -139.5 -51t-53.5 -140q0 -88 49 -140t141 -52t141 52t49 140q0 90 -48 140.5t-139 50.5z" />
    <glyph glyph-name="seven" unicode="7" horiz-adv-x="528" 
d="M218 0h-27v12l255 660h-360v-160h-30v188h422v-27z" />
    <glyph glyph-name="eight" unicode="8" horiz-adv-x="598" 
d="M68 186q0 72 41.5 120t107.5 61q-56 13 -90.5 55.5t-34.5 106.5q0 83 55 134.5t152 51.5t152 -51.5t55 -134.5q0 -64 -34.5 -105.5t-89.5 -56.5q65 -13 106.5 -61t41.5 -120q0 -94 -60.5 -147.5t-170.5 -53.5t-170.5 53.5t-60.5 147.5zM298 13q97 0 149.5 46t52.5 126
q0 75 -51 121t-144 46q-101 0 -154 -44t-53 -123q0 -80 52 -126t148 -46zM292 380q91 0 137.5 39t46.5 113q0 71 -47.5 113t-129.5 42t-129.5 -42t-47.5 -113t44 -111.5t126 -40.5z" />
    <glyph glyph-name="nine" unicode="9" horiz-adv-x="566" 
d="M245 0h-28v12l197 315q-52 -51 -145 -51q-99 0 -155 59t-56 161q0 101 58 160t162 59q105 0 162.5 -58.5t57.5 -160.5q0 -50 -14 -91.5t-50 -98.5zM88 496q0 -89 48 -140.5t139 -51.5q87 0 140 51t53 141q0 88 -49.5 139.5t-140.5 51.5t-140.5 -51.5t-49.5 -139.5z" />
    <glyph glyph-name="colon" unicode=":" horiz-adv-x="191" 
d="M111 0h-31v126h31v-126zM111 378h-31v126h31v-126z" />
    <glyph glyph-name="semicolon" unicode=";" horiz-adv-x="190" 
d="M138 111l-85 -199h-25l78 214h32v-15zM120 378h-31v126h31v-126z" />
    <glyph glyph-name="less" unicode="&#x3c;" horiz-adv-x="472" 
d="M420 109h-19l-349 192v26l349 191h19v-20l-337 -184l337 -184v-21z" />
    <glyph glyph-name="equal" unicode="=" horiz-adv-x="509" 
d="M457 192h-405v26h405v-26zM457 409h-405v26h405v-26z" />
    <glyph glyph-name="greater" unicode="&#x3e;" horiz-adv-x="472" 
d="M70 109h-18v21l336 184l-336 184v20h18l350 -191v-26z" />
    <glyph glyph-name="question" unicode="?" horiz-adv-x="502" 
d="M263 220h-30v99l68 45q52 35 83 66q40 41 40 104q0 64 -45 108q-43 45 -127 45q-83 0 -134 -50t-51 -138h-29q0 102 60 159t154 57q96 0 149 -53t53 -128t-51 -123q-27 -27 -40 -36l-43 -30l-57 -37v-88zM264 0h-32v123h32v-123z" />
    <glyph glyph-name="at" unicode="@" horiz-adv-x="1007" 
d="M540 -151h-25q-194 0 -315 121q-122 122 -122 312q0 195 121 313q121 120 316 120q181 0 299 -109q120 -108 120 -286q0 -116 -47 -189q-47 -72 -120 -72q-41 0 -68.5 24.5t-27.5 68.5v6q-85 -99 -191 -99q-80 0 -125.5 49.5t-45.5 131.5v82q0 83 45.5 132.5t125.5 49.5
q101 0 186 -97l7 85h22v-317q0 -44 19.5 -66t53.5 -22q61 0 98.5 63t37.5 169q0 167 -111 267q-112 101 -279 101q-182 0 -294 -112q-112 -111 -112 -293q0 -179 113 -292t293 -113h26v-28zM484 87q94 0 181 97v190q-90 102 -181 102q-68 0 -106.5 -42.5t-38.5 -112.5v-79
q0 -70 38.5 -112.5t106.5 -42.5z" />
    <glyph glyph-name="A" unicode="A" horiz-adv-x="652" 
d="M57 0h-29v12l281 688h33l282 -688v-12h-31l-85 208h-366zM325 659l-172 -421h344z" />
    <glyph glyph-name="B" unicode="B" horiz-adv-x="643" 
d="M412 0h-314v700h291q81 0 125.5 -46.5t44.5 -129.5q0 -64 -28 -105t-76 -54q60 -12 95 -57.5t35 -121.5q0 -86 -46 -136t-127 -50zM130 345v-315h276q69 0 108 42t39 115q0 74 -38.5 116t-108.5 42h-276zM130 670v-295h260q65 0 101 39.5t36 108.5q0 70 -37 108.5
t-105 38.5h-255z" />
    <glyph glyph-name="C" unicode="C" horiz-adv-x="657" 
d="M339 -15q-121 0 -191 66.5t-70 185.5v226q0 119 70 185.5t191 66.5q107 0 178 -61q72 -62 72 -169v-10h-32v10q0 95 -64 147q-64 53 -154 53q-108 0 -168.5 -58t-60.5 -162v-230q0 -104 60.5 -162t168.5 -58q90 0 154 53q64 52 64 147v10h32v-10q0 -107 -72 -169
q-71 -61 -178 -61z" />
    <glyph glyph-name="D" unicode="D" horiz-adv-x="669" 
d="M130 670v-640h203q105 0 165.5 58t60.5 159v206q0 101 -60.5 159t-165.5 58h-203zM333 0h-235v700h235q120 0 189 -65.5t69 -181.5v-206q0 -116 -69 -181.5t-189 -65.5z" />
    <glyph glyph-name="E" unicode="E" horiz-adv-x="573" 
d="M514 0h-416v700h416v-30h-384v-302h336v-30h-336v-308h384v-30z" />
    <glyph glyph-name="F" unicode="F" horiz-adv-x="563" 
d="M130 0h-32v700h418v-30h-386v-303h338v-30h-338v-337z" />
    <glyph glyph-name="G" unicode="G" horiz-adv-x="687" 
d="M342 -15q-123 0 -193 67q-71 68 -71 185v226q0 118 71.5 185t195.5 67q107 0 180 -61q73 -60 75 -168v-9h-33v9q0 93 -65 146t-157 53q-109 0 -172 -58t-63 -162v-228q0 -104 63 -163t171 -59q159 0 224 152v140h-197v30h229v-337h-24l-4 122q-66 -137 -230 -137z" />
    <glyph glyph-name="H" unicode="H" horiz-adv-x="686" 
d="M130 0h-32v700h32v-333h426v333h32v-700h-32v337h-426v-337z" />
    <glyph glyph-name="I" unicode="I" horiz-adv-x="228" 
d="M130 0h-32v700h32v-700z" />
    <glyph glyph-name="J" unicode="J" horiz-adv-x="560" 
d="M250 -15q-103 0 -162.5 56t-59.5 158v26h32v-26q0 -87 51 -135.5t139 -48.5t139 49.5t51 135.5v500h32v-501q0 -101 -60 -157.5t-162 -56.5z" />
    <glyph glyph-name="K" unicode="K" horiz-adv-x="587" 
d="M130 0h-32v700h32v-333h151l236 333h30v-12l-238 -334l250 -342v-12h-31l-246 337h-152v-337z" />
    <glyph glyph-name="L" unicode="L" horiz-adv-x="553" 
d="M525 0h-427v700h32v-670h395v-30z" />
    <glyph glyph-name="M" unicode="M" horiz-adv-x="792" 
d="M129 0h-31v700h31l267 -401l268 401h30v-700h-31v643l-256 -384h-22l-256 383v-642z" />
    <glyph glyph-name="N" unicode="N" horiz-adv-x="686" 
d="M130 0h-32v700h30l428 -641v641h32v-700h-29l-429 640v-640z" />
    <glyph glyph-name="O" unicode="O" horiz-adv-x="672" 
d="M562 233v234q0 101 -60.5 159.5t-165.5 58.5t-165.5 -58.5t-60.5 -159.5v-234q0 -101 60.5 -159.5t165.5 -58.5t165.5 58.5t60.5 159.5zM78 234v232q0 117 69 183t189 66t189 -66t69 -183v-232q0 -117 -69 -183t-189 -66t-189 66t-69 183z" />
    <glyph glyph-name="P" unicode="P" horiz-adv-x="613" 
d="M130 0h-32v700h277q86 0 135.5 -54.5t49.5 -148.5t-49.5 -148.5t-135.5 -54.5h-245v-294zM130 670v-346h240q74 0 116 46t42 127t-42 127t-116 46h-240z" />
    <glyph glyph-name="Q" unicode="Q" horiz-adv-x="676" 
d="M598 -119h-30l-96 135q-58 -31 -136 -31q-120 0 -189 66t-69 183v232q0 117 69 183t189 66t189 -66t69 -183v-232q0 -139 -94 -203l98 -138v-12zM336 15q105 0 165.5 58t60.5 159v236q0 102 -60.5 159.5t-165.5 57.5t-165.5 -57.5t-60.5 -159.5v-236q0 -102 60.5 -159.5
t165.5 -57.5z" />
    <glyph glyph-name="R" unicode="R" horiz-adv-x="636" 
d="M130 0h-32v700h283q89 0 139 -54.5t50 -148.5q0 -83 -41 -135t-114 -63l171 -287v-12h-30l-176 294h-250v-294zM130 670v-346h242q77 0 121 45.5t44 127.5q0 81 -42 127t-118 46h-247z" />
    <glyph glyph-name="S" unicode="S" horiz-adv-x="617" 
d="M319 -15q-112 0 -189 61q-77 62 -77 181h32q0 -73 36 -123q67 -89 199 -89q93 0 144.5 41t51.5 109q0 55 -36 90.5t-121 66.5l-105 39q-101 38 -138 74q-38 38 -38 105q0 79 60.5 127t163.5 48q112 0 178 -60t66 -176h-32q0 107 -61 156q-61 50 -151 50
q-87 0 -139.5 -39.5t-52.5 -103.5q0 -56 31 -87q29 -29 109 -59l102 -38q101 -37 149 -79q48 -41 48 -113q0 -82 -60.5 -131.5t-169.5 -49.5z" />
    <glyph glyph-name="T" unicode="T" horiz-adv-x="545" 
d="M289 0h-32v670h-229v30h489v-30h-228v-670z" />
    <glyph glyph-name="U" unicode="U" horiz-adv-x="666" 
d="M333 -15q-112 0 -178.5 66t-66.5 182v467h32v-467q0 -102 57 -160t156 -58t156 58t57 160v467h32v-467q0 -117 -68 -183q-68 -65 -177 -65z" />
    <glyph glyph-name="V" unicode="V" horiz-adv-x="652" 
d="M343 0h-34l-281 688v12h30l268 -659l268 659h30v-12z" />
    <glyph glyph-name="W" unicode="W" horiz-adv-x="792" 
d="M215 0h-32l-135 688v12h31l126 -650l181 422h21l182 -422l125 650h30v-12l-135 -688h-32l-181 424z" />
    <glyph glyph-name="X" unicode="X" horiz-adv-x="598" 
d="M68 0h-30v12l241 342l-238 334v12h32l226 -321l228 321h29v-12l-237 -335l241 -341v-12h-32l-230 329z" />
    <glyph glyph-name="Y" unicode="Y" horiz-adv-x="600" 
d="M316 0h-32v278l-266 410v12h31l251 -391l252 391h29v-12l-265 -409v-279z" />
    <glyph glyph-name="Z" unicode="Z" horiz-adv-x="563" 
d="M516 0h-468v29l421 641h-408v30h445v-29l-421 -641h431v-30z" />
    <glyph glyph-name="bracketleft" unicode="[" horiz-adv-x="303" 
d="M295 -160h-197v906h197v-28h-167v-850h167v-28z" />
    <glyph glyph-name="backslash" unicode="\" horiz-adv-x="451" 
d="M75 746l328 -834v-12h-27l-328 834v12h27z" />
    <glyph glyph-name="bracketright" unicode="]" horiz-adv-x="303" 
d="M205 -160h-197v28h167v844h-167v28h197v-900z" />
    <glyph glyph-name="asciicircum" unicode="^" horiz-adv-x="476" 
d="M78 387h-26v12l172 306h28l172 -306v-12h-26l-160 287z" />
    <glyph glyph-name="underscore" unicode="_" horiz-adv-x="512" 
d="M513 -97h-514v26h514v-26z" />
    <glyph glyph-name="grave" unicode="`" horiz-adv-x="281" 
d="M216 590h-34l-117 128v12h33z" />
    <glyph glyph-name="a" unicode="a" horiz-adv-x="530" 
d="M216 -12q-72 0 -117.5 37.5t-45.5 105.5q0 76 54 115.5t156 39.5h154v70q0 61 -40 96.5t-114 35.5q-71 0 -111.5 -35.5t-40.5 -94.5h-30q0 71 48 114.5t134 43.5q88 0 136 -42.5t48 -115.5v-358h-22l-8 77q-30 -31 -86 -61q-53 -28 -115 -28zM221 16q98 0 196 92v151
h-154q-180 0 -180 -126q0 -57 38 -87t100 -30z" />
    <glyph glyph-name="b" unicode="b" horiz-adv-x="560" 
d="M110 0h-22v705h30v-285q36 42 87 69t105 27q83 0 130 -51t47 -136v-154q0 -85 -47 -136t-129 -51q-112 0 -194 97zM308 488q-96 0 -190 -102v-268q94 -102 190 -102q70 0 109.5 44t39.5 117v150q0 73 -39.5 117t-109.5 44z" />
    <glyph glyph-name="c" unicode="c" horiz-adv-x="522" 
d="M264 -12q-94 0 -146.5 51t-52.5 136v154q0 85 52.5 136t146.5 51q90 0 143.5 -47t53.5 -125v-4h-30v5q0 64 -45 103.5t-122 39.5q-79 0 -124 -43.5t-45 -115.5v-154q0 -73 45 -116t124 -43q77 0 122 40.5t45 105.5v5h30v-5q0 -76 -53 -126q-52 -48 -144 -48z" />
    <glyph glyph-name="d" unicode="d" horiz-adv-x="560" 
d="M442 705h30v-705h-22l-7 85q-82 -97 -194 -97q-82 0 -129 51t-47 136v154q0 85 47 136t130 51q54 0 105 -27t87 -69v285zM252 488q-70 0 -109.5 -44t-39.5 -117v-150q0 -73 39.5 -117t109.5 -44q96 0 190 102v268q-94 102 -190 102z" />
    <glyph glyph-name="e" unicode="e" horiz-adv-x="527" 
d="M265 -12q-95 0 -147.5 51t-52.5 136v154q0 85 53 136t147 51t146 -51t52 -136v-85h-368v-69q0 -72 45.5 -115.5t124.5 -43.5q73 0 114.5 35t48.5 97h30q-6 -74 -56.5 -117t-136.5 -43zM95 329v-58h338v58q0 73 -44.5 116t-124.5 43q-79 0 -124 -43.5t-45 -115.5z" />
    <glyph glyph-name="f" unicode="f" horiz-adv-x="316" 
d="M144 0h-30v477h-91v27h91v54q0 72 36 110.5t105 38.5q13 0 21 -1l12 -1v-28l-4 1q-3 0 -12 0.5t-14 0.5q-114 0 -114 -121v-54h143v-27h-143v-477z" />
    <glyph glyph-name="g" unicode="g" horiz-adv-x="560" 
d="M279 -172q-87 0 -139.5 43t-55.5 118h30q3 -60 48 -96.5t117 -36.5q78 0 120.5 43t42.5 124v108q-82 -96 -192 -96q-83 0 -130 50.5t-47 136.5v107q0 85 47 136t129 51q112 0 194 -97l7 85h22v-480q0 -95 -51 -145.5t-142 -50.5zM253 63q95 0 189 102v221
q-94 102 -190 102q-70 0 -109.5 -44t-39.5 -117v-103q0 -73 40 -117t110 -44z" />
    <glyph glyph-name="h" unicode="h" horiz-adv-x="566" 
d="M118 0h-30v705h30v-285q37 43 87.5 69.5t105.5 26.5q77 0 124.5 -49.5t47.5 -137.5v-329h-30v324q0 79 -40 121.5t-106 42.5q-104 0 -189 -103v-385z" />
    <glyph glyph-name="i" unicode="i" horiz-adv-x="206" 
d="M118 0h-30v504h30v-504zM118 595h-30v110h30v-110z" />
    <glyph glyph-name="j" unicode="j" horiz-adv-x="206" 
d="M88 14v490h30v-536q0 -140 -125 -140q-5 0 -12 0.5t-12 1.5h-5v27q1 0 11.5 -0.5t15.5 -0.5q61 0 79 37t18 121zM118 595h-30v110h30v-110z" />
    <glyph glyph-name="k" unicode="k" horiz-adv-x="501" 
d="M118 0h-30v705h30v-434h119l180 233h26v-14l-178 -231l188 -244v-15h-27l-188 244h-120v-244z" />
    <glyph glyph-name="l" unicode="l" horiz-adv-x="206" 
d="M118 0h-30v705h30v-705z" />
    <glyph glyph-name="m" unicode="m" horiz-adv-x="886" 
d="M118 0h-30v504h22l7 -85q79 97 182 97q55 0 94 -28t55 -80q86 108 194 108q76 0 118.5 -47.5t42.5 -136.5v-332h-30v326q0 79 -36 120.5t-100 41.5q-94 0 -181 -108q5 -33 5 -58v-322h-30v326q0 78 -37 120t-100 42q-94 0 -176 -103v-385z" />
    <glyph glyph-name="n" unicode="n" horiz-adv-x="566" 
d="M118 0h-30v504h22l7 -85q82 97 194 97q77 0 124.5 -49.5t47.5 -137.5v-329h-30v324q0 79 -40 121.5t-106 42.5q-104 0 -189 -103v-385z" />
    <glyph glyph-name="o" unicode="o" horiz-adv-x="529" 
d="M265 16q81 0 125 43.5t44 116.5v152q0 73 -44 116.5t-125 43.5q-79 0 -124.5 -44t-45.5 -116v-152q0 -72 45.5 -116t124.5 -44zM265 -12q-94 0 -147 51t-53 136v154q0 84 53 135.5t147 51.5q95 0 147 -51t52 -136v-154q0 -85 -52 -136t-147 -51z" />
    <glyph glyph-name="p" unicode="p" horiz-adv-x="560" 
d="M118 -160h-30v664h22l7 -85q82 97 194 97q82 0 129 -51t47 -136v-154q0 -85 -47 -136t-130 -51q-54 0 -105 27t-87 69v-244zM308 16q70 0 109.5 44t39.5 117v150q0 73 -39.5 117t-109.5 44q-96 0 -190 -102v-268q94 -102 190 -102z" />
    <glyph glyph-name="q" unicode="q" horiz-adv-x="560" 
d="M450 504h22v-664h-30v244q-36 -42 -87 -69t-105 -27q-83 0 -130 51t-47 136v154q0 85 47 136t129 51q112 0 194 -97zM252 16q96 0 190 102v268q-94 102 -190 102q-70 0 -109.5 -44t-39.5 -117v-150q0 -73 39.5 -117t109.5 -44z" />
    <glyph glyph-name="r" unicode="r" horiz-adv-x="364" 
d="M118 0h-30v504h21l8 -85q38 43 92 69.5t111 26.5h6v-30h-6q-116 0 -202 -99v-386z" />
    <glyph glyph-name="s" unicode="s" horiz-adv-x="528" 
d="M58 166h30q0 -76 54 -113q55 -37 130 -37q73 0 115.5 30.5t42.5 81.5q0 41 -26 62.5t-93 39.5l-108 29q-68 17 -96.5 45.5t-28.5 79.5q0 58 50.5 95t134.5 37q89 0 141 -44.5t52 -128.5h-30q0 71 -44 108t-121 37q-71 0 -112 -28.5t-41 -74.5q0 -40 23.5 -62.5
t80.5 -36.5l108 -28q76 -19 108 -47.5t32 -81.5q0 -64 -50.5 -102.5t-139.5 -38.5t-151 44q-61 45 -61 134z" />
    <glyph glyph-name="t" unicode="t" horiz-adv-x="347" 
d="M294 0h-39q-68 0 -102 37.5t-34 97.5v342h-91v27h91v105h30v-105h145v-27h-145v-341q0 -52 27.5 -79.5t78.5 -27.5h39v-29z" />
    <glyph glyph-name="u" unicode="u" horiz-adv-x="566" 
d="M255 -12q-77 0 -124.5 49.5t-47.5 137.5v329h30v-324q0 -79 39.5 -121.5t106.5 -42.5q104 0 189 103v385h30v-504h-22l-7 85q-37 -44 -88 -70.5t-106 -26.5z" />
    <glyph glyph-name="v" unicode="v" horiz-adv-x="495" 
d="M263 0h-31l-204 490v14h28l192 -465l191 465h28v-14z" />
    <glyph glyph-name="w" unicode="w" horiz-adv-x="694" 
d="M213 0h-32l-128 490v14h28l119 -465l134 362h27l133 -362l120 465h27v-14l-127 -490h-33l-134 359z" />
    <glyph glyph-name="x" unicode="x" horiz-adv-x="506" 
d="M74 0h-26v15l186 237l-185 238v14h28l176 -228l176 228h26v-14l-184 -237l187 -238v-15h-27l-179 231z" />
    <glyph glyph-name="y" unicode="y" horiz-adv-x="494" 
d="M196 -160h-27v12l63 148l-204 490v14h28l192 -466l190 466h28v-14z" />
    <glyph glyph-name="z" unicode="z" horiz-adv-x="506" 
d="M442 0h-384v27l345 450h-329v27h365v-27l-345 -450h348v-27z" />
    <glyph glyph-name="braceleft" unicode="{" horiz-adv-x="308" 
d="M300 -132v-28q-80 0 -125 42t-45 118v206q0 79 -64 79h-28v28h28q64 0 64 79v194q0 76 45 118t125 42v-28q-66 0 -103 -34.5t-37 -97.5v-200q0 -74 -51 -87q51 -13 51 -87v-212q0 -63 37 -97.5t103 -34.5z" />
    <glyph glyph-name="bar" unicode="|" horiz-adv-x="226" 
d="M128 -100h-30v846h30v-846z" />
    <glyph glyph-name="braceright" unicode="}" horiz-adv-x="308" 
d="M8 -160v28q66 0 103 34.5t37 97.5v212q0 74 51 87q-51 13 -51 87v200q0 63 -37 97.5t-103 34.5v28q80 0 125 -42t45 -118v-194q0 -79 64 -79h28v-28h-28q-64 0 -64 -79v-206q0 -76 -45 -118t-125 -42z" />
    <glyph glyph-name="asciitilde" unicode="~" horiz-adv-x="459" 
d="M69 268l-20 14q30 46 54 65t51 19q29 0 70 -29l27 -19q34 -22 55 -23t36.5 13t46.5 56l21 -14q-29 -45 -53.5 -64.5t-51.5 -19.5q-32 0 -69 28l-28 20q-34 24 -54 24q-21 0 -39 -15t-46 -55z" />
    <glyph glyph-name="nbspace" unicode="&#xa0;" horiz-adv-x="265" 
 />
    <glyph glyph-name="exclamdown" unicode="&#xa1;" horiz-adv-x="205" 
d="M118 -160h-30v445h30v-445zM118 381h-31v123h31v-123z" />
    <glyph glyph-name="cent" unicode="&#xa2;" horiz-adv-x="522" 
d="M276 0h-27v80q-86 4 -135 54.5t-49 132.5v154q0 81 48.5 131.5t135.5 54.5v93h27v-92q85 -4 135 -51t50 -121v-4h-30v5q0 61 -42 100t-113 42v-471q72 4 113.5 43.5t41.5 102.5v5h30v-5q0 -76 -50 -123.5t-135 -50.5v-80zM95 421v-154q0 -69 41 -112t113 -47v471
q-72 -4 -113 -47t-41 -111z" />
    <glyph glyph-name="sterling" unicode="&#xa3;" horiz-adv-x="573" 
d="M525 0h-477v28h80v314h-80v28h80v158q0 85 52.5 136t146.5 51q91 0 144.5 -47.5t53.5 -126.5v-38h-30v38q0 66 -45.5 106t-122.5 40q-79 0 -124 -43t-45 -116v-158h204v-28h-204v-314h367v-28z" />
    <glyph glyph-name="yen" unicode="&#xa5;" horiz-adv-x="594" 
d="M312 0h-30v123h-210v28h210v127h-210v28h192l-246 382v12h31l248 -390l250 390h29v-12l-247 -382h193v-28h-210v-127h210v-28h-210v-123z" />
    <glyph glyph-name="brokenbar" unicode="&#xa6;" horiz-adv-x="226" 
d="M128 -100h-30v337h30v-337zM128 429h-30v317h30v-317z" />
    <glyph glyph-name="section" unicode="&#xa7;" horiz-adv-x="555" 
d="M290 -172q-102 0 -167 51t-65 149h29q0 -84 56 -128t149 -44q76 0 121.5 36t45.5 96q0 35 -25.5 59t-78.5 45l-95 36q-100 38 -144 72q-43 34 -43 96q0 77 62 151q-57 36 -57 105q0 66 53 110q54 45 146 45q96 0 154.5 -51t58.5 -144h-29q0 83 -53 125q-52 42 -132 42
q-74 0 -120.5 -35t-46.5 -92q0 -42 22.5 -64t72.5 -42l105 -41q103 -41 143 -73q43 -31 43 -89q0 -64 -74 -150q69 -42 69 -108q0 -67 -54 -112q-53 -45 -146 -45zM246 165l151 -59q68 74 68 134q0 54 -49 83q-40 26 -103 50l-155 61q-55 -68 -55 -136q0 -41 28 -71
q11 -11 34 -25q15 -9 37 -20z" />
    <glyph glyph-name="dieresis" unicode="&#xa8;" horiz-adv-x="292" 
d="M74 595h-30v110h30v-110zM248 595h-30v110h30v-110z" />
    <glyph glyph-name="copyright" unicode="&#xa9;" horiz-adv-x="876" 
d="M435 140q-80 0 -125.5 44.5t-45.5 118.5v95q0 74 45.5 118.5t125.5 44.5q77 0 123 -41t46 -108v-5h-25v5q0 57 -39 91t-105 34q-68 0 -107 -37.5t-39 -100.5v-97q0 -63 39 -100.5t107 -37.5q66 0 105 34.5t39 91.5v4h25v-4q0 -68 -45.5 -109t-123.5 -41zM694 90
q-104 -105 -256 -105t-256 105q-104 107 -104 260t104 259q103 106 256 106t256 -106q104 -106 104 -259t-104 -260zM199 106q98 -98 239 -98t239 98q97 98 97 244t-97 243q-98 99 -239 99t-239 -99q-97 -97 -97 -243t97 -244z" />
    <glyph glyph-name="ordfeminine" unicode="&#xaa;" horiz-adv-x="429" 
d="M175 353q-53 0 -85 24.5t-32 71.5q0 104 157 104h106v42q0 37 -27.5 59.5t-78.5 22.5q-50 0 -77.5 -22t-27.5 -59h-31q0 49 35.5 79t99.5 30q65 0 101 -29t36 -78v-240h-20l-8 52q-71 -57 -148 -57zM183 381q63 0 138 57v89h-106q-60 0 -92.5 -20.5t-32.5 -57.5
q0 -68 93 -68z" />
    <glyph glyph-name="guillemotleft" unicode="&#xab;" horiz-adv-x="515" 
d="M250 62h-28l-182 204l183 205h27v-13l-172 -192l172 -191v-13zM449 62h-28l-182 204l183 205h27v-13l-172 -192l172 -191v-13z" />
    <glyph glyph-name="logicalnot" unicode="&#xac;" horiz-adv-x="510" 
d="M458 206h-28v203h-378v26h406v-229z" />
    <glyph glyph-name="uni00AD" unicode="&#xad;" horiz-adv-x="432" 
d="M365 298h-297v30h297v-30z" />
    <glyph glyph-name="registered" unicode="&#xae;" horiz-adv-x="398" 
d="M148 456h-17v176h84q27 0 42 -14t15 -39q0 -22 -12.5 -36.5t-33.5 -16.5l46 -62v-8h-15l-52 69h-57v-69zM148 616v-76h65q27 0 38 19t0 38t-38 19h-65zM317 420q-48 -49 -118 -49t-119 49q-48 50 -48 123t48 122q50 50 119 50q70 0 118 -50q49 -49 49 -122
q0 -74 -49 -123zM92 431q44 -45 107 -45t107 45q44 47 44 112t-44 111q-43 46 -107 46t-107 -46q-44 -46 -44 -111t44 -112z" />
    <glyph glyph-name="overscore" unicode="&#xaf;" horiz-adv-x="448" 
d="M348 637h-248v26h248v-26z" />
    <glyph glyph-name="degree" unicode="&#xb0;" horiz-adv-x="381" 
d="M190 399q55 0 85.5 30.5t30.5 79.5v70q0 50 -30.5 80.5t-85.5 30.5q-53 0 -84 -30.5t-31 -80.5v-70q0 -49 31 -79.5t84 -30.5zM190 374q-67 0 -104.5 37.5t-37.5 100.5v65q0 63 37.5 100.5t104.5 37.5q68 0 105.5 -37t37.5 -101v-65q0 -64 -37.5 -101t-105.5 -37z" />
    <glyph glyph-name="plusminus" unicode="&#xb1;" horiz-adv-x="510" 
d="M268 134h-26v188h-190v26h190v187h26v-187h190v-26h-190v-188zM458 30h-406v26h406v-26z" />
    <glyph glyph-name="twosuperior" unicode="&#xb2;" horiz-adv-x="311" 
d="M271 358h-229v25l108 85q32 26 43 35q43 37 43 88q0 39 -23 62.5t-60 23.5q-39 0 -64 -26.5t-25 -71.5h-26q0 59 32.5 92.5t83.5 33.5q49 0 79.5 -30.5t30.5 -80.5q0 -32 -17 -63q-19 -32 -32 -43q-11 -9 -47 -39l-81 -64h184v-27z" />
    <glyph glyph-name="threesuperior" unicode="&#xb3;" horiz-adv-x="325" 
d="M163 353q-55 0 -89 28t-36 74h28q2 -34 28 -54t69 -20q44 0 67 19t23 53q0 30 -22 49.5t-57 19.5h-41v27h41q32 0 50 17.5t18 44.5q0 29 -23 47.5t-62 18.5t-63 -21.5t-24 -57.5h-26q0 50 31 78.5t83 28.5q51 0 81.5 -25.5t30.5 -65.5q0 -59 -55 -77q30 -7 48 -29t18 -54
q0 -47 -31 -74t-87 -27z" />
    <glyph glyph-name="acute" unicode="&#xb4;" horiz-adv-x="281" 
d="M99 590h-34l118 140h33v-12z" />
    <glyph glyph-name="mu" unicode="&#xb5;" horiz-adv-x="571" 
d="M118 -160h-30v664h30v-329q0 -76 40 -117.5t107 -41.5q103 0 188 103v385h30v-504h-22l-7 85q-82 -97 -192 -97q-52 0 -90.5 25t-53.5 70v-243z" />
    <glyph glyph-name="paragraph" unicode="&#xb6;" horiz-adv-x="560" 
d="M253 -87h-30v455q-82 0 -128.5 42.5t-46.5 119.5v8q0 77 46.5 119.5t128.5 42.5h239v-787h-30v759h-179v-759z" />
    <glyph glyph-name="middot" unicode="&#xb7;" horiz-adv-x="191" 
d="M111 258h-31v126h31v-126z" />
    <glyph glyph-name="cedilla" unicode="&#xb8;" horiz-adv-x="282" 
d="M103 -160h-30v12l114 148h32z" />
    <glyph glyph-name="onesuperior" unicode="&#xb9;" horiz-adv-x="214" 
d="M128 358h-28v313h-69v15l31 14h66v-342z" />
    <glyph glyph-name="ordmasculine" unicode="&#xba;" horiz-adv-x="400" 
d="M199 381q59 0 91 32.5t32 84.5v61q0 54 -32 86t-91 32q-56 0 -88.5 -32t-32.5 -86v-61q0 -53 32.5 -85t88.5 -32zM199 353q-71 0 -111 40t-40 107v58q0 67 40 107t111 40q73 0 113 -39.5t40 -107.5v-58q0 -68 -40 -107.5t-113 -39.5z" />
    <glyph glyph-name="guillemotright" unicode="&#xbb;" horiz-adv-x="515" 
d="M93 471l183 -205l-182 -204h-28v13l172 191l-172 192v13h27zM292 471l183 -205l-182 -204h-28v13l172 191l-172 192v13h27z" />
    <glyph glyph-name="onequarter" unicode="&#xbc;" horiz-adv-x="638" 
d="M323 103l134 239h22v-14l-121 -219h163v90h27v-90h65v-26h-65v-83h-27v83h-198v20zM94 0h-26v12l389 688h26v-12zM128 358h-28v313h-69v15l31 14h66v-342z" />
    <glyph glyph-name="onehalf" unicode="&#xbd;" horiz-adv-x="654" 
d="M614 0h-229v25l108 85q32 26 43 35q43 37 43 88q0 39 -23 62.5t-60 23.5q-39 0 -64 -26.5t-25 -71.5h-26q0 59 32.5 92.5t83.5 33.5q49 0 79.5 -30.5t30.5 -80.5q0 -32 -17 -63q-18 -32 -32 -43q-11 -9 -47 -39l-81 -64h184v-27zM94 0h-26v12l389 688h26v-12zM128 358
h-28v313h-69v15l31 14h66v-342z" />
    <glyph glyph-name="threequarters" unicode="&#xbe;" horiz-adv-x="735" 
d="M163 353q-55 0 -89 28t-36 74h28q2 -34 28 -54t69 -20q44 0 67 19t23 53q0 30 -22 49.5t-57 19.5h-41v27h41q32 0 50 17.5t18 44.5q0 29 -23 47.5t-62 18.5t-63 -21.5t-24 -57.5h-26q0 50 31 78.5t83 28.5q51 0 81.5 -25.5t30.5 -65.5q0 -59 -55 -77q30 -7 48 -29t18 -54
q0 -47 -31 -74t-87 -27zM420 102l134 239h22v-14l-121 -219h163v90h27v-90h65v-26h-65v-83h-27v83h-198v20zM191 0h-26v12l389 688h26v-12z" />
    <glyph glyph-name="questiondown" unicode="&#xbf;" horiz-adv-x="502" 
d="M247 -172q-94 0 -147.5 48t-53.5 123q0 57 31 100q11 15 35 36q23 19 34 25q12 9 34 21l57 34v70h30v-82l-68 -41q-29 -18 -47 -31q-11 -7 -37 -31q-39 -39 -39 -101q0 -63 45.5 -103t126.5 -40q83 0 133.5 49.5t50.5 137.5h30q0 -103 -60 -158q-60 -57 -155 -57z
M267 381h-32v123h32v-123z" />
    <glyph glyph-name="Agrave" unicode="&#xc0;" horiz-adv-x="652" 
d="M57 0h-29v12l281 688h33l282 -688v-12h-31l-85 208h-366zM325 659l-172 -421h344zM349 762h-37l-125 138v13h35z" />
    <glyph glyph-name="Aacute" unicode="&#xc1;" horiz-adv-x="652" 
d="M57 0h-29v12l281 688h33l282 -688v-12h-31l-85 208h-366zM325 659l-172 -421h344zM350 762h-36l126 151h36v-13z" />
    <glyph glyph-name="Acircumflex" unicode="&#xc2;" horiz-adv-x="652" 
d="M57 0h-29v12l281 688h33l282 -688v-12h-31l-85 208h-366zM325 659l-172 -421h344zM216 762h-31v13l124 138h33l125 -138v-13h-30l-112 126z" />
    <glyph glyph-name="Atilde" unicode="&#xc3;" horiz-adv-x="652" 
d="M57 0h-29v12l281 688h33l282 -688v-12h-31l-85 208h-366zM325 659l-172 -421h344zM179 783l-22 17q37 49 57 68q19 16 44 16q22 0 62 -29l27 -20q34 -25 49 -25t28 13q18 18 51 59l21 -17q-40 -52 -57 -67q-20 -17 -45 -17t-60 28l-28 21q-34 25 -48 25q-22 0 -72 -64
q-2 -2 -3.5 -4t-3.5 -4z" />
    <glyph glyph-name="Adieresis" unicode="&#xc4;" horiz-adv-x="652" 
d="M57 0h-29v12l281 688h33l282 -688v-12h-31l-85 208h-366zM325 659l-172 -421h344zM248 768h-32v118h32v-118zM435 768h-32v118h32v-118z" />
    <glyph glyph-name="Aring" unicode="&#xc5;" horiz-adv-x="652" 
d="M57 0h-29v12l281 688h33l282 -688v-12h-31l-85 208h-366zM325 659l-172 -421h344zM252 776q-30 30 -30 71t30 70q30 30 73 30t73 -30q31 -29 31 -70t-31 -71q-30 -29 -73 -29t-73 29zM401 847q0 29 -22.5 51t-53.5 22t-53 -21.5t-22 -51.5t22 -51.5t53 -21.5t53.5 21.5
t22.5 51.5z" />
    <glyph glyph-name="AE" unicode="&#xc6;" horiz-adv-x="938" 
d="M47 0h-29v12l432 688h429v-30h-384v-302h336v-30h-336v-308h384v-30h-416v208h-285zM463 662l-267 -424h267v424z" />
    <glyph glyph-name="Ccedilla" unicode="&#xc7;" horiz-adv-x="657" 
d="M245 -160h-31v12l104 134q-113 6 -176.5 72t-63.5 179v226q0 119 70 185.5t191 66.5q107 0 178 -61q72 -62 72 -169v-10h-32v10q0 95 -64 147q-64 53 -154 53q-108 0 -168.5 -58t-60.5 -162v-230q0 -104 60.5 -162t168.5 -58q90 0 154 53q64 52 64 147v10h32v-10
q0 -106 -69 -166q-67 -59 -170 -64z" />
    <glyph glyph-name="Egrave" unicode="&#xc8;" horiz-adv-x="573" 
d="M514 0h-416v700h416v-30h-384v-302h336v-30h-336v-308h384v-30zM374 762h-37l-125 138v13h35z" />
    <glyph glyph-name="Eacute" unicode="&#xc9;" horiz-adv-x="573" 
d="M514 0h-416v700h416v-30h-384v-302h336v-30h-336v-308h384v-30zM300 762h-36l126 151h36v-13z" />
    <glyph glyph-name="Ecircumflex" unicode="&#xca;" horiz-adv-x="573" 
d="M514 0h-416v700h416v-30h-384v-302h336v-30h-336v-308h384v-30zM200 762h-31v13l124 138h33l125 -138v-13h-30l-112 126z" />
    <glyph glyph-name="Edieresis" unicode="&#xcb;" horiz-adv-x="573" 
d="M514 0h-416v700h416v-30h-384v-302h336v-30h-336v-308h384v-30zM225 768h-32v118h32v-118zM412 768h-32v118h32v-118z" />
    <glyph glyph-name="Igrave" unicode="&#xcc;" horiz-adv-x="228" 
d="M130 0h-32v700h32v-700zM135 762h-37l-125 138v13h35z" />
    <glyph glyph-name="Iacute" unicode="&#xcd;" horiz-adv-x="228" 
d="M130 0h-32v700h32v-700zM133 762h-36l126 151h36v-13z" />
    <glyph glyph-name="Icircumflex" unicode="&#xce;" horiz-adv-x="228" 
d="M130 0h-32v700h32v-700zM4 762h-31v13l124 138h33l125 -138v-13h-30l-112 126z" />
    <glyph glyph-name="Idieresis" unicode="&#xcf;" horiz-adv-x="228" 
d="M130 0h-32v700h32v-700zM37 768h-33v119h33v-119zM224 768h-32v119h32v-119z" />
    <glyph glyph-name="Eth" unicode="&#xd0;" horiz-adv-x="690" 
d="M151 337v-307h203q105 0 165.5 57.5t60.5 158.5v208q0 101 -60.5 158.5t-165.5 57.5h-203v-305h227v-28h-227zM354 0h-235v337h-99v28h99v335h235q118 0 188 -66q70 -64 70 -181v-206q0 -116 -70 -182q-71 -65 -188 -65z" />
    <glyph glyph-name="Ntilde" unicode="&#xd1;" horiz-adv-x="686" 
d="M130 0h-32v700h30l428 -641v641h32v-700h-29l-429 640v-640zM200 783l-22 17q37 49 57 68q19 16 44 16q22 0 62 -29l27 -20q34 -25 49 -25t28 13q18 18 51 59l21 -17q-40 -52 -57 -67q-20 -17 -45 -17t-60 28l-28 21q-34 25 -48 25q-22 0 -72 -64q-2 -2 -3.5 -4t-3.5 -4z
" />
    <glyph glyph-name="Ograve" unicode="&#xd2;" horiz-adv-x="672" 
d="M562 233v234q0 101 -60.5 159.5t-165.5 58.5t-165.5 -58.5t-60.5 -159.5v-234q0 -101 60.5 -159.5t165.5 -58.5t165.5 58.5t60.5 159.5zM78 234v232q0 117 69 183t189 66t189 -66t69 -183v-232q0 -117 -69 -183t-189 -66t-189 66t-69 183zM385 762h-37l-125 138v13h35z
" />
    <glyph glyph-name="Oacute" unicode="&#xd3;" horiz-adv-x="672" 
d="M562 233v234q0 101 -60.5 159.5t-165.5 58.5t-165.5 -58.5t-60.5 -159.5v-234q0 -101 60.5 -159.5t165.5 -58.5t165.5 58.5t60.5 159.5zM78 234v232q0 117 69 183t189 66t189 -66t69 -183v-232q0 -117 -69 -183t-189 -66t-189 66t-69 183zM354 762h-36l126 151h36v-13z
" />
    <glyph glyph-name="Ocircumflex" unicode="&#xd4;" horiz-adv-x="672" 
d="M562 233v234q0 101 -60.5 159.5t-165.5 58.5t-165.5 -58.5t-60.5 -159.5v-234q0 -101 60.5 -159.5t165.5 -58.5t165.5 58.5t60.5 159.5zM78 234v232q0 117 69 183t189 66t189 -66t69 -183v-232q0 -117 -69 -183t-189 -66t-189 66t-69 183zM233 762h-31v13l124 138h33
l125 -138v-13h-30l-112 126z" />
    <glyph glyph-name="Otilde" unicode="&#xd5;" horiz-adv-x="672" 
d="M562 233v234q0 101 -60.5 159.5t-165.5 58.5t-165.5 -58.5t-60.5 -159.5v-234q0 -101 60.5 -159.5t165.5 -58.5t165.5 58.5t60.5 159.5zM78 234v232q0 117 69 183t189 66t189 -66t69 -183v-232q0 -117 -69 -183t-189 -66t-189 66t-69 183zM193 783l-22 17q37 49 57 68
q19 16 44 16q22 0 62 -29l27 -20q34 -25 49 -25t28 13q18 18 51 59l21 -17q-40 -52 -57 -67q-20 -17 -45 -17t-60 28l-28 21q-34 25 -48 25q-22 0 -72 -64q-2 -2 -3.5 -4t-3.5 -4z" />
    <glyph glyph-name="Odieresis" unicode="&#xd6;" horiz-adv-x="672" 
d="M562 233v234q0 101 -60.5 159.5t-165.5 58.5t-165.5 -58.5t-60.5 -159.5v-234q0 -101 60.5 -159.5t165.5 -58.5t165.5 58.5t60.5 159.5zM78 234v232q0 117 69 183t189 66t189 -66t69 -183v-232q0 -117 -69 -183t-189 -66t-189 66t-69 183zM260 768h-32v118h32v-118z
M447 768h-32v118h32v-118z" />
    <glyph glyph-name="multiply" unicode="&#xd7;" horiz-adv-x="449" 
d="M225 293l-153 -153l-20 19l153 154l-153 152l20 20l153 -153l153 153l19 -20l-153 -152l153 -154l-19 -19z" />
    <glyph glyph-name="Oslash" unicode="&#xd8;" horiz-adv-x="672" 
d="M336 -15q-68 0 -122 22l-43 -107h-27v12l44 108q-110 63 -110 214v232q0 117 69 183t189 66q67 0 122 -23l44 108h27v-12l-44 -109q109 -64 109 -213v-232q0 -117 -69 -183t-189 -66zM110 467v-234q0 -126 90 -183l247 613q-48 22 -111 22q-105 0 -165.5 -58.5
t-60.5 -159.5zM336 15q105 0 166 58.5t61 159.5v234q0 123 -90 182l-247 -613q46 -21 110 -21z" />
    <glyph glyph-name="Ugrave" unicode="&#xd9;" horiz-adv-x="666" 
d="M333 -15q-112 0 -178.5 66t-66.5 182v467h32v-467q0 -102 57 -160t156 -58t156 58t57 160v467h32v-467q0 -117 -68 -183q-68 -65 -177 -65zM394 762h-37l-125 138v13h35z" />
    <glyph glyph-name="Uacute" unicode="&#xda;" horiz-adv-x="666" 
d="M333 -15q-112 0 -178.5 66t-66.5 182v467h32v-467q0 -102 57 -160t156 -58t156 58t57 160v467h32v-467q0 -117 -68 -183q-68 -65 -177 -65zM339 762h-36l126 151h36v-13z" />
    <glyph glyph-name="Ucircumflex" unicode="&#xdb;" horiz-adv-x="666" 
d="M333 -15q-112 0 -178.5 66t-66.5 182v467h32v-467q0 -102 57 -160t156 -58t156 58t57 160v467h32v-467q0 -117 -68 -183q-68 -65 -177 -65zM223 762h-31v13l124 138h33l125 -138v-13h-30l-112 126z" />
    <glyph glyph-name="Udieresis" unicode="&#xdc;" horiz-adv-x="666" 
d="M333 -15q-112 0 -178.5 66t-66.5 182v467h32v-467q0 -102 57 -160t156 -58t156 58t57 160v467h32v-467q0 -117 -68 -183q-68 -65 -177 -65zM256 768h-32v118h32v-118zM443 768h-32v118h32v-118z" />
    <glyph glyph-name="Yacute" unicode="&#xdd;" horiz-adv-x="600" 
d="M316 0h-32v278l-266 410v12h31l251 -391l252 391h29v-12l-265 -409v-279zM309 762h-36l126 151h36v-13z" />
    <glyph glyph-name="Thorn" unicode="&#xde;" horiz-adv-x="613" 
d="M130 0h-32v700h32v-145h245q86 0 135.5 -54.5t49.5 -148.5t-49.5 -148.5t-135.5 -54.5h-245v-149zM130 525v-346h240q73 0 115.5 46.5t42.5 126.5q0 81 -42 127t-116 46h-240z" />
    <glyph glyph-name="germandbls" unicode="&#xdf;" horiz-adv-x="578" 
d="M118 0h-30v469q0 114 54.5 176t153.5 62q89 0 141 -50q51 -49 51 -123q0 -59 -30 -98t-84 -51q63 -12 104.5 -62t41.5 -121q0 -98 -56 -150t-160 -52q-53 0 -73 7v28q35 -7 71 -7q92 0 140 44.5t48 130.5q0 76 -50 122t-134 46h-63v27h61q75 0 113.5 35.5t38.5 99.5
t-43.5 105t-116.5 41q-85 0 -131.5 -54t-46.5 -153v-472z" />
    <glyph glyph-name="agrave" unicode="&#xe0;" horiz-adv-x="530" 
d="M216 -12q-72 0 -117.5 37.5t-45.5 105.5q0 76 54 115.5t156 39.5h154v70q0 61 -40 96.5t-114 35.5q-71 0 -111.5 -35.5t-40.5 -94.5h-30q0 71 48 114.5t134 43.5q88 0 136 -42.5t48 -115.5v-358h-22l-8 77q-30 -31 -86 -61q-53 -28 -115 -28zM221 16q98 0 196 92v151
h-154q-180 0 -180 -126q0 -57 38 -87t100 -30zM338 590h-34l-117 128v12h33z" />
    <glyph glyph-name="aacute" unicode="&#xe1;" horiz-adv-x="529" 
d="M216 -12q-72 0 -117.5 37.5t-45.5 105.5q0 76 54 115.5t156 39.5h154v70q0 61 -40 96.5t-114 35.5q-71 0 -111.5 -35.5t-40.5 -94.5h-30q0 71 48 114.5t134 43.5q88 0 136 -42.5t48 -115.5v-358h-22l-8 77q-30 -31 -86 -61q-53 -28 -115 -28zM221 16q98 0 196 92v151
h-154q-180 0 -180 -126q0 -57 38 -87t100 -30zM275 590h-34l118 140h33v-12z" />
    <glyph glyph-name="acircumflex" unicode="&#xe2;" horiz-adv-x="530" 
d="M216 -12q-72 0 -117.5 37.5t-45.5 105.5q0 76 54 115.5t156 39.5h154v70q0 61 -40 96.5t-114 35.5q-71 0 -111.5 -35.5t-40.5 -94.5h-30q0 71 48 114.5t134 43.5q88 0 136 -42.5t48 -115.5v-358h-22l-8 77q-30 -31 -86 -61q-53 -28 -115 -28zM221 16q98 0 196 92v151
h-154q-180 0 -180 -126q0 -57 38 -87t100 -30zM175 590h-29v12l116 128h31l116 -128v-12h-28l-104 117z" />
    <glyph glyph-name="atilde" unicode="&#xe3;" horiz-adv-x="530" 
d="M216 -12q-72 0 -117.5 37.5t-45.5 105.5q0 76 54 115.5t156 39.5h154v70q0 61 -40 96.5t-114 35.5q-71 0 -111.5 -35.5t-40.5 -94.5h-30q0 71 48 114.5t134 43.5q88 0 136 -42.5t48 -115.5v-358h-22l-8 77q-30 -31 -86 -61q-53 -28 -115 -28zM221 16q98 0 196 92v151
h-154q-180 0 -180 -126q0 -57 38 -87t100 -30zM147 636l-13 -15l-21 17q38 50 56 66q17 16 42 16q21 0 61 -29l26 -19q33 -24 48 -24t28 13q14 13 48 57l21 -17q-39 -52 -56 -66q-17 -16 -43 -16q-24 0 -59 28l-27 20q-32 24 -47 24q-20 0 -42 -28q-5 -5 -22 -27z" />
    <glyph glyph-name="adieresis" unicode="&#xe4;" horiz-adv-x="530" 
d="M216 -12q-72 0 -117.5 37.5t-45.5 105.5q0 76 54 115.5t156 39.5h154v70q0 61 -40 96.5t-114 35.5q-71 0 -111.5 -35.5t-40.5 -94.5h-30q0 71 48 114.5t134 43.5q88 0 136 -42.5t48 -115.5v-358h-22l-8 77q-30 -31 -86 -61q-53 -28 -115 -28zM221 16q98 0 196 92v151
h-154q-180 0 -180 -126q0 -57 38 -87t100 -30zM192 595h-30v110h30v-110zM366 595h-30v110h30v-110z" />
    <glyph glyph-name="aring" unicode="&#xe5;" horiz-adv-x="530" 
d="M216 -12q-72 0 -117.5 37.5t-45.5 105.5q0 76 54 115.5t156 39.5h154v70q0 61 -40 96.5t-114 35.5q-71 0 -111.5 -35.5t-40.5 -94.5h-30q0 71 48 114.5t134 43.5q88 0 136 -42.5t48 -115.5v-358h-22l-8 77q-30 -31 -86 -61q-53 -28 -115 -28zM221 16q98 0 196 92v151
h-154q-180 0 -180 -126q0 -57 38 -87t100 -30zM200 602q-28 28 -28 66t28 65q28 28 68 28t68 -28q29 -27 29 -65t-29 -66q-28 -27 -68 -27t-68 27zM218 716q-20 -20 -20 -48t20 -48q21 -20 50 -20t50 20t21 48t-21 48t-50 20t-50 -20z" />
    <glyph glyph-name="ae" unicode="&#xe6;" horiz-adv-x="878" 
d="M216 -12q-73 0 -118 36.5t-45 102.5q0 74 54 113t156 39h154v78q0 61 -40 96t-114 35q-71 0 -111.5 -35.5t-40.5 -94.5h-30q0 71 48 114.5t134 43.5q70 0 114.5 -29.5t57.5 -81.5q19 52 66 81.5t115 29.5q94 0 146 -51t52 -136v-77h-367v-80q0 -72 45.5 -114t123.5 -42
q73 0 115 35t49 97h30q-7 -74 -57.5 -117t-136.5 -43q-76 0 -125 33.5t-65 89.5q-34 -56 -89 -89.5t-121 -33.5zM221 16q67 0 122 39q54 38 74 86v111h-154q-180 0 -180 -122q0 -55 38 -84.5t100 -29.5zM447 329v-50h337v49q0 73 -44.5 116.5t-124.5 43.5q-78 0 -123 -43.5
t-45 -115.5z" />
    <glyph glyph-name="ccedilla" unicode="&#xe7;" horiz-adv-x="522" 
d="M184 -160h-30v12l104 136q-91 2 -142 53t-51 134v154q0 85 52.5 136t146.5 51q90 0 143.5 -47t53.5 -125v-4h-30v5q0 64 -45 103.5t-122 39.5q-79 0 -124 -43.5t-45 -115.5v-154q0 -73 45 -116t124 -43q77 0 122 40.5t45 105.5v5h30v-5q0 -72 -46 -119t-124 -54z" />
    <glyph glyph-name="egrave" unicode="&#xe8;" horiz-adv-x="527" 
d="M265 -12q-95 0 -147.5 51t-52.5 136v154q0 85 53 136t147 51t146 -51t52 -136v-85h-368v-69q0 -72 45.5 -115.5t124.5 -43.5q73 0 114.5 35t48.5 97h30q-6 -74 -56.5 -117t-136.5 -43zM95 329v-58h338v58q0 73 -44.5 116t-124.5 43q-79 0 -124 -43.5t-45 -115.5zM308 590
h-34l-117 128v12h33z" />
    <glyph glyph-name="eacute" unicode="&#xe9;" horiz-adv-x="527" 
d="M265 -12q-95 0 -147.5 51t-52.5 136v154q0 85 53 136t147 51t146 -51t52 -136v-85h-368v-69q0 -72 45.5 -115.5t124.5 -43.5q73 0 114.5 35t48.5 97h30q-6 -74 -56.5 -117t-136.5 -43zM95 329v-58h338v58q0 73 -44.5 116t-124.5 43q-79 0 -124 -43.5t-45 -115.5zM250 590
h-34l118 140h33v-12z" />
    <glyph glyph-name="ecircumflex" unicode="&#xea;" horiz-adv-x="527" 
d="M265 -12q-95 0 -147.5 51t-52.5 136v154q0 85 53 136t147 51t146 -51t52 -136v-85h-368v-69q0 -72 45.5 -115.5t124.5 -43.5q73 0 114.5 35t48.5 97h30q-6 -74 -56.5 -117t-136.5 -43zM95 329v-58h338v58q0 73 -44.5 116t-124.5 43q-79 0 -124 -43.5t-45 -115.5zM167 590
h-29v12l116 128h31l116 -128v-12h-28l-104 117z" />
    <glyph glyph-name="edieresis" unicode="&#xeb;" horiz-adv-x="527" 
d="M265 -12q-95 0 -147.5 51t-52.5 136v154q0 85 53 136t147 51t146 -51t52 -136v-85h-368v-69q0 -72 45.5 -115.5t124.5 -43.5q73 0 114.5 35t48.5 97h30q-6 -74 -56.5 -117t-136.5 -43zM95 329v-58h338v58q0 73 -44.5 116t-124.5 43q-79 0 -124 -43.5t-45 -115.5zM192 595
h-30v110h30v-110zM366 595h-30v110h30v-110z" />
    <glyph glyph-name="igrave" unicode="&#xec;" horiz-adv-x="206" 
d="M123 588h-34l-117 128v12h33zM118 0h-30v504h30v-504z" />
    <glyph glyph-name="iacute" unicode="&#xed;" horiz-adv-x="206" 
d="M117 590h-34l118 140h33v-12zM118 0h-30v504h30v-504z" />
    <glyph glyph-name="icircumflex" unicode="&#xee;" horiz-adv-x="206" 
d="M1 590h-29v12l116 128h31l116 -128v-12h-28l-104 117zM118 0h-30v504h30v-504z" />
    <glyph glyph-name="idieresis" unicode="&#xef;" horiz-adv-x="206" 
d="M31 595h-30v110h30v-110zM205 595h-30v110h30v-110zM118 0h-30v504h30v-504z" />
    <glyph glyph-name="eth" unicode="&#xf0;" horiz-adv-x="550" 
d="M271 -12q-94 0 -147 51t-53 136v90q0 85 47 136t130 51q105 0 190 -91q-6 45 -29 85t-74 102h-187v27h165l-92 115v15h27l102 -130h118v-27h-97q51 -64 75 -114q25 -49 25 -113v-146q0 -85 -53 -136t-147 -51zM271 16q79 0 124.5 44t45.5 116v146q-97 102 -187 102
q-71 0 -112 -44.5t-41 -116.5v-87q0 -73 44.5 -116.5t125.5 -43.5z" />
    <glyph glyph-name="ntilde" unicode="&#xf1;" horiz-adv-x="566" 
d="M158 636l-13 -15l-21 17q38 50 56 66q17 16 42 16q21 0 61 -29l26 -19q33 -24 48 -24t28 13t48 57l21 -17q-39 -52 -56 -66q-17 -16 -43 -16q-24 0 -59 28l-27 20q-31 24 -47 24q-20 0 -42 -28q-5 -5 -22 -27zM118 0h-30v504h22l7 -85q82 97 194 97q77 0 124.5 -49.5
t47.5 -137.5v-329h-30v324q0 79 -40 121.5t-106 42.5q-104 0 -189 -103v-385z" />
    <glyph glyph-name="ograve" unicode="&#xf2;" horiz-adv-x="529" 
d="M265 16q81 0 125 43.5t44 116.5v152q0 73 -44 116.5t-125 43.5q-79 0 -124.5 -44t-45.5 -116v-152q0 -72 45.5 -116t124.5 -44zM265 -12q-94 0 -147 51t-53 136v154q0 84 53 135.5t147 51.5q95 0 147 -51t52 -136v-154q0 -85 -52 -136t-147 -51zM301 590h-34l-117 128v12
h33z" />
    <glyph glyph-name="oacute" unicode="&#xf3;" horiz-adv-x="529" 
d="M265 16q81 0 125 43.5t44 116.5v152q0 73 -44 116.5t-125 43.5q-79 0 -124.5 -44t-45.5 -116v-152q0 -72 45.5 -116t124.5 -44zM265 -12q-94 0 -147 51t-53 136v154q0 84 53 135.5t147 51.5q95 0 147 -51t52 -136v-154q0 -85 -52 -136t-147 -51zM271 590h-34l118 140h33
v-12z" />
    <glyph glyph-name="ocircumflex" unicode="&#xf4;" horiz-adv-x="529" 
d="M162 590h-29v12l116 128h31l116 -128v-12h-28l-104 117zM265 16q81 0 125 43.5t44 116.5v152q0 73 -44 116.5t-125 43.5q-79 0 -124.5 -44t-45.5 -116v-152q0 -72 45.5 -116t124.5 -44zM265 -12q-94 0 -147 51t-53 136v154q0 84 53 135.5t147 51.5q95 0 147 -51t52 -136
v-154q0 -85 -52 -136t-147 -51z" />
    <glyph glyph-name="otilde" unicode="&#xf5;" horiz-adv-x="529" 
d="M135 636l-13 -15l-21 17q38 50 56 66q17 16 42 16q21 0 61 -29l26 -19q33 -24 48 -24t28 13q14 13 48 57l21 -17q-39 -52 -56 -66q-17 -16 -43 -16q-24 0 -59 28l-27 20q-31 24 -47 24q-20 0 -42 -28q-5 -5 -22 -27zM265 16q81 0 125 43.5t44 116.5v152q0 73 -44 116.5
t-125 43.5q-79 0 -124.5 -44t-45.5 -116v-152q0 -72 45.5 -116t124.5 -44zM265 -12q-94 0 -147 51t-53 136v154q0 84 53 135.5t147 51.5q95 0 147 -51t52 -136v-154q0 -85 -52 -136t-147 -51z" />
    <glyph glyph-name="odieresis" unicode="&#xf6;" horiz-adv-x="529" 
d="M265 16q81 0 125 43.5t44 116.5v152q0 73 -44 116.5t-125 43.5q-79 0 -124.5 -44t-45.5 -116v-152q0 -72 45.5 -116t124.5 -44zM265 -12q-94 0 -147 51t-53 136v154q0 84 53 135.5t147 51.5q95 0 147 -51t52 -136v-154q0 -85 -52 -136t-147 -51zM191 595h-30v110h30v-110
zM365 595h-30v110h30v-110z" />
    <glyph glyph-name="divide" unicode="&#xf7;" horiz-adv-x="510" 
d="M272 106h-33v110h33v-110zM458 300h-406v26h406v-26zM272 410h-33v110h33v-110z" />
    <glyph glyph-name="oslash" unicode="&#xf8;" horiz-adv-x="529" 
d="M265 -12q-61 0 -108 24l-67 -138h-25v15l68 137q-68 51 -68 149v154q0 84 53 135.5t147 51.5q52 0 100 -20l74 150h25v-15l-74 -149q74 -51 74 -153v-154q0 -85 -52 -136t-147 -51zM265 16q81 0 125 43.5t44 116.5v152q0 85 -58 128l-206 -418q38 -22 95 -22zM95 328
v-152q0 -79 53 -123l205 416q-37 19 -88 19q-79 0 -124.5 -44t-45.5 -116z" />
    <glyph glyph-name="ugrave" unicode="&#xf9;" horiz-adv-x="566" 
d="M255 -12q-77 0 -124.5 49.5t-47.5 137.5v329h30v-324q0 -79 39.5 -121.5t106.5 -42.5q104 0 189 103v385h30v-504h-22l-7 85q-37 -44 -88 -70.5t-106 -26.5zM329 590h-34l-117 128v12h33z" />
    <glyph glyph-name="uacute" unicode="&#xfa;" horiz-adv-x="566" 
d="M255 -12q-77 0 -124.5 49.5t-47.5 137.5v329h30v-324q0 -79 39.5 -121.5t106.5 -42.5q104 0 189 103v385h30v-504h-22l-7 85q-37 -44 -88 -70.5t-106 -26.5zM274 590h-34l118 140h33v-12z" />
    <glyph glyph-name="ucircumflex" unicode="&#xfb;" horiz-adv-x="566" 
d="M180 590h-29v12l116 128h31l116 -128v-12h-28l-104 117zM255 -12q-77 0 -124.5 49.5t-47.5 137.5v329h30v-324q0 -79 39.5 -121.5t106.5 -42.5q104 0 189 103v385h30v-504h-22l-7 85q-37 -44 -88 -70.5t-106 -26.5z" />
    <glyph glyph-name="udieresis" unicode="&#xfc;" horiz-adv-x="566" 
d="M255 -12q-77 0 -124.5 49.5t-47.5 137.5v329h30v-324q0 -79 39.5 -121.5t106.5 -42.5q104 0 189 103v385h30v-504h-22l-7 85q-37 -44 -88 -70.5t-106 -26.5zM208 595h-30v110h30v-110zM382 595h-30v110h30v-110z" />
    <glyph glyph-name="yacute" unicode="&#xfd;" horiz-adv-x="494" 
d="M196 -160h-27v12l63 148l-204 490v14h28l192 -466l190 466h28v-14zM242 590h-34l118 140h33v-12z" />
    <glyph glyph-name="thorn" unicode="&#xfe;" horiz-adv-x="560" 
d="M118 -160h-30v865h30v-285q82 96 193 96q82 0 129 -51t47 -136v-154q0 -85 -47 -136t-130 -51q-54 0 -105 27t-87 69v-244zM308 16q70 0 109.5 44t39.5 117v150q0 73 -39.5 117t-109.5 44q-96 0 -190 -102v-268q94 -102 190 -102z" />
    <glyph glyph-name="ydieresis" unicode="&#xff;" horiz-adv-x="494" 
d="M196 -160h-27v12l63 148l-204 490v14h28l192 -466l190 466h28v-14zM173 595h-30v110h30v-110zM347 595h-30v110h30v-110z" />
    <glyph glyph-name="Amacron" unicode="&#x100;" horiz-adv-x="652" 
d="M57 0h-29v12l281 688h33l282 -688v-12h-31l-85 208h-366zM325 659l-172 -421h344zM459 814h-266v27h266v-27z" />
    <glyph glyph-name="amacron" unicode="&#x101;" horiz-adv-x="530" 
d="M216 -12q-72 0 -117.5 37.5t-45.5 105.5q0 76 54 115.5t156 39.5h154v70q0 61 -40 96.5t-114 35.5q-71 0 -111.5 -35.5t-40.5 -94.5h-30q0 71 48 114.5t134 43.5q88 0 136 -42.5t48 -115.5v-358h-22l-8 77q-30 -31 -86 -61q-53 -28 -115 -28zM221 16q98 0 196 92v151
h-154q-180 0 -180 -126q0 -57 38 -87t100 -30zM391 637h-248v26h248v-26z" />
    <glyph glyph-name="Aogonek" unicode="&#x104;" horiz-adv-x="652" 
d="M685 -160h-52q-45 0 -70.5 19.5t-25.5 53.5q0 42 56 87l-85 208h-366l-85 -208h-29v12l281 688h33l282 -688v-12q-60 -44 -60 -82q0 -53 77 -53h44v-25zM325 659l-172 -421h344z" />
    <glyph glyph-name="aogonek" unicode="&#x105;" horiz-adv-x="529" 
d="M508 -160h-53q-45 0 -70.5 19t-25.5 53q0 46 66 91l-8 74q-30 -31 -86 -61q-53 -28 -115 -28q-72 0 -117.5 37.5t-45.5 105.5q0 76 54 115.5t156 39.5h154v70q0 61 -40 96.5t-114 35.5q-71 0 -111.5 -35.5t-40.5 -94.5h-30q0 71 48 114.5t134 43.5q88 0 136 -42.5
t48 -115.5v-358q-60 -44 -60 -83q0 -52 77 -52h44v-25zM221 16q98 0 196 92v151h-154q-180 0 -180 -126q0 -57 38 -87t100 -30z" />
    <glyph glyph-name="Cacute" unicode="&#x106;" horiz-adv-x="657" 
d="M339 -15q-121 0 -191 66.5t-70 185.5v226q0 119 70 185.5t191 66.5q107 0 178 -61q72 -62 72 -169v-10h-32v10q0 95 -64 147q-64 53 -154 53q-108 0 -168.5 -58t-60.5 -162v-230q0 -104 60.5 -162t168.5 -58q90 0 154 53q64 52 64 147v10h32v-10q0 -107 -72 -169
q-71 -61 -178 -61zM348 762h-36l126 151h36v-13z" />
    <glyph glyph-name="cacute" unicode="&#x107;" horiz-adv-x="522" 
d="M264 -12q-94 0 -146.5 51t-52.5 136v154q0 85 52.5 136t146.5 51q90 0 143.5 -47t53.5 -125v-4h-30v5q0 64 -45 103.5t-122 39.5q-79 0 -124 -43.5t-45 -115.5v-154q0 -73 45 -116t124 -43q77 0 122 40.5t45 105.5v5h30v-5q0 -76 -53 -126q-52 -48 -144 -48zM255 590h-34
l118 140h33v-12z" />
    <glyph glyph-name="Ccaron" unicode="&#x10c;" horiz-adv-x="657" 
d="M339 -15q-121 0 -191 66.5t-70 185.5v226q0 119 70 185.5t191 66.5q107 0 178 -61q72 -62 72 -169v-10h-32v10q0 95 -64 147q-64 53 -154 53q-108 0 -168.5 -58t-60.5 -162v-230q0 -104 60.5 -162t168.5 -58q90 0 154 53q64 52 64 147v10h32v-10q0 -107 -72 -169
q-71 -61 -178 -61zM353 763h-33l-124 137v13h31l109 -125l112 125h30v-13z" />
    <glyph glyph-name="ccaron" unicode="&#x10d;" horiz-adv-x="522" 
d="M264 -12q-94 0 -146.5 51t-52.5 136v154q0 85 52.5 136t146.5 51q90 0 143.5 -47t53.5 -125v-4h-30v5q0 64 -45 103.5t-122 39.5q-79 0 -124 -43.5t-45 -115.5v-154q0 -73 45 -116t124 -43q77 0 122 40.5t45 105.5v5h30v-5q0 -76 -53 -126q-52 -48 -144 -48zM282 590h-31
l-116 128v12h29l102 -117l104 117h28v-12z" />
    <glyph glyph-name="Dcaron" unicode="&#x10e;" horiz-adv-x="669" 
d="M130 670v-640h203q105 0 165.5 58t60.5 159v206q0 101 -60.5 159t-165.5 58h-203zM333 0h-235v700h235q120 0 189 -65.5t69 -181.5v-206q0 -116 -69 -181.5t-189 -65.5zM336 763h-33l-124 137v13h31l109 -125l112 125h30v-13z" />
    <glyph glyph-name="dcaron" unicode="&#x10f;" horiz-adv-x="647" 
d="M442 705h30v-705h-22l-7 85q-82 -97 -194 -97q-82 0 -129 51t-47 136v154q0 85 47 136t130 51q54 0 105 -27t87 -69v285zM252 488q-70 0 -109.5 -44t-39.5 -117v-150q0 -73 39.5 -117t109.5 -44q96 0 190 102v268q-94 102 -190 102zM589 532h-26l70 173h32v-15z" />
    <glyph glyph-name="Emacron" unicode="&#x112;" horiz-adv-x="573" 
d="M514 0h-416v700h416v-30h-384v-302h336v-30h-336v-308h384v-30zM440 814h-266v27h266v-27z" />
    <glyph glyph-name="emacron" unicode="&#x113;" horiz-adv-x="527" 
d="M265 -12q-95 0 -147.5 51t-52.5 136v154q0 85 53 136t147 51t146 -51t52 -136v-85h-368v-69q0 -72 45.5 -115.5t124.5 -43.5q73 0 114.5 35t48.5 97h30q-6 -74 -56.5 -117t-136.5 -43zM95 329v-58h338v58q0 73 -44.5 116t-124.5 43q-79 0 -124 -43.5t-45 -115.5zM389 637
h-248v26h248v-26z" />
    <glyph glyph-name="Edotaccent" unicode="&#x116;" horiz-adv-x="573" 
d="M514 0h-416v700h416v-30h-384v-302h336v-30h-336v-308h384v-30zM320 774h-32v118h32v-118z" />
    <glyph glyph-name="edotaccent" unicode="&#x117;" horiz-adv-x="527" 
d="M265 -12q-95 0 -147.5 51t-52.5 136v154q0 85 53 136t147 51t146 -51t52 -136v-85h-368v-69q0 -72 45.5 -115.5t124.5 -43.5q73 0 114.5 35t48.5 97h30q-6 -74 -56.5 -117t-136.5 -43zM95 329v-58h338v58q0 73 -44.5 116t-124.5 43q-79 0 -124 -43.5t-45 -115.5zM280 600
h-30v110h30v-110z" />
    <glyph glyph-name="Eogonek" unicode="&#x118;" horiz-adv-x="573" 
d="M576 -160h-53q-45 0 -70.5 19t-25.5 54q0 42 56 87h-385v700h416v-30h-384v-302h336v-30h-336v-308h384v-30q-59 -44 -59 -82q0 -53 77 -53h44v-25z" />
    <glyph glyph-name="eogonek" unicode="&#x119;" horiz-adv-x="527" 
d="M410 -160h-53q-45 0 -70.5 19.5t-25.5 53.5q0 40 46 79q-25 -4 -42 -4q-95 0 -147.5 51t-52.5 136v154q0 85 53 136t147 51t146 -51t52 -136v-85h-368v-69q0 -72 45.5 -115.5t124.5 -43.5q73 0 114.5 35t48.5 97h30q-6 -55 -30.5 -88.5t-69.5 -55.5q-30 -15 -49.5 -39.5
t-19.5 -46.5q0 -53 77 -53h44v-25zM95 329v-58h338v58q0 73 -44.5 116t-124.5 43q-79 0 -124 -43.5t-45 -115.5z" />
    <glyph glyph-name="Ecaron" unicode="&#x11a;" horiz-adv-x="573" 
d="M514 0h-416v700h416v-30h-384v-302h336v-30h-336v-308h384v-30zM327 763h-33l-124 137v13h31l109 -125l112 125h30v-13z" />
    <glyph glyph-name="ecaron" unicode="&#x11b;" horiz-adv-x="527" 
d="M265 -12q-95 0 -147.5 51t-52.5 136v154q0 85 53 136t147 51t146 -51t52 -136v-85h-368v-69q0 -72 45.5 -115.5t124.5 -43.5q73 0 114.5 35t48.5 97h30q-6 -74 -56.5 -117t-136.5 -43zM95 329v-58h338v58q0 73 -44.5 116t-124.5 43q-79 0 -124 -43.5t-45 -115.5zM278 590
h-31l-116 128v12h29l102 -117l104 117h28v-12z" />
    <glyph glyph-name="uni0122" unicode="&#x122;" horiz-adv-x="689" 
d="M342 -15q-123 0 -193 67q-71 68 -71 185v226q0 118 71.5 185t195.5 67q107 0 180 -61q73 -60 75 -168v-9h-33v9q0 93 -65 146t-157 53q-109 0 -172 -58t-63 -162v-228q0 -104 63 -163t171 -59q159 0 224 152v140h-197v30h229v-337h-24l-4 122q-66 -137 -230 -137z
M307 -240h-26l70 173h32v-15z" />
    <glyph glyph-name="uni0123" unicode="&#x123;" horiz-adv-x="560" 
d="M279 -172q-87 0 -139.5 43t-55.5 118h30q3 -60 48 -96.5t117 -36.5q78 0 120.5 43t42.5 124v108q-82 -96 -192 -96q-83 0 -130 50.5t-47 136.5v107q0 85 47 136t129 51q112 0 194 -97l7 85h22v-480q0 -95 -51 -145.5t-142 -50.5zM253 63q95 0 189 102v221
q-94 102 -190 102q-70 0 -109.5 -44t-39.5 -117v-103q0 -73 40 -117t110 -44zM334 759h24l-65 -173h-29v15z" />
    <glyph glyph-name="Imacron" unicode="&#x12a;" horiz-adv-x="228" 
d="M130 0h-32v700h32v-700zM247 814h-266v27h266v-27z" />
    <glyph glyph-name="imacron" unicode="&#x12b;" horiz-adv-x="206" 
d="M118 0h-30v504h30v-504zM227 637h-248v26h248v-26z" />
    <glyph glyph-name="Iogonek" unicode="&#x12e;" horiz-adv-x="228" 
d="M191 -160h-52q-45 0 -70.5 19.5t-25.5 53.5q0 44 55 87v700h32v-700q-60 -44 -60 -82q0 -53 77 -53h44v-25z" />
    <glyph glyph-name="iogonek" unicode="&#x12f;" horiz-adv-x="206" 
d="M179 -160h-52q-45 0 -70.5 19t-25.5 53q0 44 57 91v501h30v-504q-60 -44 -60 -83q0 -52 77 -52h44v-25zM118 595h-30v110h30v-110z" />
    <glyph glyph-name="dotlessi" unicode="&#x131;" horiz-adv-x="206" 
d="M118 0h-30v504h30v-504z" />
    <glyph glyph-name="uni0136" unicode="&#x136;" horiz-adv-x="587" 
d="M130 0h-32v700h32v-333h151l236 333h30v-12l-238 -334l250 -342v-12h-31l-246 337h-152v-337zM251 -240h-26l70 173h32v-15z" />
    <glyph glyph-name="uni0137" unicode="&#x137;" horiz-adv-x="501" 
d="M118 0h-30v705h30v-434h119l180 233h26v-14l-178 -231l188 -244v-15h-27l-188 244h-120v-244zM216 -240h-24l65 173h29v-15z" />
    <glyph glyph-name="Lacute" unicode="&#x139;" horiz-adv-x="554" 
d="M526 0h-427v700h32v-670h395v-30zM134 762h-36l126 151h36v-13z" />
    <glyph glyph-name="lacute" unicode="&#x13a;" horiz-adv-x="206" 
d="M121 756h-34l118 140h33v-12zM118 0h-30v705h30v-705z" />
    <glyph glyph-name="uni013B" unicode="&#x13b;" horiz-adv-x="553" 
d="M525 0h-427v700h32v-670h395v-30zM267 -240h-26l70 173h32v-15z" />
    <glyph glyph-name="uni013C" unicode="&#x13c;" horiz-adv-x="206" 
d="M118 0h-30v705h30v-705zM47 -240h-24l65 173h29v-15z" />
    <glyph glyph-name="Lcaron" unicode="&#x13d;" horiz-adv-x="559" 
d="M525 0h-427v700h32v-670h395v-30zM455 527h-26l70 173h32v-15z" />
    <glyph glyph-name="lcaron" unicode="&#x13e;" horiz-adv-x="292" 
d="M234 532h-26l70 173h32v-15zM118 0h-30v705h30v-705z" />
    <glyph glyph-name="Lslash" unicode="&#x141;" horiz-adv-x="597" 
d="M569 0h-427v282l-95 -76h-15v26l110 88v380h32v-355l206 167h15v-26l-221 -180v-276h395v-30z" />
    <glyph glyph-name="lslash" unicode="&#x142;" horiz-adv-x="372" 
d="M200 0h-30v317l-152 -181h-18v22l170 202v345h30v-312l155 186h17v-21l-172 -207v-351z" />
    <glyph glyph-name="Nacute" unicode="&#x143;" horiz-adv-x="686" 
d="M130 0h-32v700h30l428 -641v641h32v-700h-29l-429 640v-640zM338 762h-36l126 151h36v-13z" />
    <glyph glyph-name="nacute" unicode="&#x144;" horiz-adv-x="566" 
d="M118 0h-30v504h22l7 -85q82 97 194 97q77 0 124.5 -49.5t47.5 -137.5v-329h-30v324q0 79 -40 121.5t-106 42.5q-104 0 -189 -103v-385zM272 590h-34l118 140h33v-12z" />
    <glyph glyph-name="Ncommaaccent" unicode="&#x145;" horiz-adv-x="686" 
d="M130 0h-32v700h30l428 -641v641h32v-700h-29l-429 640v-640zM289 -240h-26l70 173h32v-15z" />
    <glyph glyph-name="ncommaaccent" unicode="&#x146;" horiz-adv-x="566" 
d="M118 0h-30v504h22l7 -85q82 97 194 97q77 0 124.5 -49.5t47.5 -137.5v-329h-30v324q0 79 -40 121.5t-106 42.5q-104 0 -189 -103v-385zM244 -240h-24l65 173h29v-15z" />
    <glyph glyph-name="Ncaron" unicode="&#x147;" horiz-adv-x="686" 
d="M130 0h-32v700h30l428 -641v641h32v-700h-29l-429 640v-640zM360 763h-33l-124 137v13h31l109 -125l112 125h30v-13z" />
    <glyph glyph-name="ncaron" unicode="&#x148;" horiz-adv-x="566" 
d="M302 590h-31l-116 128v12h29l102 -117l104 117h28v-12zM118 0h-30v504h22l7 -85q82 97 194 97q77 0 124.5 -49.5t47.5 -137.5v-329h-30v324q0 79 -40 121.5t-106 42.5q-104 0 -189 -103v-385z" />
    <glyph glyph-name="Omacron" unicode="&#x14c;" horiz-adv-x="672" 
d="M562 233v234q0 101 -60.5 159.5t-165.5 58.5t-165.5 -58.5t-60.5 -159.5v-234q0 -101 60.5 -159.5t165.5 -58.5t165.5 58.5t60.5 159.5zM78 234v232q0 117 69 183t189 66t189 -66t69 -183v-232q0 -117 -69 -183t-189 -66t-189 66t-69 183zM469 814h-266v27h266v-27z" />
    <glyph glyph-name="omacron" unicode="&#x14d;" horiz-adv-x="529" 
d="M265 16q81 0 125 43.5t44 116.5v152q0 73 -44 116.5t-125 43.5q-79 0 -124.5 -44t-45.5 -116v-152q0 -72 45.5 -116t124.5 -44zM265 -12q-94 0 -147 51t-53 136v154q0 84 53 135.5t147 51.5q95 0 147 -51t52 -136v-154q0 -85 -52 -136t-147 -51zM389 637h-248v26h248v-26
z" />
    <glyph glyph-name="obreve" unicode="&#x14f;" horiz-adv-x="529" 
d="M265 16q81 0 125 43.5t44 116.5v152q0 73 -44 116.5t-125 43.5q-79 0 -124.5 -44t-45.5 -116v-152q0 -72 45.5 -116t124.5 -44zM265 -12q-94 0 -147 51t-53 136v154q0 84 53 135.5t147 51.5q95 0 147 -51t52 -136v-154q0 -85 -52 -136t-147 -51zM117 722v12h28v-11
q0 -53 32.5 -83t87.5 -30t88 30t33 83v11h28v-12q0 -63 -41 -100t-108 -37t-107.5 37t-40.5 100z" />
    <glyph glyph-name="Ohungarumlaut" unicode="&#x150;" horiz-adv-x="672" 
d="M562 233v234q0 101 -60.5 159.5t-165.5 58.5t-165.5 -58.5t-60.5 -159.5v-234q0 -101 60.5 -159.5t165.5 -58.5t165.5 58.5t60.5 159.5zM78 234v232q0 117 69 183t189 66t189 -66t69 -183v-232q0 -117 -69 -183t-189 -66t-189 66t-69 183zM258 763h-34l126 150h33v-13z
M438 763h-34l126 150h33v-13z" />
    <glyph glyph-name="ohungarumlaut" unicode="&#x151;" horiz-adv-x="538" 
d="M265 16q81 0 125 43.5t44 116.5v152q0 73 -44 116.5t-125 43.5q-79 0 -124.5 -44t-45.5 -116v-152q0 -72 45.5 -116t124.5 -44zM265 -12q-94 0 -147 51t-53 136v154q0 84 53 135.5t147 51.5q95 0 147 -51t52 -136v-154q0 -85 -52 -136t-147 -51zM189 590h-32l118 140h31
v-12zM357 590h-32l118 140h30v-12z" />
    <glyph glyph-name="OE" unicode="&#x152;" horiz-adv-x="1038" 
d="M336 -15q-120 0 -189 66t-69 183v232q0 117 69 183t189 66q78 0 136.5 -32t90.5 -92v109h416v-30h-384v-302h336v-30h-336v-308h384v-30h-416v108q-67 -123 -227 -123zM563 233v234q0 101 -61 159.5t-166 58.5t-165.5 -58.5t-60.5 -159.5v-234q0 -101 60.5 -159.5
t165.5 -58.5t166 58.5t61 159.5z" />
    <glyph glyph-name="oe" unicode="&#x153;" horiz-adv-x="896" 
d="M265 -12q-94 0 -147 51t-53 136v154q0 84 53 135.5t147 51.5q73 0 120.5 -32.5t63.5 -89.5q18 58 65 90t120 32q94 0 146 -51t52 -136v-85h-368v-72q1 -71 46.5 -113.5t123.5 -42.5q73 0 114.5 35t48.5 97h30q-6 -74 -56.5 -117t-136.5 -43q-73 0 -121 32t-64 89
q-16 -57 -63.5 -89t-120.5 -32zM265 16q79 0 124 43.5t45 114.5v157q0 70 -45 113.5t-124 43.5t-124.5 -44t-45.5 -116v-152q0 -72 45.5 -116t124.5 -44zM464 329v-58h338v58q0 73 -44.5 116t-124.5 43q-79 0 -124 -43.5t-45 -115.5z" />
    <glyph glyph-name="Racute" unicode="&#x154;" horiz-adv-x="636" 
d="M130 0h-32v700h283q89 0 139 -54.5t50 -148.5q0 -83 -41 -135t-114 -63l171 -287v-12h-30l-176 294h-250v-294zM130 670v-346h242q77 0 121 45.5t44 127.5q0 81 -42 127t-118 46h-247zM319 762h-36l126 151h36v-13z" />
    <glyph glyph-name="racute" unicode="&#x155;" horiz-adv-x="364" 
d="M118 0h-30v504h21l8 -85q38 43 92 69.5t111 26.5h6v-30h-6q-116 0 -202 -99v-386zM196 590h-34l118 140h33v-12z" />
    <glyph glyph-name="Rcommaaccent" unicode="&#x156;" horiz-adv-x="636" 
d="M130 0h-32v700h283q89 0 139 -54.5t50 -148.5q0 -83 -41 -135t-114 -63l171 -287v-12h-30l-176 294h-250v-294zM130 670v-346h242q77 0 121 45.5t44 127.5q0 81 -42 127t-118 46h-247zM277 -240h-26l70 173h32v-15z" />
    <glyph glyph-name="uni0157" unicode="&#x157;" horiz-adv-x="364" 
d="M118 0h-30v504h21l8 -85q38 43 92 69.5t111 26.5h6v-30h-6q-116 0 -202 -99v-386zM47 -240h-24l65 173h29v-15z" />
    <glyph glyph-name="Rcaron" unicode="&#x158;" horiz-adv-x="636" 
d="M130 0h-32v700h283q89 0 139 -54.5t50 -148.5q0 -83 -41 -135t-114 -63l171 -287v-12h-30l-176 294h-250v-294zM130 670v-346h242q77 0 121 45.5t44 127.5q0 81 -42 127t-118 46h-247zM324 763h-33l-124 137v13h31l109 -125l112 125h30v-13z" />
    <glyph glyph-name="rcaron" unicode="&#x159;" horiz-adv-x="364" 
d="M218 590h-31l-116 128v12h29l102 -117l104 117h28v-12zM118 0h-30v504h21l8 -85q38 43 92 69.5t111 26.5h6v-30h-6q-116 0 -202 -99v-386z" />
    <glyph glyph-name="Sacute" unicode="&#x15a;" horiz-adv-x="617" 
d="M319 -15q-112 0 -189 61q-77 62 -77 181h32q0 -73 36 -123q67 -89 199 -89q93 0 144.5 41t51.5 109q0 55 -36 90.5t-121 66.5l-105 39q-101 38 -138 74q-38 38 -38 105q0 79 60.5 127t163.5 48q112 0 178 -60t66 -176h-32q0 107 -61 156q-61 50 -151 50
q-87 0 -139.5 -39.5t-52.5 -103.5q0 -56 31 -87q29 -29 109 -59l102 -38q101 -37 149 -79q48 -41 48 -113q0 -82 -60.5 -131.5t-169.5 -49.5zM312 762h-36l126 151h36v-13z" />
    <glyph glyph-name="sacute" unicode="&#x15b;" horiz-adv-x="528" 
d="M58 166h30q0 -76 54 -113q55 -37 130 -37q73 0 115.5 30.5t42.5 81.5q0 41 -26 62.5t-93 39.5l-108 29q-68 17 -96.5 45.5t-28.5 79.5q0 58 50.5 95t134.5 37q89 0 141 -44.5t52 -128.5h-30q0 71 -44 108t-121 37q-71 0 -112 -28.5t-41 -74.5q0 -40 23.5 -62.5
t80.5 -36.5l108 -28q76 -19 108 -47.5t32 -81.5q0 -64 -50.5 -102.5t-139.5 -38.5t-151 44q-61 45 -61 134zM258 590h-34l118 140h33v-12z" />
    <glyph glyph-name="scircumflex" unicode="&#x15d;" horiz-adv-x="528" 
d="M58 166h30q0 -76 54 -113q55 -37 130 -37q73 0 115.5 30.5t42.5 81.5q0 41 -26 62.5t-93 39.5l-108 29q-68 17 -96.5 45.5t-28.5 79.5q0 58 50.5 95t134.5 37q89 0 141 -44.5t52 -128.5h-30q0 71 -44 108t-121 37q-71 0 -112 -28.5t-41 -74.5q0 -40 23.5 -62.5
t80.5 -36.5l108 -28q76 -19 108 -47.5t32 -81.5q0 -64 -50.5 -102.5t-139.5 -38.5t-151 44q-61 45 -61 134zM173 590h-29v12l116 128h31l116 -128v-12h-28l-104 117z" />
    <glyph glyph-name="Scaron" unicode="&#x160;" horiz-adv-x="617" 
d="M319 -15q-112 0 -189 61q-77 62 -77 181h32q0 -73 36 -123q67 -89 199 -89q93 0 144.5 41t51.5 109q0 55 -36 90.5t-121 66.5l-105 39q-101 38 -138 74q-38 38 -38 105q0 79 60.5 127t163.5 48q112 0 178 -60t66 -176h-32q0 107 -61 156q-61 50 -151 50
q-87 0 -139.5 -39.5t-52.5 -103.5q0 -56 31 -87q29 -29 109 -59l102 -38q101 -37 149 -79q48 -41 48 -113q0 -82 -60.5 -131.5t-169.5 -49.5zM331 763h-33l-124 137v13h31l109 -125l112 125h30v-13z" />
    <glyph glyph-name="scaron" unicode="&#x161;" horiz-adv-x="528" 
d="M58 166h30q0 -76 54 -113q55 -37 130 -37q73 0 115.5 30.5t42.5 81.5q0 41 -26 62.5t-93 39.5l-108 29q-68 17 -96.5 45.5t-28.5 79.5q0 58 50.5 95t134.5 37q89 0 141 -44.5t52 -128.5h-30q0 71 -44 108t-121 37q-71 0 -112 -28.5t-41 -74.5q0 -40 23.5 -62.5
t80.5 -36.5l108 -28q76 -19 108 -47.5t32 -81.5q0 -64 -50.5 -102.5t-139.5 -38.5t-151 44q-61 45 -61 134zM283 590h-31l-116 128v12h29l102 -117l104 117h28v-12z" />
    <glyph glyph-name="Tcaron" unicode="&#x164;" horiz-adv-x="545" 
d="M289 0h-32v670h-229v30h489v-30h-228v-670zM289 763h-33l-124 137v13h31l109 -125l112 125h30v-13z" />
    <glyph glyph-name="tcaron" unicode="&#x165;" horiz-adv-x="444" 
d="M294 0h-39q-68 0 -102 37.5t-34 97.5v342h-91v27h91v105h30v-105h145v-27h-145v-341q0 -52 27.5 -79.5t78.5 -27.5h39v-29zM384 532h-26l70 173h32v-15z" />
    <glyph glyph-name="Umacron" unicode="&#x16a;" horiz-adv-x="666" 
d="M333 -15q-112 0 -178.5 66t-66.5 182v467h32v-467q0 -102 57 -160t156 -58t156 58t57 160v467h32v-467q0 -117 -68 -183q-68 -65 -177 -65zM466 814h-266v27h266v-27z" />
    <glyph glyph-name="umacron" unicode="&#x16b;" horiz-adv-x="566" 
d="M255 -12q-77 0 -124.5 49.5t-47.5 137.5v329h30v-324q0 -79 39.5 -121.5t106.5 -42.5q104 0 189 103v385h30v-504h-22l-7 85q-37 -44 -88 -70.5t-106 -26.5zM404 637h-248v26h248v-26z" />
    <glyph glyph-name="Uring" unicode="&#x16e;" horiz-adv-x="666" 
d="M333 -15q-112 0 -178.5 66t-66.5 182v467h32v-467q0 -102 57 -160t156 -58t156 58t57 160v467h32v-467q0 -117 -68 -183q-68 -65 -177 -65zM260 776q-30 30 -30 71t30 70q30 30 73 30t73 -30q31 -29 31 -70t-31 -71q-30 -29 -73 -29t-73 29zM409 847q0 29 -22.5 51
t-53.5 22t-53 -21.5t-22 -51.5t22 -51.5t53 -21.5t53.5 21.5t22.5 51.5z" />
    <glyph glyph-name="uring" unicode="&#x16f;" horiz-adv-x="566" 
d="M255 -12q-77 0 -124.5 49.5t-47.5 137.5v329h30v-324q0 -79 39.5 -121.5t106.5 -42.5q104 0 189 103v385h30v-504h-22l-7 85q-37 -44 -88 -70.5t-106 -26.5zM213 602q-28 28 -28 66t28 65q28 28 68 28t68 -28q29 -27 29 -65t-29 -66q-28 -27 -68 -27t-68 27zM231 716
q-20 -20 -20 -48t20 -48q21 -20 50 -20t50 20t21 48t-21 48t-50 20t-50 -20z" />
    <glyph glyph-name="Uhungarumlaut" unicode="&#x170;" horiz-adv-x="666" 
d="M333 -15q-112 0 -178.5 66t-66.5 182v467h32v-467q0 -102 57 -160t156 -58t156 58t57 160v467h32v-467q0 -117 -68 -183q-68 -65 -177 -65zM238 763h-34l126 150h33v-13zM418 763h-34l126 150h33v-13z" />
    <glyph glyph-name="uhungarumlaut" unicode="&#x171;" horiz-adv-x="566" 
d="M255 -12q-77 0 -124.5 49.5t-47.5 137.5v329h30v-324q0 -79 39.5 -121.5t106.5 -42.5q104 0 189 103v385h30v-504h-22l-7 85q-37 -44 -88 -70.5t-106 -26.5zM193 590h-32l118 140h31v-12zM361 590h-32l118 140h30v-12z" />
    <glyph glyph-name="Uogonek" unicode="&#x172;" horiz-adv-x="666" 
d="M497 -160h-52q-45 0 -70.5 19.5t-25.5 53.5q0 37 45 78q-28 -6 -61 -6q-112 0 -178.5 66t-66.5 182v467h32v-467q0 -102 57 -160t156 -58t156 58t57 160v467h32v-467q0 -83 -32 -135t-110 -100q-60 -36 -60 -80q0 -53 77 -53h44v-25z" />
    <glyph glyph-name="uogonek" unicode="&#x173;" horiz-adv-x="566" 
d="M539 -160h-53q-45 0 -70.5 19t-25.5 53q0 47 66 91l-7 82q-37 -44 -88 -70.5t-106 -26.5q-77 0 -124.5 49.5t-47.5 137.5v329h30v-324q0 -79 39.5 -121.5t106.5 -42.5q104 0 189 103v385h30v-504q-60 -44 -60 -83q0 -52 77 -52h44v-25z" />
    <glyph glyph-name="Ydieresis" unicode="&#x178;" horiz-adv-x="600" 
d="M316 0h-32v278l-266 410v12h31l251 -391l252 391h29v-12l-265 -409v-279zM223 771h-32v118h32v-118zM410 771h-32v118h32v-118z" />
    <glyph glyph-name="Zacute" unicode="&#x179;" horiz-adv-x="563" 
d="M516 0h-468v29l421 641h-408v30h445v-29l-421 -641h431v-30zM275 762h-36l126 151h36v-13z" />
    <glyph glyph-name="zacute" unicode="&#x17a;" horiz-adv-x="506" 
d="M442 0h-384v27l345 450h-329v27h365v-27l-345 -450h348v-27zM235 590h-34l118 140h33v-12z" />
    <glyph glyph-name="Zdotaccent" unicode="&#x17b;" horiz-adv-x="563" 
d="M516 0h-468v29l421 641h-408v30h445v-29l-421 -641h431v-30zM290 774h-32v118h32v-118z" />
    <glyph glyph-name="zdotaccent" unicode="&#x17c;" horiz-adv-x="506" 
d="M442 0h-384v27l345 450h-329v27h365v-27l-345 -450h348v-27zM267 600h-30v110h30v-110z" />
    <glyph glyph-name="Zcaron" unicode="&#x17d;" horiz-adv-x="563" 
d="M516 0h-468v29l421 641h-408v30h445v-29l-421 -641h431v-30zM298 763h-33l-124 137v13h31l109 -125l112 125h30v-13z" />
    <glyph glyph-name="zcaron" unicode="&#x17e;" horiz-adv-x="506" 
d="M265 590h-31l-116 128v12h29l102 -117l104 117h28v-12zM442 0h-384v27l345 450h-329v27h365v-27l-345 -450h348v-27z" />
    <glyph glyph-name="florin" unicode="&#x192;" horiz-adv-x="377" 
d="M71 477v27h91l5 60q11 143 149 143q5 0 14.5 -0.5t13.5 -0.5l5 -1v-28l-5 1q-5 0 -12.5 0.5t-13.5 0.5q-111 0 -121 -115l-5 -60h144v-27h-146l-40 -505q-5 -70 -42 -107t-103 -37q-13 0 -21 1l-12 1v28q18 -2 27 -2q112 0 121 117l40 504h-89z" />
    <glyph glyph-name="scommaaccent" unicode="&#x219;" horiz-adv-x="528" 
d="M58 166h30q0 -76 54 -113q55 -37 130 -37q73 0 115.5 30.5t42.5 81.5q0 41 -26 62.5t-93 39.5l-108 29q-68 17 -96.5 45.5t-28.5 79.5q0 58 50.5 95t134.5 37q89 0 141 -44.5t52 -128.5h-30q0 71 -44 108t-121 37q-71 0 -112 -28.5t-41 -74.5q0 -40 23.5 -62.5
t80.5 -36.5l108 -28q76 -19 108 -47.5t32 -81.5q0 -64 -50.5 -102.5t-139.5 -38.5t-151 44q-61 45 -61 134zM223 -240h-24l65 173h29v-15z" />
    <glyph glyph-name="circumflex" unicode="&#x2c6;" horiz-adv-x="400" 
d="M97 590h-29v12l116 128h31l116 -128v-12h-28l-104 117z" />
    <glyph glyph-name="caron" unicode="&#x2c7;" horiz-adv-x="400" 
d="M215 590h-31l-116 128v12h29l102 -117l104 117h28v-12z" />
    <glyph glyph-name="breve" unicode="&#x2d8;" horiz-adv-x="396" 
d="M50 708v12h28v-11q0 -53 32.5 -83t87.5 -30t88 30t33 83v11h28v-12q0 -63 -41 -100t-108 -37t-107.5 37t-40.5 100z" />
    <glyph glyph-name="dotaccent" unicode="&#x2d9;" horiz-adv-x="166" 
d="M98 600h-30v110h30v-110z" />
    <glyph glyph-name="ring" unicode="&#x2da;" horiz-adv-x="336" 
d="M100 602q-28 28 -28 66t28 65q28 28 68 28t68 -28q29 -27 29 -65t-29 -66q-28 -27 -68 -27t-68 27zM118 716q-20 -20 -20 -48t20 -48q21 -20 50 -20t50 20t21 48t-21 48t-50 20t-50 -20z" />
    <glyph glyph-name="ogonek" unicode="&#x2db;" horiz-adv-x="268" 
d="M205 -160h-52q-45 0 -70.5 19.5t-25.5 53.5q0 42 56 87h32q-61 -43 -61 -83q0 -52 77 -52h44v-25z" />
    <glyph glyph-name="tilde" unicode="&#x2dc;" horiz-adv-x="490" 
d="M114 636l-13 -15l-21 17q38 50 56 66q17 16 42 16q21 0 61 -29l26 -19q33 -24 48 -24t28 13t48 57l21 -17q-39 -52 -56 -66q-17 -16 -43 -16q-24 0 -59 28l-27 20q-31 24 -47 24q-20 0 -42 -28q-5 -5 -22 -27z" />
    <glyph glyph-name="hungarumlaut" unicode="&#x2dd;" horiz-adv-x="448" 
d="M98 590h-32l118 140h31v-12zM266 590h-32l118 140h30v-12z" />
    <glyph glyph-name="uni03A9" unicode="&#x3a9;" horiz-adv-x="713" 
d="M306 0h-223v30h160q-70 25 -107.5 82t-37.5 141v213q0 117 69 183t189 66t189 -66t69 -183v-213q0 -171 -144 -223h160v-30h-224v32q84 13 130.5 71.5t46.5 148.5v215q0 101 -61 159.5t-166 58.5t-165.5 -58.5t-60.5 -159.5v-215q0 -90 46.5 -148.5t129.5 -71.5v-32z" />
    <glyph glyph-name="pi" unicode="&#x3c0;" horiz-adv-x="638" 
d="M173 0h-30v477h-105v27h562v-27h-105v-477h-30v477h-292v-477z" />
    <glyph glyph-name="uni0401" unicode="&#x401;" horiz-adv-x="573" 
d="M514 0h-416v700h416v-30h-384v-302h336v-30h-336v-308h384v-30zM225 768h-32v118h32v-118zM412 768h-32v118h32v-118z" />
    <glyph glyph-name="uni0402" unicode="&#x402;" horiz-adv-x="731" 
d="M242 0h-32v670h-182v30h476v-30h-262v-300q104 33 200 33q110 0 173 -54t63 -147q0 -95 -50.5 -148.5t-143.5 -53.5h-54v30h54q78 0 120 45.5t42 126.5q0 79 -56.5 125t-150.5 46q-98 0 -197 -34v-339z" />
    <glyph glyph-name="uni0403" unicode="&#x403;" horiz-adv-x="559" 
d="M296 762h-36l126 151h36v-13zM130 0h-32v700h413v-30h-381v-670z" />
    <glyph glyph-name="afii10053" unicode="&#x404;" horiz-adv-x="656" 
d="M339 -15q-121 0 -191 66.5t-70 183.5v230q0 117 70 183.5t191 66.5q105 0 177 -60t72 -168v-10h-31v10q0 93 -64 145q-64 53 -154 53q-107 0 -168 -57.5t-61 -160.5v-100h325v-30h-325v-104q0 -103 61 -160.5t168 -57.5q92 0 154 52q64 52 64 146v10h31v-10
q0 -108 -72 -168t-177 -60z" />
    <glyph glyph-name="afii10054" unicode="&#x405;" horiz-adv-x="617" 
d="M319 -15q-112 0 -189 61q-77 62 -77 181h32q0 -73 36 -123q67 -89 199 -89q93 0 144.5 41t51.5 109q0 55 -36 90.5t-121 66.5l-105 39q-101 38 -138 74q-38 38 -38 105q0 79 60.5 127t163.5 48q112 0 178 -60t66 -176h-32q0 107 -61 156q-61 50 -151 50
q-87 0 -139.5 -39.5t-52.5 -103.5q0 -56 31 -87q29 -29 109 -59l102 -38q101 -37 149 -79q48 -41 48 -113q0 -82 -60.5 -131.5t-169.5 -49.5z" />
    <glyph glyph-name="uni0406" unicode="&#x406;" horiz-adv-x="228" 
d="M130 0h-32v700h32v-700z" />
    <glyph glyph-name="uni0407" unicode="&#x407;" horiz-adv-x="228" 
d="M130 0h-32v700h32v-700zM37 768h-32v118h32v-118zM224 768h-32v118h32v-118z" />
    <glyph glyph-name="uni0408" unicode="&#x408;" horiz-adv-x="560" 
d="M250 -15q-103 0 -162.5 56t-59.5 158v26h32v-26q0 -87 51 -135.5t139 -48.5t139 49.5t51 135.5v500h32v-501q0 -101 -60 -157.5t-162 -56.5z" />
    <glyph glyph-name="uni0409" unicode="&#x409;" horiz-adv-x="1063" 
d="M548 670h-341v-312q-2 -145 -20 -221t-55 -106t-107 -31v30q60 2 90.5 29t44.5 95.5t16 202.5v343h404v-294h242q89 0 138.5 -54.5t49.5 -148.5t-49.5 -148.5t-138.5 -54.5h-274v670zM580 376v-346h240q74 0 116 46t42 127t-42 127t-116 46h-240z" />
    <glyph glyph-name="uni040A" unicode="&#x40a;" horiz-adv-x="1071" 
d="M138 0h-32v700h32v-294h418v294h32v-294h242q89 0 138.5 -54.5t49.5 -148.5t-49.5 -148.5t-138.5 -54.5h-274v376h-418v-376zM588 376v-346h240q74 0 116 46t42 127t-42 127t-116 46h-240z" />
    <glyph glyph-name="uni040B" unicode="&#x40b;" horiz-adv-x="747" 
d="M242 0h-32v670h-182v30h476v-30h-262v-301q84 34 192 34q245 0 245 -209v-194h-32v192q0 181 -215 181q-106 0 -190 -35v-338z" />
    <glyph glyph-name="uni040C" unicode="&#x40c;" horiz-adv-x="587" 
d="M130 0h-32v700h32v-333h151l236 333h30v-12l-238 -334l250 -342v-12h-31l-246 337h-152v-337zM307 762h-36l126 151h36v-13z" />
    <glyph glyph-name="uni040E" unicode="&#x40e;" horiz-adv-x="555" 
d="M204 0v12l75 166l-261 510v12h30l247 -486l212 486h30v-12l-303 -688h-30zM130 879v9h27v-8q0 -54 32 -83.5t89 -29.5q55 0 87.5 30t32.5 83v8h28v-9q0 -63 -40.5 -100t-107.5 -37t-107.5 37t-40.5 100z" />
    <glyph glyph-name="uni040F" unicode="&#x40f;" horiz-adv-x="677" 
d="M353 -140h-30v140h-225v700h32v-670h417v670h32v-700h-226v-140z" />
    <glyph glyph-name="uni0410" unicode="&#x410;" horiz-adv-x="652" 
d="M57 0h-29v12l281 688h33l282 -688v-12h-31l-85 208h-366zM325 659l-172 -421h344z" />
    <glyph glyph-name="uni0411" unicode="&#x411;" horiz-adv-x="639" 
d="M395 0h-297v700h444v-30h-412v-264h265q87 0 136.5 -54.5t49.5 -148.5t-49.5 -148.5t-136.5 -54.5zM130 376v-346h261q74 0 115.5 46t41.5 127t-41.5 127t-115.5 46h-261z" />
    <glyph glyph-name="uni0412" unicode="&#x412;" horiz-adv-x="643" 
d="M412 0h-314v700h291q81 0 125.5 -46.5t44.5 -129.5q0 -64 -28 -105t-76 -54q60 -12 95 -57.5t35 -121.5q0 -86 -46 -136t-127 -50zM130 345v-315h276q69 0 108 42t39 115q0 74 -38.5 116t-108.5 42h-276zM130 670v-295h260q65 0 101 39.5t36 108.5q0 70 -37 108.5
t-105 38.5h-255z" />
    <glyph glyph-name="uni0413" unicode="&#x413;" horiz-adv-x="559" 
d="M130 0h-32v700h413v-30h-381v-670z" />
    <glyph glyph-name="uni0414" unicode="&#x414;" horiz-adv-x="710" 
d="M63 -148h-30v178h50q34 44 54 83q23 42 39.5 123t16.5 181v283h381v-670h93v-178h-30v148h-574v-148zM120 30h422v640h-319v-253q0 -153 -27 -235q-28 -85 -76 -152z" />
    <glyph glyph-name="uni0415" unicode="&#x415;" horiz-adv-x="573" 
d="M514 0h-416v700h416v-30h-384v-302h336v-30h-336v-308h384v-30z" />
    <glyph glyph-name="uni0416" unicode="&#x416;" horiz-adv-x="846" 
d="M439 0h-32v336h-134l-204 -336h-31v12l207 340l-195 336v12h29l194 -334h134v334h32v-334h134l194 334h29v-12l-195 -336l207 -340v-12h-31l-204 336h-134v-336z" />
    <glyph glyph-name="uni0417" unicode="&#x417;" horiz-adv-x="598" 
d="M58 215h32q1 -93 60.5 -146.5t157.5 -53.5q94 0 147 47.5t53 130.5q0 72 -48 114t-130 42h-106v30h106q74 0 115.5 37t41.5 107q0 71 -50 116.5t-136 45.5q-91 0 -144.5 -53t-54.5 -147h-32q1 109 63 169.5t168 60.5q102 0 161 -53q58 -52 58 -136q0 -66 -34 -107
t-93 -53q66 -12 106.5 -57.5t40.5 -114.5q0 -97 -62 -153t-171 -56q-111 0 -179 61q-69 61 -70 169z" />
    <glyph glyph-name="uni0418" unicode="&#x418;" horiz-adv-x="687" 
d="M128 0h-30v700h32v-643l429 643h30v-700h-32v643z" />
    <glyph glyph-name="uni0419" unicode="&#x419;" horiz-adv-x="687" 
d="M128 0h-30v700h32v-643l429 643h30v-700h-32v643zM195 879v9h27v-8q0 -54 32 -83.5t89 -29.5q55 0 87.5 30t32.5 83v8h28v-9q0 -63 -40.5 -100t-107.5 -37t-107.5 37t-40.5 100z" />
    <glyph glyph-name="uni041A" unicode="&#x41a;" horiz-adv-x="587" 
d="M130 0h-32v700h32v-333h151l236 333h30v-12l-238 -334l250 -342v-12h-31l-246 337h-152v-337z" />
    <glyph glyph-name="uni041B" unicode="&#x41b;" horiz-adv-x="678" 
d="M25 0v30q60 2 90.5 29t44.5 95.5t16 202.5v343h404v-700h-32v670h-341v-312q-2 -145 -20 -221t-55 -106t-107 -31z" />
    <glyph glyph-name="uni041C" unicode="&#x41c;" horiz-adv-x="792" 
d="M129 0h-31v700h31l267 -401l268 401h30v-700h-31v643l-256 -384h-22l-256 383v-642z" />
    <glyph glyph-name="uni041D" unicode="&#x41d;" horiz-adv-x="686" 
d="M130 0h-32v700h32v-333h426v333h32v-700h-32v337h-426v-337z" />
    <glyph glyph-name="uni041E" unicode="&#x41e;" horiz-adv-x="672" 
d="M562 233v234q0 101 -60.5 159.5t-165.5 58.5t-165.5 -58.5t-60.5 -159.5v-234q0 -101 60.5 -159.5t165.5 -58.5t165.5 58.5t60.5 159.5zM78 234v232q0 117 69 183t189 66t189 -66t69 -183v-232q0 -117 -69 -183t-189 -66t-189 66t-69 183z" />
    <glyph glyph-name="uni041F" unicode="&#x41f;" horiz-adv-x="680" 
d="M130 0h-32v700h484v-700h-32v670h-420v-670z" />
    <glyph glyph-name="uni0420" unicode="&#x420;" horiz-adv-x="613" 
d="M130 0h-32v700h277q86 0 135.5 -54.5t49.5 -148.5t-49.5 -148.5t-135.5 -54.5h-245v-294zM130 670v-346h240q74 0 116 46t42 127t-42 127t-116 46h-240z" />
    <glyph glyph-name="uni0421" unicode="&#x421;" horiz-adv-x="657" 
d="M339 -15q-121 0 -191 66.5t-70 185.5v226q0 119 70 185.5t191 66.5q107 0 178 -61q72 -62 72 -169v-10h-32v10q0 95 -64 147q-64 53 -154 53q-108 0 -168.5 -58t-60.5 -162v-230q0 -104 60.5 -162t168.5 -58q90 0 154 53q64 52 64 147v10h32v-10q0 -107 -72 -169
q-71 -61 -178 -61z" />
    <glyph glyph-name="uni0422" unicode="&#x422;" horiz-adv-x="545" 
d="M289 0h-32v670h-229v30h489v-30h-228v-670z" />
    <glyph glyph-name="uni0423" unicode="&#x423;" horiz-adv-x="555" 
d="M204 0v12l75 166l-261 510v12h30l247 -486l212 486h30v-12l-303 -688h-30z" />
    <glyph glyph-name="uni0424" unicode="&#x424;" horiz-adv-x="791" 
d="M411 -12h-32v102h-65q-115 0 -186 59q-70 60 -70 165v74q0 106 70 164q70 60 186 60h65v92h32v-92h66q116 0 185 -60q70 -58 70 -164v-74q0 -105 -70 -165q-70 -59 -185 -59h-66v-102zM313 120h66v462h-66q-102 0 -162.5 -52.5t-60.5 -142.5v-71q0 -90 60.5 -143
t162.5 -53zM411 582v-462h67q102 0 162.5 53t60.5 143v71q0 90 -60.5 142.5t-162.5 52.5h-67z" />
    <glyph glyph-name="uni0425" unicode="&#x425;" horiz-adv-x="598" 
d="M68 0h-30v12l241 342l-238 334v12h32l226 -321l228 321h29v-12l-237 -335l241 -341v-12h-32l-230 329z" />
    <glyph glyph-name="uni0426" unicode="&#x426;" horiz-adv-x="714" 
d="M671 -148h-30v148h-543v700h32v-670h415v670h32v-670h94v-178z" />
    <glyph glyph-name="uni0427" unicode="&#x427;" horiz-adv-x="634" 
d="M536 0h-32v331q-83 -34 -191 -34q-245 0 -245 209v194h32v-192q0 -181 215 -181q105 0 189 35v338h32v-700z" />
    <glyph glyph-name="uni0428" unicode="&#x428;" horiz-adv-x="949" 
d="M851 0h-753v700h32v-670h329v670h31v-670h329v670h32v-700z" />
    <glyph glyph-name="uni0429" unicode="&#x429;" horiz-adv-x="987" 
d="M944 -148h-30v148h-816v700h32v-670h329v670h31v-670h329v670h32v-670h93v-178z" />
    <glyph glyph-name="uni042A" unicode="&#x42a;" horiz-adv-x="713" 
d="M472 0h-274v670h-180v30h212v-294h242q89 0 138.5 -54.5t49.5 -148.5t-49.5 -148.5t-138.5 -54.5zM230 376v-346h240q74 0 116 46t42 127t-42 127t-116 46h-240z" />
    <glyph glyph-name="uni042B" unicode="&#x42b;" horiz-adv-x="850" 
d="M372 0h-274v700h32v-294h242q89 0 138.5 -54.5t49.5 -148.5t-49.5 -148.5t-138.5 -54.5zM130 376v-346h240q74 0 116 46t42 127t-42 127t-116 46h-240zM752 0h-32v700h32v-700z" />
    <glyph glyph-name="uni042C" unicode="&#x42c;" horiz-adv-x="613" 
d="M372 0h-274v700h32v-294h242q89 0 138.5 -54.5t49.5 -148.5t-49.5 -148.5t-138.5 -54.5zM130 376v-346h240q74 0 116 46t42 127t-42 127t-116 46h-240z" />
    <glyph glyph-name="uni042D" unicode="&#x42d;" horiz-adv-x="657" 
d="M318 -15q-105 0 -177 60t-72 168v10h31v-10q0 -94 63 -146q64 -52 155 -52q107 0 168 57.5t61 160.5v104h-325v30h325v100q0 103 -61 160.5t-168 57.5q-90 0 -155 -53q-63 -52 -63 -145v-10h-31v10q0 108 72 168t177 60q121 0 191 -66.5t70 -183.5v-230
q0 -117 -70 -183.5t-191 -66.5z" />
    <glyph glyph-name="uni042E" unicode="&#x42e;" horiz-adv-x="908" 
d="M582 -15q-115 0 -181.5 64t-66.5 177v110h-204v-336h-32v700h32v-334h204v108q0 113 66.5 177t181.5 64t181.5 -64t66.5 -177v-248q0 -113 -66.5 -177t-181.5 -64zM798 224v250q0 98 -58 154.5t-158 56.5q-101 0 -158.5 -55.5t-57.5 -153.5v-250q0 -98 57.5 -154.5
t158.5 -56.5t158.5 55.5t57.5 153.5z" />
    <glyph glyph-name="uni042F" unicode="&#x42f;" horiz-adv-x="629" 
d="M86 0h-31v12l183 289q-80 6 -125 56.5t-45 142.5q0 93 49 146.5t136 53.5h278v-700h-32v299h-224zM268 329h231v341h-242q-73 0 -114.5 -45t-41.5 -125q0 -83 44 -127t123 -44z" />
    <glyph glyph-name="uni0430" unicode="&#x430;" horiz-adv-x="530" 
d="M216 -12q-72 0 -117.5 37.5t-45.5 105.5q0 76 54 115.5t156 39.5h154v70q0 61 -40 96.5t-114 35.5q-71 0 -111.5 -35.5t-40.5 -94.5h-30q0 71 48 114.5t134 43.5q88 0 136 -42.5t48 -115.5v-358h-22l-8 77q-30 -31 -86 -61q-53 -28 -115 -28zM221 16q98 0 196 92v151
h-154q-180 0 -180 -126q0 -57 38 -87t100 -30z" />
    <glyph glyph-name="uni0431" unicode="&#x431;" horiz-adv-x="537" 
d="M73 175v187q0 100 37.5 157.5t124.5 81.5l112 32q40 12 55.5 27t15.5 38v7h30v-7q0 -36 -19.5 -56t-75.5 -37l-106 -31q-78 -23 -112 -71t-34 -135v-17q87 99 194 99q83 0 130 -51t47 -136v-88q0 -85 -52.5 -136t-146.5 -51q-95 0 -147.5 51t-52.5 136zM273 16
q81 0 125 43.5t44 116.5v85q0 73 -40 117t-111 44q-97 0 -188 -102v-144q0 -72 45.5 -116t124.5 -44z" />
    <glyph glyph-name="uni0432" unicode="&#x432;" horiz-adv-x="538" 
d="M332 0h-244v504h228q66 0 103 -33.5t37 -94.5q0 -98 -81 -120q48 -9 75 -40t27 -83q0 -63 -38 -98t-107 -35zM118 240v-213h211q54 0 85 29t31 78t-30.5 77.5t-86.5 28.5h-210zM118 477v-210h200q50 0 78 28.5t28 76.5q0 49 -28.5 77t-81.5 28h-196z" />
    <glyph glyph-name="uni0433" unicode="&#x433;" horiz-adv-x="450" 
d="M118 0h-30v504h314v-27h-284v-477z" />
    <glyph glyph-name="uni0434" unicode="&#x434;" horiz-adv-x="615" 
d="M67 -134h-30v161h44q39 48 59 107q22 60 22 166v204h333v-477h77v-161h-30v134h-475v-134zM116 27h349v450h-274v-181q0 -101 -20 -161t-55 -108z" />
    <glyph glyph-name="uni0435" unicode="&#x435;" horiz-adv-x="527" 
d="M265 -12q-95 0 -147.5 51t-52.5 136v154q0 85 53 136t147 51t146 -51t52 -136v-85h-368v-69q0 -72 45.5 -115.5t124.5 -43.5q73 0 114.5 35t48.5 97h30q-6 -74 -56.5 -117t-136.5 -43zM95 329v-58h338v58q0 73 -44.5 116t-124.5 43q-79 0 -124 -43.5t-45 -115.5z" />
    <glyph glyph-name="uni0436" unicode="&#x436;" horiz-adv-x="768" 
d="M76 0h-28v15l169 241l-162 234v14h27l164 -236h123v236h30v-236h122l165 236h26v-14l-161 -234l169 -241v-15h-28l-168 241h-125v-241h-30v241h-126z" />
    <glyph glyph-name="uni0437" unicode="&#x437;" horiz-adv-x="516" 
d="M265 -12q-92 0 -147 45.5t-57 124.5h29q1 -66 48 -104t126 -38q75 0 116.5 33t41.5 90q0 49 -36.5 76.5t-101.5 27.5h-66v28h67q56 0 88.5 27t32.5 75q0 53 -38.5 84t-109.5 31q-72 0 -114.5 -38t-43.5 -104h-30q3 80 53.5 125t135.5 45q83 0 130.5 -39t47.5 -102
q0 -48 -27.5 -79.5t-72.5 -37.5q53 -7 84.5 -39t31.5 -81q0 -70 -49.5 -110t-138.5 -40z" />
    <glyph glyph-name="uni0438" unicode="&#x438;" horiz-adv-x="581" 
d="M118 0h-30v504h30v-457l345 457h30v-504h-30v457z" />
    <glyph glyph-name="uni0439" unicode="&#x439;" horiz-adv-x="581" 
d="M118 0h-30v504h30v-457l345 457h30v-504h-30v457zM142 708v12h28v-11q0 -53 32.5 -83t87.5 -30t88 30t33 83v11h28v-12q0 -63 -41 -100t-108 -37t-107.5 37t-40.5 100z" />
    <glyph glyph-name="uni043A" unicode="&#x43a;" horiz-adv-x="508" 
d="M118 0h-30v504h30v-236h119l189 236h27v-14l-188 -234l195 -241v-15h-27l-195 241h-120v-241z" />
    <glyph glyph-name="uni043B" unicode="&#x43b;" horiz-adv-x="557" 
d="M29 0h-7v28h4q62 0 87.5 60t25.5 193v223h330v-504h-30v477h-271v-196q0 -145 -33.5 -213t-105.5 -68z" />
    <glyph glyph-name="uni043C" unicode="&#x43c;" horiz-adv-x="668" 
d="M118 0h-30v504h30l215 -273l217 273h30v-504h-30v456l-208 -259h-19l-205 259v-456z" />
    <glyph glyph-name="uni043D" unicode="&#x43d;" horiz-adv-x="571" 
d="M118 0h-30v504h30v-239h335v239h30v-504h-30v238h-335v-238z" />
    <glyph glyph-name="uni043E" unicode="&#x43e;" horiz-adv-x="529" 
d="M265 16q81 0 125 43.5t44 116.5v152q0 73 -44 116.5t-125 43.5q-79 0 -124.5 -44t-45.5 -116v-152q0 -72 45.5 -116t124.5 -44zM265 -12q-94 0 -147 51t-53 136v154q0 84 53 135.5t147 51.5q95 0 147 -51t52 -136v-154q0 -85 -52 -136t-147 -51z" />
    <glyph glyph-name="uni043F" unicode="&#x43f;" horiz-adv-x="567" 
d="M118 0h-30v504h391v-504h-30v477h-331v-477z" />
    <glyph glyph-name="uni0440" unicode="&#x440;" horiz-adv-x="560" 
d="M118 -160h-30v664h22l7 -85q82 97 194 97q82 0 129 -51t47 -136v-154q0 -85 -47 -136t-130 -51q-54 0 -105 27t-87 69v-244zM308 16q70 0 109.5 44t39.5 117v150q0 73 -39.5 117t-109.5 44q-96 0 -190 -102v-268q94 -102 190 -102z" />
    <glyph glyph-name="uni0441" unicode="&#x441;" horiz-adv-x="522" 
d="M264 -12q-94 0 -146.5 51t-52.5 136v154q0 85 52.5 136t146.5 51q90 0 143.5 -47t53.5 -125v-4h-30v5q0 64 -45 103.5t-122 39.5q-79 0 -124 -43.5t-45 -115.5v-154q0 -73 45 -116t124 -43q77 0 122 40.5t45 105.5v5h30v-5q0 -76 -53 -126q-52 -48 -144 -48z" />
    <glyph glyph-name="uni0442" unicode="&#x442;" horiz-adv-x="459" 
d="M245 0h-30v477h-187v27h403v-27h-186v-477z" />
    <glyph glyph-name="uni0443" unicode="&#x443;" horiz-adv-x="494" 
d="M196 -160h-27v12l63 148l-204 490v14h28l192 -466l190 466h28v-14z" />
    <glyph glyph-name="uni0444" unicode="&#x444;" horiz-adv-x="757" 
d="M393 -160h-30v222q-66 -74 -150 -74q-65 0 -102.5 42t-37.5 111v222q0 70 37.5 111.5t102.5 41.5q84 0 150 -74v263h30v-263q68 74 151 74q65 0 102.5 -41.5t37.5 -111.5v-222q0 -69 -37.5 -111t-102.5 -42q-83 0 -151 74v-222zM221 16q72 0 142 79v314q-70 79 -142 79
q-56 0 -87 -35t-31 -93v-216q0 -58 31 -93t87 -35zM536 16q56 0 87 35t31 93v216q0 58 -31 93t-87 35q-70 0 -143 -79v-314q73 -79 143 -79z" />
    <glyph glyph-name="uni0445" unicode="&#x445;" horiz-adv-x="506" 
d="M74 0h-26v15l186 237l-185 238v14h28l176 -228l176 228h26v-14l-184 -237l187 -238v-15h-27l-179 231z" />
    <glyph glyph-name="uni0446" unicode="&#x446;" horiz-adv-x="599" 
d="M556 -134h-30v134h-438v504h30v-477h330v477h30v-477h78v-161z" />
    <glyph glyph-name="uni0447" unicode="&#x447;" horiz-adv-x="529" 
d="M441 0h-30v218q-78 -23 -161 -23q-91 0 -141.5 39.5t-50.5 114.5v155h30v-153q0 -62 44 -95t121 -33q86 0 158 24v257h30v-504z" />
    <glyph glyph-name="uni0448" unicode="&#x448;" horiz-adv-x="758" 
d="M670 0h-582v504h30v-477h246v477h30v-477h246v477h30v-504z" />
    <glyph glyph-name="uni0449" unicode="&#x449;" horiz-adv-x="791" 
d="M748 -134h-30v134h-630v504h30v-477h246v477h30v-477h246v477h30v-477h78v-161z" />
    <glyph glyph-name="uni044A" unicode="&#x44a;" horiz-adv-x="585" 
d="M391 0h-231v477h-152v27h182v-193h201q72 0 114 -41.5t42 -114.5q0 -72 -42 -113.5t-114 -41.5zM190 284v-257h195q61 0 96.5 34.5t35.5 93.5q0 60 -35.5 94.5t-96.5 34.5h-195z" />
    <glyph glyph-name="uni044B" unicode="&#x44b;" horiz-adv-x="701" 
d="M317 0h-229v504h30v-193h199q72 0 114 -41.5t42 -114.5q0 -72 -42 -113.5t-114 -41.5zM118 284v-257h193q61 0 96.5 34.5t35.5 93.5q0 60 -35.5 94.5t-96.5 34.5h-193zM613 0h-30v504h30v-504z" />
    <glyph glyph-name="uni044C" unicode="&#x44c;" horiz-adv-x="521" 
d="M327 0h-239v504h30v-193h209q72 0 114 -41.5t42 -114.5q0 -72 -42 -113.5t-114 -41.5zM118 284v-257h203q61 0 96.5 34.5t35.5 93.5q0 60 -35.5 94.5t-96.5 34.5h-203z" />
    <glyph glyph-name="uni044D" unicode="&#x44d;" horiz-adv-x="528" 
d="M261 -12q-93 0 -146.5 49t-53.5 130h30q0 -68 45.5 -109.5t124.5 -41.5q80 0 126 44.5t46 117.5v60h-224v28h224v60q0 73 -46 117.5t-126 44.5q-79 0 -124.5 -40.5t-45.5 -107.5h-30q0 79 54 127.5t146 48.5q95 0 148.5 -52t53.5 -138v-148q0 -86 -53.5 -138t-148.5 -52z
" />
    <glyph glyph-name="uni044E" unicode="&#x44e;" horiz-adv-x="730" 
d="M469 -12q-91 0 -143 50.5t-52 133.5v66h-156v-238h-30v504h30v-239h156v67q0 83 52 133.5t143 50.5q93 0 144.5 -50t51.5 -134v-160q0 -84 -51.5 -134t-144.5 -50zM469 16q79 0 122.5 43t43.5 114v158q0 71 -43.5 114t-122.5 43q-77 0 -121 -43t-44 -114v-158
q0 -71 44 -114t121 -43z" />
    <glyph glyph-name="uni044F" unicode="&#x44f;" horiz-adv-x="526" 
d="M86 0h-28v15l134 201q-57 6 -89.5 44t-32.5 100q0 67 38.5 105.5t104.5 38.5h225v-504h-30v214h-183zM219 241h189v236h-189q-56 0 -87.5 -31.5t-31.5 -85.5q0 -56 31.5 -87.5t87.5 -31.5z" />
    <glyph glyph-name="uni0451" unicode="&#x451;" horiz-adv-x="527" 
d="M265 -12q-95 0 -147.5 51t-52.5 136v154q0 85 53 136t147 51t146 -51t52 -136v-85h-368v-69q0 -72 45.5 -115.5t124.5 -43.5q73 0 114.5 35t48.5 97h30q-6 -74 -56.5 -117t-136.5 -43zM95 329v-58h338v58q0 73 -44.5 116t-124.5 43q-79 0 -124 -43.5t-45 -115.5zM193 595
h-30v110h30v-110zM367 595h-30v110h30v-110z" />
    <glyph glyph-name="uni0452" unicode="&#x452;" horiz-adv-x="579" 
d="M376 -172q-5 0 -12 0.5t-12 1.5h-6v27q1 0 12 -0.5t16 -0.5q97 0 97 112v26v241q0 80 -39.5 122t-106.5 42q-104 0 -189 -103v-296h-30v559h-87v27h87v119h30v-119h247v-27h-247v-228q37 43 87.5 69.5t105.5 26.5q77 0 124.5 -49.5t47.5 -137.5v-246q0 -7 -2 -49
q-7 -117 -123 -117z" />
    <glyph glyph-name="uni0453" unicode="&#x453;" horiz-adv-x="450" 
d="M241 590h-34l118 140h33v-12zM118 0h-30v504h314v-27h-284v-477z" />
    <glyph glyph-name="uni0454" unicode="&#x454;" horiz-adv-x="528" 
d="M267 -12q-95 0 -148.5 52t-53.5 138v148q0 86 53.5 138t148.5 52q92 0 146 -48.5t54 -127.5h-30q0 67 -45.5 107.5t-124.5 40.5q-80 0 -126 -44.5t-46 -117.5v-60h224v-28h-224v-60q0 -73 46 -117.5t126 -44.5q79 0 124.5 41.5t45.5 109.5h30q0 -81 -53.5 -130
t-146.5 -49z" />
    <glyph glyph-name="uni0455" unicode="&#x455;" horiz-adv-x="528" 
d="M58 166h30q0 -76 54 -113q55 -37 130 -37q73 0 115.5 30.5t42.5 81.5q0 41 -26 62.5t-93 39.5l-108 29q-68 17 -96.5 45.5t-28.5 79.5q0 58 50.5 95t134.5 37q89 0 141 -44.5t52 -128.5h-30q0 71 -44 108t-121 37q-71 0 -112 -28.5t-41 -74.5q0 -40 23.5 -62.5
t80.5 -36.5l108 -28q76 -19 108 -47.5t32 -81.5q0 -64 -50.5 -102.5t-139.5 -38.5t-151 44q-61 45 -61 134z" />
    <glyph glyph-name="uni0456" unicode="&#x456;" horiz-adv-x="206" 
d="M118 0h-30v504h30v-504zM118 595h-30v110h30v-110z" />
    <glyph glyph-name="uni0457" unicode="&#x457;" horiz-adv-x="206" 
d="M31 595h-30v110h30v-110zM205 595h-30v110h30v-110zM118 0h-30v504h30v-504z" />
    <glyph glyph-name="uni0458" unicode="&#x458;" horiz-adv-x="206" 
d="M88 14v490h30v-536q0 -140 -125 -140q-5 0 -12 0.5t-12 1.5h-5v27q1 0 11.5 -0.5t15.5 -0.5q61 0 79 37t18 121zM118 595h-30v110h30v-110z" />
    <glyph glyph-name="uni0459" unicode="&#x459;" horiz-adv-x="844" 
d="M29 0h-7v28h4q62 0 87.5 60t25.5 193v223h318v-193h193q73 0 114.5 -41.5t41.5 -114.5q0 -72 -41.5 -113.5t-114.5 -41.5h-223v477h-259v-196q0 -145 -33.5 -213t-105.5 -68zM457 284v-257h188q61 0 96 34.5t35 93.5q0 60 -35 94.5t-96 34.5h-188z" />
    <glyph glyph-name="uni045A" unicode="&#x45a;" horiz-adv-x="838" 
d="M118 0h-30v504h30v-211h311v211h30v-211h191q70 0 110 -39.5t40 -107.5t-40 -107t-110 -39h-221v266h-311v-266zM459 266v-239h185q58 0 92 32t34 87t-33.5 87.5t-91.5 32.5h-186z" />
    <glyph glyph-name="uni045B" unicode="&#x45b;" horiz-adv-x="570" 
d="M128 0h-30v559h-87v27h87v119h30v-119h247v-27h-247v-228q37 43 87.5 69.5t105.5 26.5q77 0 124.5 -49.5t47.5 -137.5v-240h-30v235q0 80 -39.5 122t-106.5 42q-104 0 -189 -103v-296z" />
    <glyph glyph-name="uni045C" unicode="&#x45c;" horiz-adv-x="508" 
d="M118 0h-30v504h30v-236h119l189 236h27v-14l-188 -234l195 -241v-15h-27l-195 241h-120v-241zM260 590h-34l118 140h33v-12z" />
    <glyph glyph-name="uni045E" unicode="&#x45e;" horiz-adv-x="494" 
d="M196 -160h-27v12l63 148l-204 490v14h28l192 -466l190 466h28v-14zM100 708v12h28v-11q0 -53 32.5 -83t87.5 -30t88 30t33 83v11h28v-12q0 -63 -41 -100t-108 -37t-107.5 37t-40.5 100z" />
    <glyph glyph-name="uni045F" unicode="&#x45f;" horiz-adv-x="567" 
d="M299 -126h-30v126h-181v504h30v-477h331v477h30v-504h-180v-126z" />
    <glyph glyph-name="uni0490" unicode="&#x490;" horiz-adv-x="549" 
d="M130 0h-32v700h373v130h30v-160h-371v-670z" />
    <glyph glyph-name="uni0491" unicode="&#x491;" horiz-adv-x="445" 
d="M118 0h-30v504h279v122h30v-149h-279v-477z" />
    <glyph glyph-name="uni1E61" unicode="&#x1e61;" horiz-adv-x="528" 
d="M58 166h30q0 -76 54 -113q55 -37 130 -37q73 0 115.5 30.5t42.5 81.5q0 41 -26 62.5t-93 39.5l-108 29q-68 17 -96.5 45.5t-28.5 79.5q0 58 50.5 95t134.5 37q89 0 141 -44.5t52 -128.5h-30q0 71 -44 108t-121 37q-71 0 -112 -28.5t-41 -74.5q0 -40 23.5 -62.5
t80.5 -36.5l108 -28q76 -19 108 -47.5t32 -81.5q0 -64 -50.5 -102.5t-139.5 -38.5t-151 44q-61 45 -61 134zM282 600h-30v110h30v-110z" />
    <glyph glyph-name="uni1E63" unicode="&#x1e63;" horiz-adv-x="528" 
d="M58 166h30q0 -76 54 -113q55 -37 130 -37q73 0 115.5 30.5t42.5 81.5q0 41 -26 62.5t-93 39.5l-108 29q-68 17 -96.5 45.5t-28.5 79.5q0 58 50.5 95t134.5 37q89 0 141 -44.5t52 -128.5h-30q0 71 -44 108t-121 37q-71 0 -112 -28.5t-41 -74.5q0 -40 23.5 -62.5
t80.5 -36.5l108 -28q76 -19 108 -47.5t32 -81.5q0 -64 -50.5 -102.5t-139.5 -38.5t-151 44q-61 45 -61 134zM281 -177h-30v110h30v-110z" />
    <glyph glyph-name="endash" unicode="&#x2013;" horiz-adv-x="576" 
d="M508 298h-440v30h440v-30z" />
    <glyph glyph-name="emdash" unicode="&#x2014;" horiz-adv-x="804" 
d="M736 298h-668v30h668v-30z" />
    <glyph glyph-name="quoteleft" unicode="&#x2018;" horiz-adv-x="185" 
d="M39 506l85 199h25l-78 -214h-32v15z" />
    <glyph glyph-name="quoteright" unicode="&#x2019;" horiz-adv-x="185" 
d="M138 691l-85 -199h-25l78 214h32v-15z" />
    <glyph glyph-name="quotesinglbase" unicode="&#x201a;" horiz-adv-x="190" 
d="M138 111l-85 -199h-25l78 214h32v-15z" />
    <glyph glyph-name="quotedblleft" unicode="&#x201c;" horiz-adv-x="352" 
d="M206 506l85 199h25l-78 -214h-32v15zM39 506l85 199h25l-78 -214h-32v15z" />
    <glyph glyph-name="quotedblright" unicode="&#x201d;" horiz-adv-x="352" 
d="M138 690l-85 -199h-25l78 214h32v-15zM305 690l-85 -199h-25l78 214h32v-15z" />
    <glyph glyph-name="quotedblbase" unicode="&#x201e;" horiz-adv-x="357" 
d="M138 111l-85 -199h-25l78 214h32v-15zM305 111l-85 -199h-25l78 214h32v-15z" />
    <glyph glyph-name="dagger" unicode="&#x2020;" horiz-adv-x="521" 
d="M276 -160h-30v617h-208v27h208v221h30v-221h207v-27h-207v-617z" />
    <glyph glyph-name="daggerdbl" unicode="&#x2021;" horiz-adv-x="521" 
d="M276 -160h-30v327h-208v27h208v263h-208v27h208v221h30v-221h207v-27h-207v-263h207v-27h-207v-327z" />
    <glyph glyph-name="bullet" unicode="&#x2022;" horiz-adv-x="335" 
d="M168 220q-48 0 -74 25t-26 72v6q0 47 26 72t74 25q46 0 72.5 -25.5t26.5 -71.5v-6q0 -46 -26.5 -71.5t-72.5 -25.5z" />
    <glyph glyph-name="ellipsis" unicode="&#x2026;" horiz-adv-x="648" 
d="M111 0h-31v126h31v-126zM340 0h-31v126h31v-126zM568 0h-31v126h31v-126z" />
    <glyph glyph-name="perthousand" unicode="&#x2030;" horiz-adv-x="1075" 
d="M190 374q55 0 85.5 31t30.5 80v94q0 50 -30.5 80.5t-85.5 30.5q-53 0 -84 -30.5t-31 -80.5v-94q0 -50 31 -80.5t84 -30.5zM190 349q-67 0 -104.5 37.5t-37.5 100.5v90q0 63 37.5 100.5t104.5 37.5q68 0 105.5 -37t37.5 -101v-90q0 -64 -37.5 -101t-105.5 -37zM193 0h-26
v12l389 688h26v-12zM560 10q55 0 85.5 30.5t30.5 79.5v95q0 50 -30.5 80.5t-85.5 30.5q-53 0 -84 -30.5t-31 -80.5v-95q0 -49 31 -79.5t84 -30.5zM560 -15q-67 0 -104.5 37.5t-37.5 100.5v90q0 63 37.5 100.5t104.5 37.5q68 0 105.5 -37t37.5 -101v-90q0 -64 -37.5 -101
t-105.5 -37zM884 10q55 0 85.5 30.5t30.5 79.5v95q0 50 -30.5 80.5t-85.5 30.5q-53 0 -84 -30.5t-31 -80.5v-95q0 -49 31 -79.5t84 -30.5zM884 -15q-67 0 -104.5 37.5t-37.5 100.5v90q0 63 37.5 100.5t104.5 37.5q68 0 106 -37t38 -101v-90q0 -64 -38 -101t-106 -37z" />
    <glyph glyph-name="guilsinglleft" unicode="&#x2039;" horiz-adv-x="316" 
d="M250 62h-28l-182 204l183 205h27v-13l-172 -192l172 -191v-13z" />
    <glyph glyph-name="guilsinglright" unicode="&#x203a;" horiz-adv-x="316" 
d="M93 471l183 -205l-182 -204h-28v13l172 191l-172 192v13h27z" />
    <glyph glyph-name="fraction" unicode="&#x2044;" horiz-adv-x="331" 
d="M-16 0h-26v12l389 688h26v-12z" />
    <glyph glyph-name="fourinferior" unicode="&#x2084;" horiz-adv-x="347" 
d="M32 461l134 239h22v-14l-121 -219h163v90h27v-90h65v-26h-65v-83h-27v83h-198v20z" />
    <glyph glyph-name="Euro" unicode="&#x20ac;" horiz-adv-x="665" 
d="M361 -15q-114 0 -180 65.5t-66 181.5v26h-85v28h85v127h-85v28h85v27q0 116 66 181.5t180 65.5q100 0 167 -61q69 -61 69 -169v-10h-30v10q0 95 -60 148q-59 54 -146 54q-100 0 -158 -58.5t-58 -160.5v-27h275v-28h-275v-127h275v-28h-275v-26q0 -102 58 -160.5
t158 -58.5q88 0 147 53t59 149v10h30v-10q0 -108 -68 -170q-67 -60 -168 -60z" />
    <glyph glyph-name="uni20B4" unicode="&#x20b4;" horiz-adv-x="635" 
d="M310 -15q-101 0 -160 50q-58 49 -58 126q0 58 32 101h-84v28h555v-28h-438q-35 -41 -35 -97q0 -68 50.5 -110t137.5 -42q81 0 136 44t66 128h30q-10 -99 -75 -150q-65 -50 -157 -50zM595 408h-555v28h424q39 44 39 103q0 62 -49 105t-132 43q-82 0 -136 -44t-63 -128h-30
q9 97 70 148.5t159 51.5q96 0 154 -50q57 -49 57 -124q0 -59 -36 -105h98v-28z" />
    <glyph glyph-name="uni20BD" unicode="&#x20bd;" horiz-adv-x="632" 
d="M161 0h-30v140h-95v28h95v129h-95v28h95v375h262q87 0 136.5 -54t49.5 -148q0 -93 -49.5 -147t-136.5 -54h-232v-129h221v-28h-221v-140zM161 672v-347h229q74 0 116.5 46t42.5 127t-42.5 127.5t-116.5 46.5h-229z" />
    <glyph glyph-name="uni2116" unicode="&#x2116;" horiz-adv-x="1000" 
d="M130 0h-32v700h28l386 -633v633h32v-700h-28l-386 633v-633zM785 374q55 0 85.5 30.5t30.5 79.5v96q0 50 -30.5 80t-85.5 30q-53 0 -84 -30.5t-31 -79.5v-96q0 -49 31 -79.5t84 -30.5zM785 349q-67 0 -104.5 37.5t-37.5 100.5v90q0 63 37.5 100.5t104.5 37.5
q68 0 105.5 -37t37.5 -101v-90q0 -64 -37.5 -101t-105.5 -37zM928 230h-285v25h285v-25z" />
    <glyph glyph-name="trademark" unicode="&#x2122;" horiz-adv-x="662" 
d="M332 373h-25v327h24l119 -169l121 169h25v-327h-26v283l-110 -154h-19l-109 153v-282zM147 373h-26v302h-104v25h234v-25h-104v-302z" />
    <glyph glyph-name="Omega" unicode="&#x2126;" horiz-adv-x="713" 
d="M306 0h-223v30h160q-70 25 -107.5 82t-37.5 141v213q0 117 69 183t189 66t189 -66t69 -183v-213q0 -171 -144 -223h160v-30h-224v32q84 13 130.5 71.5t46.5 148.5v215q0 101 -61 159.5t-166 58.5t-165.5 -58.5t-60.5 -159.5v-215q0 -90 46.5 -148.5t129.5 -71.5v-32z" />
    <glyph glyph-name="partialdiff" unicode="&#x2202;" horiz-adv-x="537" 
d="M236 -12q-87 0 -137 45.5t-50 121.5q0 2 4.5 53t4.5 55q8 87 59 137t134 50q105 0 185 -99q6 96 6 108q-2 220 -193 220q-57 0 -112 -15l2 28q49 15 115 15q107 0 161.5 -63.5t54.5 -181.5q0 -35 -21 -287q-7 -85 -63 -136t-150 -51zM239 16q79 0 126 43.5t54 116.5
l14 141q-85 105 -179 105q-72 0 -115.5 -43.5t-50.5 -117.5q-9 -72 -9 -100q0 -66 42.5 -105.5t117.5 -39.5z" />
    <glyph glyph-name="increment" unicode="&#x2206;" horiz-adv-x="652" 
d="M624 0h-596v12l281 688h33l282 -688v-12zM325 659l-257 -629h514z" />
    <glyph glyph-name="product" unicode="&#x220f;" horiz-adv-x="675" 
d="M130 -75h-32v775h479v-775h-32v745h-415v-745z" />
    <glyph glyph-name="summation" unicode="&#x2211;" horiz-adv-x="544" 
d="M486 -75h-428v30l206 361l-206 354v30h417v-30h-382l207 -354l-207 -361h393v-30z" />
    <glyph glyph-name="minus" unicode="&#x2212;" horiz-adv-x="510" 
d="M458 300h-406v26h406v-26z" />
    <glyph glyph-name="radical" unicode="&#x221a;" horiz-adv-x="579" 
d="M329 -75h-30l-174 444h-116v28h137l165 -426l226 826h27v-12z" />
    <glyph glyph-name="infinity" unicode="&#x221e;" horiz-adv-x="849" 
d="M226 137q-72 0 -115 49t-43 129q0 79 44 128t114 49q51 0 89 -32q38 -31 99 -107l11 -15l11 15q59 75 98 107q40 32 90 32q70 0 113.5 -49t43.5 -128t-43.5 -128.5t-113.5 -49.5q-52 0 -93 33q-37 30 -95 107l-11 14l-11 -14q-56 -75 -96 -107q-40 -33 -92 -33zM227 165
q44 0 78 31q36 33 89 102l13 16l-15 20q-58 73 -90 100q-34 29 -75 29q-57 0 -93 -41.5t-36 -107.5t36 -107.5t93 -41.5zM623 165q57 0 93 41.5t36 107.5t-36 107.5t-93 41.5q-43 0 -78 -30t-90 -102l-13 -17l13 -16q33 -43 60 -74q57 -59 108 -59z" />
    <glyph glyph-name="integral" unicode="&#x222b;" horiz-adv-x="329" 
d="M29 -160h-37v27h31q59 0 93 36t34 99v536q0 75 41 118.5t110 43.5h36v-27h-30q-59 0 -93 -36t-34 -99v-536q0 -75 -41 -118.5t-110 -43.5z" />
    <glyph glyph-name="approxequal" unicode="&#x2248;" horiz-adv-x="465" 
d="M72 383l-20 14q30 46 54 65t51 19q29 0 70 -29l27 -19q34 -22 55 -23t36.5 13t46.5 56l21 -14q-29 -45 -53.5 -64.5t-51.5 -19.5q-32 0 -69 28l-28 20q-35 24 -54 24q-21 0 -39 -15t-46 -55zM72 185l-20 14q30 46 54 65t51 19q29 0 70 -29l27 -19q34 -22 55 -23t36.5 13
t46.5 56l21 -14q-29 -45 -53.5 -64.5t-51.5 -19.5q-32 0 -69 28l-28 20q-35 24 -54 24q-21 0 -39 -15t-46 -55z" />
    <glyph glyph-name="notequal" unicode="&#x2260;" horiz-adv-x="546" 
d="M94 0h-26v12l113 180h-113v26h130l119 191h-249v26h265l115 181h25v-12l-107 -169h107v-26h-123l-120 -191h243v-26h-260z" />
    <glyph glyph-name="lessequal" unicode="&#x2264;" horiz-adv-x="472" 
d="M420 134h-19l-349 187v26l349 188h19v-20l-336 -181l336 -180v-20zM420 30h-368v26h368v-26z" />
    <glyph glyph-name="greaterequal" unicode="&#x2265;" horiz-adv-x="472" 
d="M70 134h-18v20l336 180l-336 181v20h18l350 -188v-26zM420 30h-368v26h368v-26z" />
    <glyph glyph-name="lozenge" unicode="&#x25ca;" horiz-adv-x="530" 
d="M277 0h-24l-195 350l195 350h25l194 -350zM91 350l174 -315l174 315l-174 315z" />
    <glyph glyph-name="uniF64E" unicode="&#xf64e;" horiz-adv-x="550" 
d="M291 -12q-94 0 -146 51.5t-52 138.5h-69v27h69v86h-69v27h69q0 91 51 144.5t147 53.5q90 0 144 -48t54 -124v-4h-30v5q0 64 -45.5 103.5t-122.5 39.5q-82 0 -125 -45.5t-43 -124.5h206v-27h-206v-86h206v-27h-206q0 -74 44 -118t124 -44q77 0 122.5 40.5t45.5 105.5v5h30
v-5q0 -78 -53.5 -126t-144.5 -48z" />
    <glyph glyph-name="uniF653" unicode="&#xf653;" horiz-adv-x="528" 
d="M281 -89h-27v77q-89 6 -142.5 50.5t-53.5 127.5h30q0 -76 54 -113q55 -37 130 -37q73 0 115.5 30.5t42.5 81.5q0 41 -26 62.5t-93 39.5l-108 29q-68 17 -96.5 45.5t-28.5 79.5q0 57 47.5 93.5t128.5 38.5v77h27v-77q81 -5 128 -49.5t47 -123.5h-30q0 71 -44 108t-121 37
q-71 0 -112 -28.5t-41 -74.5q0 -39 23 -61t81 -38l108 -27q76 -19 108 -47.5t32 -82.5q0 -62 -47 -100t-132 -41v-77z" />
    <glyph glyph-name="commaaccent" unicode="&#xf6c3;" horiz-adv-x="244" 
d="M93 -240h-26l70 173h32v-15z" />
    <glyph glyph-name="uniF721" unicode="&#xf721;" horiz-adv-x="552" 
d="M272 -12q-82 0 -129 35.5t-47 92.5q0 37 24 70h-74v27h456v-27h-349q-27 -29 -27 -67q0 -46 39.5 -74.5t108.5 -28.5q65 0 107.5 30t49.5 87h30q-7 -70 -59 -107.5t-130 -37.5zM502 290h-456v27h349q28 29 28 68q0 45 -38.5 74t-103.5 29q-66 0 -107 -29.5t-47 -87.5h-29
q7 70 56.5 107.5t128.5 37.5q78 0 124 -35.5t46 -92.5q0 -39 -26 -71h75v-27z" />
    <glyph glyph-name="uniF722" unicode="&#xf722;" horiz-adv-x="530" 
d="M133 0h-30v83h-79v27h79v86h-79v27h79v281h232q73 0 114.5 -41t41.5 -113t-41.5 -113t-114.5 -41h-202v-86h188v-27h-188v-83zM133 477v-254h197q61 0 96 34t35 93t-35 93t-96 34h-197z" />
    <glyph glyph-name="uniF725" unicode="&#xf725;" horiz-adv-x="516" 
d="M465 0h-439v27h74v203h-74v27h74v72q0 85 48.5 136t134.5 51q83 0 132.5 -47.5t49.5 -124.5v-4h-30v5q0 64 -41 103.5t-111 39.5q-71 0 -112 -43.5t-41 -115.5v-72h185v-27h-185v-203h335v-27z" />
    <glyph glyph-name="uniF727" unicode="&#xf727;" horiz-adv-x="506" 
d="M268 0h-30v83h-159v28h159v84h-159v28h144l-179 267v14h27l181 -275h2l182 275h26v-14l-179 -267h136v-28h-151v-84h151v-28h-151v-83z" />
    <glyph glyph-name="NULL" horiz-adv-x="0" 
 />
    <glyph glyph-name="CR" horiz-adv-x="333" 
 />
    <glyph glyph-name="brevecap" horiz-adv-x="493" 
d="M99 879v9h27v-8q0 -54 32 -83.5t89 -29.5q55 0 87.5 30t32.5 83v8h28v-9q0 -63 -40.5 -100t-107.5 -37t-107.5 37t-40.5 100z" />
    <glyph glyph-name="zero.onum" horiz-adv-x="536" 
d="M268 16q82 0 127 46t45 122v136q0 76 -45 122t-127 46q-80 0 -126 -46.5t-46 -121.5v-136q0 -75 46 -121.5t126 -46.5zM268 -12q-96 0 -149 53t-53 144v134q0 89 53.5 143t148.5 54q96 0 149 -53t53 -144v-134q0 -91 -52.5 -144t-149.5 -53z" />
    <glyph glyph-name="one.onum" horiz-adv-x="242" 
d="M117 0v476h-80v19l80 9h30v-504h-30z" />
    <glyph glyph-name="two.onum" horiz-adv-x="542" 
d="M489 0h-423v25l198 126l36 22l43 27q14 9 35 27q22 18 34 35q30 40 30 86q0 62 -47 101t-121 39q-80 0 -130 -43t-50 -118h-30q0 89 58 138q58 51 152 51q87 0 143 -47q55 -46 55 -123q0 -35 -18 -75q-9 -19 -47 -57q-10 -10 -31 -25l-30 -20q-14 -9 -33 -20l-29 -18
l-167 -103h372v-28z" />
    <glyph glyph-name="three.onum" horiz-adv-x="560" 
d="M58 22h30q2 -76 54 -121t139 -45q84 0 132.5 45.5t48.5 123.5q0 66 -44 107t-116 41h-69v28h70q65 0 102.5 37.5t37.5 100.5q0 65 -46 107t-123 42q-81 0 -128.5 -46.5t-47.5 -127.5h-30q0 93 56 147.5t150 54.5q92 0 145 -51q53 -50 53 -124q0 -61 -30.5 -100.5
t-83.5 -52.5q59 -12 96.5 -56.5t37.5 -108.5q0 -91 -56 -143t-155 -52q-100 0 -160 52.5t-63 141.5z" />
    <glyph glyph-name="four.onum" horiz-adv-x="533" 
d="M406 -160h-30v160h-330v25l290 479h27v-12l-280 -464h293v191h30v-191h99v-28h-99v-160z" />
    <glyph glyph-name="five.onum" horiz-adv-x="570" 
d="M289 -172q-90 0 -148.5 48.5t-69.5 134.5h31q11 -73 60.5 -114t126.5 -41q86 0 134.5 53t48.5 144q0 93 -47.5 142t-131.5 49q-96 0 -155 -68h-29l28 328h324v-27h-299l-23 -266q58 61 156 61q96 0 151.5 -56.5t55.5 -163.5q0 -103 -56 -163.5t-157 -60.5z" />
    <glyph glyph-name="six.onum" horiz-adv-x="566" 
d="M284 -12q-105 0 -162.5 59t-57.5 162q0 49 14.5 89.5t51.5 98.5l192 303h28v-12l-199 -311q53 50 145 50q98 0 153 -58t55 -160q0 -103 -58 -162t-162 -59zM287 399q-86 0 -139.5 -51t-53.5 -140q0 -88 49 -140t141 -52t141 52t49 140q0 90 -48 140.5t-139 50.5z" />
    <glyph glyph-name="seven.onum" horiz-adv-x="525" 
d="M232 -160h-27v12l238 625h-357v-161h-30v188h419v-26z" />
    <glyph glyph-name="eight.onum" horiz-adv-x="598" 
d="M68 189q0 72 41.5 119.5t107.5 60.5q-56 15 -90.5 56t-34.5 105q0 83 55 134t152 51t152 -51t55 -134q0 -64 -34 -105t-90 -56q65 -13 106.5 -60.5t41.5 -119.5q0 -94 -60.5 -147.5t-170.5 -53.5t-170.5 53.5t-60.5 147.5zM298 16q97 0 149.5 46t52.5 126
q0 75 -50.5 120.5t-144.5 45.5q-101 0 -154 -43.5t-53 -122.5q0 -80 52 -126t148 -46zM292 382q184 0 184 151q0 70 -47 112t-130 42t-130 -42t-47 -112t44 -110.5t126 -40.5z" />
    <glyph glyph-name="nine.onum" horiz-adv-x="566" 
d="M271 -160h-27v12l173 276q-53 -50 -143 -50q-101 0 -156.5 59t-55.5 160t58 160t162 59t162 -59t58 -160q0 -51 -15 -92q-14 -37 -50 -97zM279 106q87 0 140 50.5t53 139.5t-49.5 140.5t-140.5 51.5t-140.5 -51.5t-49.5 -139.5q0 -90 48 -140.5t139 -50.5z" />
    <glyph glyph-name="zero.onum.mono" 
d="M297 -12q-95 0 -148.5 53t-53.5 144v134q0 89 53.5 143t148.5 54t148.5 -53t53.5 -144v-134q0 -91 -52.5 -144t-149.5 -53zM125 320v-136q0 -56 25 -96l278 349q-45 51 -131 51q-80 0 -126 -46.5t-46 -121.5zM297 16q82 0 127 46t45 122v136q0 52 -24 93l-276 -349
q47 -48 128 -48z" />
    <glyph glyph-name="one.onum.mono" 
d="M489 0h-384v28h177v448h-110v19l110 9h30v-476h177v-28z" />
    <glyph glyph-name="two.onum.mono" 
d="M511 0h-423v25l198 126l36 22l43 27q14 9 35 27q22 18 34 35q30 40 30 86q0 62 -47 101t-121 39q-80 0 -130 -43t-50 -118h-30q0 89 58 138q58 51 152 51q87 0 143 -47q55 -46 55 -123q0 -35 -18 -75q-9 -19 -47 -57q-10 -10 -31 -25l-30 -20q-14 -9 -33 -20l-29 -18
l-167 -103h372v-28z" />
    <glyph glyph-name="three.onum.mono" 
d="M79 22h30q2 -76 54 -121t139 -45q84 0 132.5 45.5t48.5 123.5q0 66 -44 107t-116 41h-69v28h70q66 0 103 37.5t37 100.5q0 65 -46 107t-123 42q-81 0 -128.5 -46.5t-47.5 -127.5h-30q0 93 56 147.5t150 54.5q93 0 145 -51q53 -50 53 -124q0 -61 -30.5 -100.5t-83.5 -52.5
q59 -12 96.5 -56.5t37.5 -108.5q0 -91 -56 -143t-155 -52q-100 0 -160 52.5t-63 141.5z" />
    <glyph glyph-name="four.onum.mono" 
d="M427 -160h-30v160h-330v25l290 479h27v-12l-280 -464h293v191h30v-191h99v-28h-99v-160z" />
    <glyph glyph-name="five.onum.mono" 
d="M299 -172q-90 0 -148.5 48.5t-69.5 134.5h31q11 -73 60.5 -114t126.5 -41q86 0 134.5 53t48.5 144q0 93 -47.5 142t-131.5 49q-96 0 -155 -68h-29l28 328h324v-27h-299l-23 -266q58 61 156 61q96 0 151.5 -56.5t55.5 -163.5q0 -103 -56 -163.5t-157 -60.5z" />
    <glyph glyph-name="six.onum.mono" 
d="M294 -12q-105 0 -162.5 59t-57.5 162q0 49 14.5 89.5t51.5 98.5l192 303h28v-12l-199 -311q53 50 145 50q98 0 153 -58t55 -160q0 -103 -58 -162t-162 -59zM297 399q-86 0 -139.5 -51t-53.5 -140q0 -88 49 -140t141 -52t141 52t49 140q0 90 -48 140.5t-139 50.5z" />
    <glyph glyph-name="seven.onum.mono" 
d="M265 -160h-27v12l238 625h-357v-161h-30v188h419v-26z" />
    <glyph glyph-name="eight.onum.mono" 
d="M65 189q0 72 41.5 119.5t107.5 60.5q-56 15 -90.5 56t-34.5 105q0 83 55 134t152 51t152 -51t55 -134q0 -64 -34 -105t-90 -56q65 -13 106.5 -60.5t41.5 -119.5q0 -94 -60.5 -147.5t-170.5 -53.5t-170.5 53.5t-60.5 147.5zM295 16q97 0 149.5 46t52.5 126
q0 75 -50.5 120.5t-144.5 45.5q-101 0 -154 -43.5t-53 -122.5q0 -80 52 -126t148 -46zM289 382q184 0 184 151q0 70 -47 112t-130 42t-130 -42t-47 -112t44 -110.5t126 -40.5z" />
    <glyph glyph-name="nine.onum.mono" 
d="M284 -160h-27v12l173 276q-53 -50 -143 -50q-101 0 -156.5 59t-55.5 160t58 160t162 59t162 -59t58 -160q0 -51 -15 -92q-14 -37 -50 -97zM292 106q87 0 140 50.5t53 139.5t-49.5 140.5t-140.5 51.5t-140.5 -51.5t-49.5 -139.5q0 -90 48 -140.5t139 -50.5z" />
    <glyph glyph-name="uniF653.mono" 
d="M307 -89h-27v77q-89 6 -142.5 50.5t-53.5 127.5h30q0 -76 54 -113q55 -37 130 -37q73 0 115.5 30.5t42.5 81.5q0 41 -26 62.5t-93 39.5l-108 29q-68 17 -96.5 45.5t-28.5 79.5q0 57 47.5 93.5t128.5 38.5v77h27v-77q81 -5 128 -49.5t47 -123.5h-30q0 71 -44 108t-121 37
q-71 0 -112 -28.5t-41 -74.5q0 -39 23 -61t81 -38l108 -27q76 -19 108 -47.5t32 -82.5q0 -62 -47 -100t-132 -41v-77z" />
    <glyph glyph-name="uniF64E.mono" 
d="M314 -12q-94 0 -146 51.5t-52 138.5h-69v27h69v86h-69v27h69q0 91 51 144.5t147 53.5q90 0 144 -48t54 -124v-4h-30v5q0 64 -45.5 103.5t-122.5 39.5q-82 0 -125 -45.5t-43 -124.5h206v-27h-206v-86h206v-27h-206q0 -74 44 -118t124 -44q77 0 122.5 40.5t45.5 105.5v5h30
v-5q0 -78 -53.5 -126t-144.5 -48z" />
    <glyph glyph-name="uniF725.mono" 
d="M502 0h-439v27h74v203h-74v27h74v72q0 85 48.5 136t134.5 51q83 0 132.5 -47.5t49.5 -124.5v-4h-30v5q0 64 -41 103.5t-111 39.5q-71 0 -112 -43.5t-41 -115.5v-72h185v-27h-185v-203h335v-27z" />
    <glyph glyph-name="uniF727.mono" 
d="M311 0h-30v83h-159v28h159v84h-159v28h144l-179 267v14h27l181 -275h2l182 275h26v-14l-179 -267h136v-28h-151v-84h151v-28h-151v-83z" />
    <glyph glyph-name="uniF722.mono" 
d="M157 0h-30v83h-79v27h79v86h-79v27h79v281h232q73 0 114.5 -41t41.5 -113t-41.5 -113t-114.5 -41h-202v-86h188v-27h-188v-83zM157 477v-254h197q61 0 96 34t35 93t-35 93t-96 34h-197z" />
    <glyph glyph-name="uniF721.mono" 
d="M285 -12q-82 0 -129 35.5t-47 92.5q0 37 24 70h-74v27h456v-27h-349q-27 -29 -27 -67q0 -46 39.5 -74.5t108.5 -28.5q65 0 107.5 30t49.5 87h30q-7 -70 -59 -107.5t-130 -37.5zM515 290h-456v27h349q28 29 28 68q0 45 -38.5 74t-103.5 29q-66 0 -107 -29.5t-47 -87.5h-29
q7 70 56.5 107.5t128.5 37.5q78 0 124 -35.5t46 -92.5q0 -39 -26 -71h75v-27z" />
    <glyph glyph-name="zero.mono" 
d="M79 200v300q0 101 58.5 158t158.5 57t159 -57t59 -158v-300q0 -101 -59 -158t-159 -57t-158.5 57t-58.5 158zM109 502v-304q0 -62 26 -106l304 540q-52 55 -143 55q-87 0 -137 -49.5t-50 -135.5zM296 13q87 0 137.5 49.5t50.5 135.5v304q0 57 -26 103l-303 -538
q49 -54 141 -54z" />
    <glyph glyph-name="one.mono" 
d="M282 27v645h-110v19l110 9h30v-673h177v-27h-384v27h177z" />
    <glyph glyph-name="two.mono" 
d="M504 0h-423v26l212 216q35 35 43 44q3 3 41 47q24 28 41 56q36 68 36 122q0 81 -47 128.5t-125 47.5q-81 0 -130.5 -50.5t-49.5 -138.5h-29q0 102 59 159q58 58 150 58q91 0 146.5 -55.5t55.5 -148.5q0 -35 -12 -71q-5 -18 -14 -34q-21 -43 -36 -62l-21 -27l-23 -27
l-21 -23l-22 -23l-19 -19l-193 -197h381v-28z" />
    <glyph glyph-name="three.mono" 
d="M294 -15q-100 0 -160.5 55.5t-63.5 151.5h29q3 -83 55.5 -131t140.5 -48q86 0 134 47.5t48 132.5q0 72 -44.5 115.5t-119.5 43.5h-66v30h67q67 0 106.5 40t39.5 107q0 65 -45 112q-45 46 -124 46q-82 0 -130 -50t-49 -139h-29q1 101 57 159t151 58q93 0 145 -54
q53 -53 53 -131q0 -63 -32 -105t-86 -57q61 -13 98.5 -60t37.5 -115q0 -98 -56 -153t-157 -55z" />
    <glyph glyph-name="four.mono" 
d="M430 0h-30v174h-342v25l293 501h27v-12l-285 -486h307v209h30v-209h99v-28h-99v-174z" />
    <glyph glyph-name="five.mono" 
d="M299 -15q-90 0 -148.5 51t-70.5 141h30q11 -77 62 -120.5t128 -43.5q87 0 135.5 55.5t48.5 149.5q0 98 -48 149.5t-133 51.5q-97 0 -156 -72h-29l29 353h326v-28h-301l-24 -288q62 63 158 63q97 0 152.5 -58.5t55.5 -169.5q0 -105 -57 -170q-57 -64 -158 -64z" />
    <glyph glyph-name="six.mono" 
d="M298 -15q-105 0 -162.5 59t-57.5 162q0 49 14.5 89.5t51.5 98.5l192 306h29v-12l-199 -314q53 50 145 50q97 0 152 -58.5t55 -159.5q0 -103 -58 -162t-162 -59zM301 396q-86 0 -139.5 -51t-53.5 -140q0 -88 49 -140t141 -52t141 52t49 140q0 90 -48 140.5t-139 50.5z" />
    <glyph glyph-name="seven.mono" 
d="M251 0h-27v12l255 660h-360v-160h-30v188h422v-27z" />
    <glyph glyph-name="eight.mono" 
d="M65 186q0 72 41.5 120t107.5 61q-56 13 -90.5 55.5t-34.5 106.5q0 83 55 134.5t152 51.5t152 -51.5t55 -134.5q0 -64 -34.5 -105.5t-89.5 -56.5q65 -13 106.5 -61t41.5 -120q0 -94 -60.5 -147.5t-170.5 -53.5t-170.5 53.5t-60.5 147.5zM295 13q97 0 149.5 46t52.5 126
q0 75 -51 121t-144 46q-101 0 -154 -44t-53 -123q0 -80 52 -126t148 -46zM289 380q91 0 137.5 39t46.5 113q0 71 -47.5 113t-129.5 42t-129.5 -42t-47.5 -113t44 -111.5t126 -40.5z" />
    <glyph glyph-name="nine.mono" 
d="M262 0h-28v12l197 315q-53 -51 -145 -51q-99 0 -155 59t-56 161q0 101 58 160t162 59q105 0 162.5 -58.5t57.5 -160.5q0 -50 -14 -91.5t-50 -98.5zM105 496q0 -89 48 -140.5t139 -51.5q87 0 140 51t53 141q0 88 -49.5 139.5t-140.5 51.5t-140.5 -51.5t-49.5 -139.5z" />
    <glyph glyph-name="dollar.mono" 
d="M46 227h30q0 -72 35 -124q64 -90 198 -90q92 0 143 42t51 110q0 54 -34 88.5t-111 64.5l-112 43q-100 37 -138 74q-37 37 -37 106q0 76 57.5 124t155.5 50v93h30v-94q94 -6 156 -65q61 -58 61 -170h-30q0 107 -60 157q-60 51 -151 51q-86 0 -137.5 -40.5t-51.5 -104.5
q0 -50 24.5 -80t84.5 -53l161 -63q87 -34 125 -73.5t38 -106.5q0 -80 -57.5 -129.5t-162.5 -51.5v-96h-30v96q-102 8 -170 67q-68 62 -68 175z" />
    <glyph glyph-name="Euro.mono" 
d="M325 -15q-114 0 -180 65.5t-66 181.5v26h-85v28h85v127h-85v28h85v27q0 116 66 181.5t180 65.5q100 0 167 -61q69 -61 69 -169v-10h-30v10q0 95 -60 148q-59 54 -146 54q-100 0 -158 -58.5t-58 -160.5v-27h275v-28h-275v-127h275v-28h-275v-26q0 -102 58 -160.5
t158 -58.5q88 0 147 53t59 149v10h30v-10q0 -108 -68 -170q-67 -60 -168 -60z" />
    <glyph glyph-name="sterling.mono" 
d="M527 0h-477v28h80v314h-80v28h80v158q0 85 52.5 136t146.5 51q91 0 144.5 -47.5t53.5 -126.5v-38h-30v38q0 66 -45.5 106t-122.5 40q-79 0 -124 -43t-45 -116v-158h204v-28h-204v-314h367v-28z" />
    <glyph glyph-name="yen.mono" 
d="M312 0h-30v123h-210v28h210v127h-210v28h192l-246 382v12h31l248 -390l250 390h29v-12l-247 -382h193v-28h-210v-127h210v-28h-210v-123z" />
    <glyph glyph-name="uni20BD.mono" 
d="M147 0h-30v140h-95v28h95v129h-95v28h95v375h262q87 0 136.5 -54t49.5 -148q0 -93 -49.5 -147t-136.5 -54h-232v-129h221v-28h-221v-140zM147 672v-347h229q74 0 116.5 46t42.5 127t-42.5 127.5t-116.5 46.5h-229z" />
    <glyph glyph-name="uni20B4.mono" 
d="M289 -15q-101 0 -160 50q-58 49 -58 126q0 58 32 101h-84v28h555v-28h-438q-35 -41 -35 -97q0 -68 50.5 -110t137.5 -42q81 0 136 44t66 128h30q-11 -99 -75 -150q-65 -50 -157 -50zM574 408h-555v28h424q39 44 39 103q0 62 -49 105t-132 43q-82 0 -136 -44t-63 -128h-30
q9 97 70 148.5t159 51.5q96 0 154 -50q57 -49 57 -124q0 -59 -36 -105h98v-28z" />
    <glyph glyph-name="a.alt1" horiz-adv-x="560" 
d="M250 -12q-83 0 -130 51t-47 136v154q0 85 47 136t129 51q112 0 194 -97l7 85h22v-504h-22l-7 85q-82 -97 -193 -97zM253 16q95 0 189 102v268q-94 102 -190 102q-70 0 -109.5 -44t-39.5 -117v-150q0 -73 40 -117t110 -44z" />
    <glyph glyph-name="agrave.alt1" horiz-adv-x="560" 
d="M250 -12q-83 0 -130 51t-47 136v154q0 85 47 136t129 51q112 0 194 -97l7 85h22v-504h-22l-7 85q-82 -97 -193 -97zM253 16q95 0 189 102v268q-94 102 -190 102q-70 0 -109.5 -44t-39.5 -117v-150q0 -73 40 -117t110 -44zM348 590h-34l-117 128v12h33z" />
    <glyph glyph-name="aacute.alt1" horiz-adv-x="560" 
d="M250 -12q-83 0 -130 51t-47 136v154q0 85 47 136t129 51q112 0 194 -97l7 85h22v-504h-22l-7 85q-82 -97 -193 -97zM253 16q95 0 189 102v268q-94 102 -190 102q-70 0 -109.5 -44t-39.5 -117v-150q0 -73 40 -117t110 -44zM285 590h-34l118 140h33v-12z" />
    <glyph glyph-name="acircumflex.alt1" horiz-adv-x="560" 
d="M250 -12q-83 0 -130 51t-47 136v154q0 85 47 136t129 51q112 0 194 -97l7 85h22v-504h-22l-7 85q-82 -97 -193 -97zM253 16q95 0 189 102v268q-94 102 -190 102q-70 0 -109.5 -44t-39.5 -117v-150q0 -73 40 -117t110 -44zM185 590h-29v12l116 128h31l116 -128v-12h-28
l-104 117z" />
    <glyph glyph-name="atilde.alt1" horiz-adv-x="560" 
d="M157 636l-13 -15l-21 17q38 50 56 66q17 16 42 16q21 0 61 -29l26 -19q33 -24 48 -24t28 13q14 13 48 57l21 -17q-39 -52 -56 -66q-17 -16 -43 -16q-24 0 -59 28l-27 20q-32 24 -47 24q-20 0 -42 -28q-5 -5 -22 -27zM250 -12q-83 0 -130 51t-47 136v154q0 85 47 136
t129 51q112 0 194 -97l7 85h22v-504h-22l-7 85q-82 -97 -193 -97zM253 16q95 0 189 102v268q-94 102 -190 102q-70 0 -109.5 -44t-39.5 -117v-150q0 -73 40 -117t110 -44z" />
    <glyph glyph-name="adieresis.alt1" horiz-adv-x="560" 
d="M250 -12q-83 0 -130 51t-47 136v154q0 85 47 136t129 51q112 0 194 -97l7 85h22v-504h-22l-7 85q-82 -97 -193 -97zM253 16q95 0 189 102v268q-94 102 -190 102q-70 0 -109.5 -44t-39.5 -117v-150q0 -73 40 -117t110 -44zM212 595h-30v110h30v-110zM386 595h-30v110h30
v-110z" />
    <glyph glyph-name="aring.alt1" horiz-adv-x="560" 
d="M250 -12q-83 0 -130 51t-47 136v154q0 85 47 136t129 51q112 0 194 -97l7 85h22v-504h-22l-7 85q-82 -97 -193 -97zM253 16q95 0 189 102v268q-94 102 -190 102q-70 0 -109.5 -44t-39.5 -117v-150q0 -73 40 -117t110 -44zM216 602q-28 28 -28 66t28 65q28 28 68 28
t68 -28q29 -27 29 -65t-29 -66q-28 -27 -68 -27t-68 27zM234 716q-20 -20 -20 -48t20 -48q21 -20 50 -20t50 20t21 48t-21 48t-50 20t-50 -20z" />
    <glyph glyph-name="amacron.alt1" horiz-adv-x="560" 
d="M250 -12q-83 0 -130 51t-47 136v154q0 85 47 136t129 51q112 0 194 -97l7 85h22v-504h-22l-7 85q-82 -97 -193 -97zM253 16q95 0 189 102v268q-94 102 -190 102q-70 0 -109.5 -44t-39.5 -117v-150q0 -73 40 -117t110 -44zM408 637h-248v26h248v-26z" />
    <glyph glyph-name="aogonek.alt1" horiz-adv-x="560" 
d="M532 -160h-52q-96 0 -96 73q0 47 65 94l-6 78q-82 -97 -193 -97q-83 0 -130 51t-47 136v154q0 85 47 136t129 51q112 0 194 -97l7 85h22v-504q-61 -43 -61 -83q0 -52 77 -52h44v-25zM253 16q95 0 189 102v268q-94 102 -190 102q-70 0 -109.5 -44t-39.5 -117v-150
q0 -73 40 -117t110 -44z" />
    <glyph glyph-name="t.alt1" horiz-adv-x="372" 
d="M201 0h-30v477h-141v27h141v201h30v-201h141v-27h-141v-477z" />
    <glyph glyph-name="tcaron.alt1" horiz-adv-x="472" 
d="M201 0h-30v477h-141v27h141v201h30v-201h141v-27h-141v-477zM414 532h-26l70 173h32v-15z" />
    <glyph glyph-name="J.alt1" horiz-adv-x="558" 
d="M250 -15q-103 0 -162.5 56t-59.5 158v26h32v-26q0 -87 51 -135.5t139 -48.5t139 49.5t51 135.5v470h-283v30h315v-501q0 -101 -60 -157.5t-162 -56.5z" />
    <glyph glyph-name="ampersand.alt1" horiz-adv-x="587" 
d="M493 251h-103v27h237v-27h-104v-17q0 -115 -64 -180q-63 -66 -170 -66q-102 0 -167 56q-63 56 -63 153q0 75 41 125.5t104 62.5q-52 12 -82.5 51t-30.5 98q0 74 51 123q52 50 140 50q90 0 143 -44.5t62 -127.5h-30q-9 70 -53.5 107t-121.5 37q-73 0 -116 -41t-43 -106
q0 -62 39.5 -98t112.5 -36h57v-27h-60q-84 0 -133.5 -47t-49.5 -126q0 -84 54.5 -133t145.5 -49q95 0 149.5 58t54.5 158v19z" />
    <glyph glyph-name="ampersand.alt2" horiz-adv-x="587" 
d="M477 0h-240q-85 0 -131.5 49t-46.5 138q0 75 35.5 122t94.5 57q-48 15 -76.5 56t-28.5 105q0 82 44.5 127.5t125.5 45.5h103v-27h-103q-66 0 -102.5 -39t-36.5 -109q0 -68 35.5 -107.5t98.5 -39.5h198l9 142h21v-142h72v-27h-72v-351zM242 27h205v324h-205
q-73 0 -112.5 -42.5t-39.5 -119.5q0 -76 40 -119t112 -43z" />
    <glyph glyph-name="at.alt1" horiz-adv-x="736" 
d="M439 -160h-93q-118 0 -188 63t-70 166v407q0 103 70 166t188 63h45q115 0 186 -63t71 -166v-366h-22l-8 77q-31 -31 -86 -61q-52 -28 -110 -28q-74 0 -118.5 37t-44.5 106q0 76 54 115.5t155 39.5h150v78q0 91 -62 147t-166 56h-44q-104 0 -166 -56t-62 -147v-403
q0 -91 62 -147t166 -56h93v-28zM425 126q95 0 193 92v151h-150q-179 0 -179 -126q0 -57 37.5 -87t98.5 -30z" />
    <glyph glyph-name="uni0430.alt1" horiz-adv-x="560" 
d="M250 -12q-83 0 -130 51t-47 136v154q0 85 47 136t129 51q112 0 194 -97l7 85h22v-504h-22l-7 85q-82 -97 -193 -97zM253 16q95 0 189 102v268q-94 102 -190 102q-70 0 -109.5 -44t-39.5 -117v-150q0 -73 40 -117t110 -44z" />
    <glyph glyph-name="uni0423.alt1" horiz-adv-x="555" 
d="M127 0h-13v30h16q45 0 75 25t57 85l17 38l-261 510v12h30l247 -486l212 486h30v-12l-242 -548q-36 -80 -71 -110q-34 -30 -97 -30z" />
    <glyph glyph-name="uni040E.alt1" horiz-adv-x="555" 
d="M127 0h-13v30h16q45 0 75 25t57 85l17 38l-261 510v12h30l247 -486l212 486h30v-12l-242 -548q-36 -80 -71 -110q-34 -30 -97 -30zM130 879v9h27v-8q0 -54 32 -83.5t89 -29.5q55 0 87.5 30t32.5 83v8h28v-9q0 -63 -40.5 -100t-107.5 -37t-107.5 37t-40.5 100z" />
    </font>
</defs>
</svg>
