<?xml version="1.0" encoding="utf-8"?>
<svg version="1.1" id="Layer_1" xmlns="http://www.w3.org/2000/svg" xmlns:xlink="http://www.w3.org/1999/xlink" x="0px" y="0px"
	 viewBox="0 0 372.3 372.3" enable-background="new 0 0 372.3 372.3" xml:space="preserve">
<path fill="#231F20" d="M186.6,164.9c-60.2,0-75.1-8.9-75.1-20.7c0-11.8,12.4-21.2,77.1-21.2c75.1,0,160.1,11.9,160.1,11.9l0-81.3
	c0,0-60.5-10.2-160-10.2S0,62.2,0,133.7c0,75.2,123.9,75.4,199.8,75.7c46.7,0.2,60.1,6.6,60.1,19.7c0,14.8-22.9,21.3-66.7,21.3
	C74,250.4,2.9,231.8,2.9,231.8v80.6c0,0,73.5,16.7,165.8,16.7s203.6-3.8,203.6-87.3C372.3,162.8,246.8,164.9,186.6,164.9z"/>
</svg>
