<?xml version="1.0" encoding="utf-8"?>
<!-- Generator: Adobe Illustrator 21.1.0, SVG Export Plug-In . SVG Version: 6.00 Build 0)  -->
<svg version="1.1" id="Слой_1" xmlns="http://www.w3.org/2000/svg" xmlns:xlink="http://www.w3.org/1999/xlink" x="0px" y="0px"
	 viewBox="0 0 786.5 182" enable-background="new 0 0 786.5 182" xml:space="preserve">
<filter  height="200%" id="Blur10" width="200%" x="-20%" y="-20%">
	<feGaussianBlur  stdDeviation="10"></feGaussianBlur>
</filter>
<g class="logo-circle">
	<circle cx="45" cy="91" r="45"/>
</g>
<g filter="url(#Blur10)" class="logo-circle logo-circle-blur">
    <circle cx="85.2" cy="91" r="57.2"/>
</g>
<g class="logo-text">
	<ellipse cx="261.1" cy="64.5" rx="9.1" ry="7"/>
	<rect x="253.4" y="74.8" width="15.5" height="37.7"/>
	<ellipse cx="650.9" cy="64.5" rx="9.1" ry="7"/>
	<rect x="643.2" y="74.8" width="15.5" height="37.7"/>
	<polygon points="726,76.4 726,74.8 706.6,74.8 684.7,88.5 684.7,56 669.1,56 669.1,112.5 684.7,112.5 684.7,94.8 707.9,112.5 
		726.2,112.5 726.2,110.9 701,92 	"/>
	<path d="M771.1,74.9v8.2c0,0-6.4-9.4-21.1-9.4c-9.3,0-25.4,4.4-25.4,20v0c0,15.6,16.1,20,25.4,20c14.7,0,21.1-9.4,21.1-9.4v8.2
		h15.3V93.7v0V74.9H771.1z M770.9,93.6v3.2c-3.8,1.9-9.6,5.3-16.7,5.3c-13.2,0-14.5-5.7-14.5-8.5s1.4-8.5,14.5-8.5
		c7.1,0,12.9,3.4,16.7,5.3V93.6z"/>
	<path d="M331,78.9c-4-3.5-9.6-5.2-16.6-5.2c-6.6,0-16.2,3.8-20.6,11.1V74.8h-14.7v37.6l15.6,0.2V90.2c6-3.5,11.4-5.1,16.9-5.1
		c3.8,0,6.4,1.5,7.9,3.1c1.5,1.6,2.2,4,2.2,7v17.2h15.5V94C337.1,87.5,335.1,82.4,331,78.9z"/>
	<path d="M604.2,60l-15.5,2.8v12v0.1h-5.4v11.2h5.4v5.2c0,7.5,2.1,13.1,6.2,16.8c4.1,3.7,10.7,5.5,20.2,5.5c5.7,0,11.9-0.9,18.3-2.7
		l0.7-0.2V99.1l-1.2,0.3c-6.9,1.8-12.4,2.6-16.7,2.6c-4.9,0-8.2-0.8-9.7-2.2c-1.5-1.5-2.3-4.1-2.3-7.9v-5.7h29.9V74.9h-29.9V60z"/>
	<path d="M484,60l-15.5,2.8v12v0.1h-5.4v11.2h5.4v5.2c0,7.5,2.1,13.1,6.2,16.8c4.1,3.7,10.7,5.5,20.2,5.5c5.7,0,11.9-0.9,18.3-2.7
		l0.7-0.2V99.6c0,0-9.5,2.9-17.9,2.9c-4.9,0-8.2-1.3-9.7-2.8c-1.5-1.5-2.3-4.1-2.3-7.9v-5.7h29.9V74.9H484V60z"/>
	<path d="M220.2,91c-8.5,0-10.6-1.3-10.6-2.9c0-1.7,1.7-3,10.8-3c10.6,0,22.5,1.7,22.5,1.7l0-11.4c0,0-8.5-1.4-22.5-1.4
		c-14,0-26.5,2.7-26.5,12.7c0,10.6,17.4,10.6,28.1,10.6c6.6,0,8.4,0.9,8.4,2.8c0,2.1-3.2,3-9.4,3c-16.8,0-26.7-2.6-26.7-2.6v11.3
		c0,0,10.3,2.3,23.3,2.3c13,0,28.6-0.5,28.6-12.3C246.2,90.7,228.6,91,220.2,91z"/>
	<path d="M434,91c-8.5,0-10.6-1.3-10.6-2.9c0-1.7,1.7-3,10.8-3c10.6,0,22.5,1.7,22.5,1.7l0-11.4c0,0-8.5-1.4-22.5-1.4
		c-14,0-26.5,2.7-26.5,12.7c0,10.6,17.4,10.6,28.1,10.6c6.6,0,8.4,0.9,8.4,2.8c0,2.1-3.2,3-9.4,3c-16.8,0-26.7-2.6-26.7-2.6v11.3
		c0,0,10.3,2.3,23.3,2.3s28.6-0.5,28.6-12.3C460.1,90.7,442.5,91,434,91z"/>
	<path d="M372.2,73.8c-21.7,0-29.3,9.2-29.3,20.4c0,9.6,6.7,19.4,32.2,19.4c17.4,0,24.1-2.6,24.1-2.6v-10.3c0,0-8.8,1.9-23.4,1.9
		c-13.9,0-15.9-2.4-17-4.3l42,0c0,0,1-2.6,1-7.1C401.8,85.4,397.2,73.8,372.2,73.8z M386.6,91.8h-27.9c0,0,0.1-6.7,14.2-6.7
		C387,85.1,386.6,91.8,386.6,91.8z"/>
	<path d="M550.5,73.8c-21.7,0-29.3,9.2-29.3,20.4c0,9.6,6.7,19.4,32.2,19.4c17.4,0,24.1-2.6,24.1-2.6v-10.3c0,0-8.8,1.9-23.4,1.9
		c-13.9,0-15.9-2.4-17-4.3l42,0c0,0,1-2.6,1-7.1C580.2,85.4,575.5,73.8,550.5,73.8z M564.9,91.8H537c0,0,0.1-6.7,14.2-6.7
		C565.3,85.1,564.9,91.8,564.9,91.8z"/>
</g>
</svg>
